<?xml version="1.0" encoding="UTF-8"?>
<!DOCTYPE svg PUBLIC "-//W3C//DTD SVG 1.1//EN" "http://www.w3.org/Graphics/SVG/1.1/DTD/svg11.dtd">
<svg version="1.1" xmlns="http://www.w3.org/2000/svg" xmlns:xlink="http://www.w3.org/1999/xlink" x="0" y="0" width="845" height="1097" viewBox="0, 0, 845, 1097">
  <defs>
    <clipPath id="Clip_1">
      <path d="M-0,0.08 L844.83,0.08 L844.83,1096.94 L-0,1096.94 z"/>
    </clipPath>
  </defs>
  <g id="Layer_1">
    <g clip-path="url(#Clip_1)">
      <path d="M417.957,1090.04 L609.947,1090.04 L642.946,881.555 L699.943,919.053 L641.446,991.05 L689.443,1042.05 L759.94,967.051 L803.438,896.554 L660.945,745.062 L339.961,755.561 L177.969,782.56 L171.969,839.557 L90.973,845.557 L102.973,883.055 L135.971,895.054 L183.969,889.055 L374.459,874.056 L417.957,1090.04" fill="#FFFFFF"/>
      <path d="M635.897,982.764 C640.531,954.437 645.079,926.641 649.716,898.293 C657.552,903.839 664.955,909.111 672.393,914.333 C678.105,918.342 683.828,922.336 689.616,926.233 C691.251,927.333 691.97,928.103 690.493,930.024 C677.701,946.657 664.518,962.922 647.813,975.895 C644.29,978.631 640.619,981.231 635.897,982.764 z M844.607,322.605 C845.738,281.64 842.785,241.091 830.686,201.641 C815.672,152.693 789.229,111.821 745.746,83.39 C714.777,63.141 680.752,51.693 643.672,49.887 C640.907,49.752 638.592,49.177 636.22,47.77 C562.469,4.057 483.429,-10.77 399.62,8.139 C309.942,28.371 246.029,81.349 210.718,166.629 C190.01,216.643 183.201,269.508 184.641,323.469 C185.623,360.309 191.65,395.93 210.745,428.493 C208.919,429.145 207.223,429.734 205.539,430.356 C182.589,438.83 171.137,455.708 171.8,480.072 C172.391,501.803 183.942,516.772 204.811,522.949 C211.547,524.943 218.457,525.963 225.4,526.736 C236.696,527.993 236.539,527.938 237.734,538.997 C241.478,573.631 247.586,607.802 258.839,640.871 C269.838,673.196 285.272,702.93 310.097,727.074 C318.462,735.21 327.781,742.099 338.237,748.66 C335.874,749.146 334.286,749.531 332.678,749.794 C306.906,754.011 281.131,758.211 255.357,762.416 C231.553,766.3 207.744,770.156 183.952,774.117 C181.648,774.501 180.515,774.292 179.521,771.797 C171.654,752.057 163.579,732.401 155.325,712.124 C161.338,711.333 166.787,710.715 172.204,709.884 C186.072,707.755 199.697,704.786 211.781,697.139 C230.516,685.285 237.276,662.128 227.869,642.007 C227.196,640.568 226.993,639.32 227.282,637.751 C230.811,618.552 228.081,599.91 221.466,581.83 C213.212,559.272 197.192,545.497 173.473,540.725 C158.337,537.681 143.314,538.707 128.337,541.485 C97.1,547.279 68.353,559.675 40.646,574.821 C28.863,581.263 22.004,591.111 19.755,604.198 C16.842,621.139 19.228,638.078 20.475,654.948 C22.028,675.966 28.033,696.101 34.549,716.044 C47.68,756.228 64.64,794.851 82.501,833.1 C83.532,835.308 84.446,837.071 82.072,839.211 C80.009,841.071 79.577,843.861 80.232,846.626 C81.38,851.474 82.233,856.432 83.851,861.122 C90.837,881.383 102.472,897.553 123.94,904.333 C139.49,909.244 155.027,907.523 170.001,902.149 C180.902,898.237 191.786,895.242 203.405,895.173 C206.564,895.155 209.725,894.908 212.879,894.675 C264.827,890.842 316.777,887.021 368.717,883.082 C371.892,882.841 372.547,883.922 372.927,886.806 C374.512,898.846 376.269,910.867 378.205,922.857 C384.675,962.922 391.221,1002.97 397.798,1043.02 C400.332,1058.45 402.974,1073.87 405.677,1089.27 C406.724,1095.24 410.452,1097.72 416.425,1096.81 C420.746,1096.16 423.224,1092.48 422.879,1087.1 C422.784,1085.61 422.467,1084.14 422.221,1082.66 C418.428,1059.85 414.396,1037.09 410.882,1014.24 C403.676,967.378 395.031,920.749 388.609,873.767 C387.697,867.093 384.416,864.572 377.691,864.999 C369.72,865.506 361.762,866.224 353.795,866.807 C313.629,869.744 273.467,872.748 233.289,875.524 C225.499,876.062 217.69,877.315 209.248,876.738 C210.336,875.02 211.043,873.926 211.727,872.819 C218.121,862.469 220.906,851.146 220.594,839.058 C220.412,832.013 216.535,828.159 210.598,828.757 C205.609,829.259 202.73,833.012 202.957,839.138 C203.502,853.839 198.268,866.224 186.504,874.809 C170.792,886.276 152.872,891.413 133.354,888.652 C120.836,886.881 107.792,875.407 105.203,864.828 C105.916,864.968 106.554,865.06 107.174,865.221 C126.161,870.14 144.47,868.318 161.949,859.406 C174.126,853.196 182.12,843.432 185.945,830.23 C189.265,818.774 189.205,807.244 187.142,795.631 C186.709,793.193 186.214,791.409 189.897,790.813 C244.412,781.993 298.892,772.955 353.404,764.12 C358.458,763.301 363.763,760.782 368.619,762.278 C384.804,767.266 401.345,769.692 418.141,770.835 C419.957,770.959 420.553,771.628 421.183,773.281 C426.031,786.005 431.015,798.678 436.022,811.341 C439.989,821.373 444.039,822.715 453.54,817.318 C459.07,814.178 464.62,811.075 470.422,807.808 C471.088,814.418 471.694,820.211 472.248,826.009 C472.61,829.799 473.471,833.243 477.382,835.023 C479.437,835.958 478.734,837.84 478.634,839.417 C477.909,850.876 477.147,862.333 476.382,873.789 C473.9,910.985 471.433,948.181 468.895,985.373 C468.611,989.53 469.906,992.733 473.038,995.512 C480.137,1001.81 487.066,1008.3 494.077,1014.7 C499.409,1019.57 503.536,1019.67 508.959,1014.97 C516.004,1008.86 522.897,1002.57 530.038,996.576 C533.133,993.978 534.45,991 534.295,987.029 C533.623,969.736 533.099,952.437 532.444,935.143 C531.254,903.715 530.013,872.288 528.778,840.862 C528.718,839.326 528.656,838.155 530.613,837.442 C535.117,835.799 536.493,832.086 536.687,827.544 C536.973,820.851 537.563,814.171 538.066,806.865 C545.449,811.31 552.136,815.313 558.801,819.353 C566.491,824.014 571.193,822.478 574.784,814.062 C579.801,802.302 584.992,790.61 589.697,778.726 C591.268,774.758 593.323,773.122 597.595,772.976 C617.533,772.299 636.912,768.653 655.402,760.966 C657.658,760.029 658.98,760.576 660.612,762.105 C693.54,792.957 727.229,823.011 758.644,855.448 C769.876,867.045 781.075,878.696 789.983,892.296 C792.006,895.385 792.925,898.369 791.85,902.12 C789.721,909.551 786.255,916.328 782.28,922.857 C768.978,944.706 752.755,964.326 735.537,983.13 C721.927,997.993 707.89,1012.45 692.082,1025.06 C690.018,1026.71 688.669,1027.42 686.289,1025.14 C676.552,1015.81 666.611,1006.69 657.371,996.847 C656.163,995.561 653.755,994.528 656.733,992.342 C678.654,976.252 695.095,955.088 710.944,933.407 C716.391,925.955 715.492,921.658 707.98,916.356 C688.272,902.446 667.839,889.537 649.33,873.963 C646.415,871.51 643.049,871.059 639.523,872.579 C635.937,874.126 634.307,877.093 633.928,880.813 C631.715,902.514 627.844,923.974 624.352,945.481 C616.728,992.439 608.825,1039.35 601.085,1086.29 C599.979,1093 603.961,1097.24 610.707,1096.84 C615.123,1096.58 617.663,1093.83 618.637,1088.14 C620.159,1079.26 621.647,1070.37 623.313,1060.52 C624.831,1062.64 625.683,1063.83 626.533,1065.02 C637.863,1080.89 652.186,1091.61 672.387,1093.57 C690.852,1095.35 702.788,1083.91 700.478,1065.51 C700.004,1061.74 699.082,1057.99 698,1054.34 C695.482,1045.84 695.483,1045.99 702.545,1040.41 C724.208,1023.31 743.007,1003.28 760.95,982.436 C777.038,963.745 791.959,944.256 803.814,922.454 C813.771,904.142 812.355,888.148 798.665,872.046 C779.737,849.784 759.191,829.165 738.114,809.04 C718.608,790.416 698.727,772.183 678.915,753.883 C676.446,751.602 676.027,750.513 679.329,748.662 C684.848,745.567 689.818,741.606 694.672,737.535 C719.783,716.473 736.449,689.521 748.664,659.567 C765.338,618.68 772.809,575.656 777.497,532.049 C777.899,528.303 779.283,527.424 782.571,527.141 C788.697,526.614 794.835,525.953 800.891,524.905 C837.997,518.481 854.973,479.067 833.951,448.774 C830.975,444.485 824.422,442.132 824.498,436.925 C824.573,431.746 828.009,426.668 829.677,421.452 C839.952,389.31 843.681,356.145 844.607,322.605" fill="#6E4100"/>
      <path d="M74.47,456.329 C66.284,456.409 61.599,452.592 59.822,444.547 C56.594,429.931 53.186,415.352 50.142,400.698 C49.49,397.558 48.105,396.309 45.169,395.527 C33.603,392.449 22.11,389.1 10.577,385.897 C3.904,384.044 0.125,379.364 0.003,372.641 C-0.116,366.088 3.64,361.131 10.317,359.235 C21.832,355.965 33.342,352.667 44.912,349.596 C47.991,348.779 49.518,347.508 50.207,344.158 C53.219,329.501 56.836,314.967 59.756,300.294 C60.908,294.507 63.823,290.819 69.253,289.389 C75.159,287.834 80.825,288.557 85.548,293.002 C86.954,294.326 87.534,295.942 87.94,297.799 C91.282,313.069 94.81,328.3 98.045,343.592 C98.79,347.113 100.388,348.863 103.886,349.787 C115.781,352.928 127.602,356.352 139.434,359.726 C145.099,361.342 148.211,366.003 148.199,372.595 C148.186,378.989 145.228,383.612 139.733,385.21 C128.082,388.599 116.44,392.053 104.676,395.006 C100.276,396.11 98.628,398.352 97.773,402.576 C94.902,416.756 91.655,430.861 88.509,444.984 C86.825,452.546 82.183,456.253 74.47,456.329" fill="#FFCF00"/>
    </g>
    <path d="M766.57,417.587 C765.019,471.501 763.007,521.219 754.688,570.413 C748.284,608.282 738.769,645.21 719.821,679.058 C700.694,713.227 673.812,738.19 635.513,749.425 C614.692,755.532 593.191,756.011 571.764,757.041 C526.473,759.219 481.23,758.016 436.037,754.731 C415.312,753.225 394.491,752.166 374.487,745.642 C338.096,733.772 312.173,709.622 293.739,676.746 C277.115,647.098 267.997,614.894 261.717,581.749 C254.108,541.587 251.207,500.937 249.346,460.193 C248.184,434.764 246.776,409.326 246.467,383.88 C245.997,345.125 249.166,306.746 262.195,269.794 C280.761,217.142 317.978,182.661 368.354,161.121 C397.309,148.74 427.718,143.096 459.095,142.157 C460.869,142.104 461.818,142.89 462.795,144.127 C487.945,175.962 521.364,196.495 557.677,212.812 C605.365,234.238 655.462,247.025 707.323,253.053 C716.243,254.09 725.204,255.019 734.168,255.322 C738.74,255.477 740.808,257.406 742.602,261.251 C757.492,293.167 765.329,326.76 767.225,361.858 C768.305,381.848 766.367,401.785 766.57,417.587" fill="#FEF5E2"/>
    <path d="M455.798,18.956 C480.82,16.504 505.455,19.436 529.909,24.464 C570.027,32.714 606.966,48.487 640.782,71.601 C646.13,75.256 649.799,74.692 654.207,69.914 C655.219,68.816 656.109,68.135 658.01,68.448 C690.925,73.881 721.094,85.727 747.596,106.305 C776.429,128.693 796.01,157.722 808.75,191.629 C817.393,214.634 822.184,238.489 824.919,262.883 C827.584,286.644 827.535,310.457 826.503,334.216 C825.159,365.177 820.714,395.724 809.94,425.069 C808.484,429.032 807.035,430.192 802.861,428.704 C798.195,427.041 793.199,426.038 788.207,426.048 C784.679,426.055 783.487,424.862 783.783,421.408 C785.062,406.459 784.631,391.465 784.823,376.486 C785.349,335.632 777.386,296.521 760.858,259.151 C760.474,258.285 759.774,257.426 760.303,256.158 C761.692,256.058 763.184,256.032 764.651,255.831 C769.094,255.223 772.354,251.796 772.615,247.552 C772.882,243.207 770.185,239.588 765.63,238.55 C763.879,238.151 762.007,238.182 760.19,238.18 C683.661,238.087 611.208,220.919 543.066,186.029 C523.562,176.042 505.6,163.602 489.925,148.256 C477.364,135.96 466.722,122.099 460.681,105.26 C459.097,100.845 456.125,98.068 451.467,98.27 C447.57,98.44 444.706,100.755 443.427,104.729 C442.883,106.421 442.902,107.975 443.537,109.589 C444.509,112.064 445.366,114.588 446.424,117.025 C450.018,125.304 450.033,125.163 440.756,125.896 C389.952,129.91 344.097,146.902 304.405,179.14 C269.9,207.165 249.337,243.966 238.796,286.736 C233.449,308.43 230.755,330.46 229.554,352.775 C228.675,369.1 228.931,385.393 229.054,401.701 C229.096,407.171 230.197,412.619 229.613,418.121 C226.943,417.556 226.634,415.175 226.034,413.19 C219.968,393.148 216.988,372.654 216.374,351.711 C215.112,308.714 221.009,266.645 232.359,225.297 C245.334,178.028 266.715,134.956 299.435,98.23 C336.663,56.443 382.786,29.804 438.323,20.323 C441.754,19.737 445.289,19.867 448.696,19.017 C451.067,19.46 453.421,17.82 455.798,18.956" fill="#868D91"/>
    <path d="M210.835,627.639 C194.82,622.965 179.199,619.954 163.059,621.791 C142.388,624.144 129.734,637.39 127.997,658.182 C127.834,660.136 128.377,662.048 125.329,662.491 C115.63,663.901 106.028,666.004 96.102,665.067 C88.933,664.39 83.079,661.503 78.406,656.004 C74.272,651.14 68.864,650.289 64.952,653.665 C60.921,657.144 60.862,662.393 65.021,667.408 C76.678,681.465 92.308,684.291 109.289,682.43 C119.527,681.307 129.691,679.475 139.861,677.795 C141.918,677.455 143.633,677.561 145.566,678.397 C150.049,680.337 154.843,680.986 159.712,680.861 C165.757,680.707 169.689,677.108 169.62,671.923 C169.552,666.822 165.948,663.392 160.022,663.25 C155.766,663.149 151.893,662.413 148.244,659.987 C146.033,658.516 145.571,657.1 146.169,654.645 C148.389,645.539 155.408,639.724 166.274,638.993 C178.163,638.194 189.896,639.743 201.265,643.247 C206.643,644.905 212.408,646.957 213.551,653.589 C215.199,663.151 214.484,672.256 206.424,679.208 C197.2,687.165 185.789,689.774 174.311,691.767 C155.6,695.017 136.647,696.238 117.707,697.274 C113.383,697.51 109.949,699.235 106.943,701.798 C103.682,704.579 103.164,708.434 105.169,712.232 C107.188,716.056 110.701,717.681 114.846,716.653 C121.028,715.121 127.329,714.704 133.593,713.879 C136.201,713.535 137.447,714.462 138.406,716.855 C147.304,739.056 156.768,761.043 165.105,783.45 C169.995,796.591 170.714,810.552 166.534,824.198 C158.741,849.64 126.378,858.533 106.471,840.866 C105.512,840.015 104.664,838.902 104.117,837.744 C81.029,788.907 58.959,739.677 44.302,687.466 C37.709,663.982 36.293,639.98 36.034,615.832 C35.896,602.93 41.311,593.745 53.46,587.624 C78.812,574.851 104.631,563.654 132.698,558.48 C146.883,555.866 161.15,555.063 175.226,559.191 C189.235,563.3 198.921,572.325 204.184,585.921 C209.343,599.247 212.191,612.98 210.835,627.639" fill="#FEF5E2"/>
    <path d="M448.69,19.887 C385.636,28.689 334.068,58.048 293.712,107.065 C259.554,148.555 239.288,196.624 227.867,248.738 C220.031,284.496 216.033,320.624 217.82,357.264 C218.763,376.605 221.675,395.639 227.807,414.083 C228.27,415.475 229.004,416.777 229.613,418.121 C229.711,418.704 229.81,419.288 229.909,419.871 C230.058,421.34 231.487,423.154 228.833,423.868 C213.636,401.532 206.931,376.208 204.022,349.884 C197.728,292.929 203.546,236.887 223.208,183.205 C254.303,98.308 315.535,46.244 403.186,25.049 C417.424,21.606 431.898,19.326 446.594,18.846 C447.608,18.559 448.775,17.963 448.69,19.887" fill="#FEFEFE"/>
    <path d="M503.78,836.878 C511.302,837.037 511.331,837.036 511.595,844.48 C512.78,877.886 513.929,911.294 515.13,944.7 C515.567,956.827 516.03,968.954 516.676,981.07 C516.815,983.678 516.212,985.506 514.137,987.066 C512.149,988.562 510.352,990.312 508.464,991.942 C501.607,997.861 502.005,997.347 494.717,991.668 C488.035,986.46 486.605,980.796 487.29,972.476 C490.019,939.335 491.77,906.115 493.894,872.924 C494.5,863.466 495.226,854.015 495.742,844.553 C496.169,836.721 496.068,836.715 503.78,836.878" fill="#FFBF71"/>
    <path d="M234.296,505.365 C235.087,508.892 234.786,510.208 231.965,509.83 C223.569,508.704 215.113,508.069 207.023,505.174 C196.501,501.408 190.913,494 189.721,482.994 C187.327,460.907 199.533,446.833 223.71,443.901 C230.836,443.037 230.863,443.036 231.275,450.431 C232.321,469.193 233.341,487.958 234.296,505.365" fill="#FEF5E2"/>
    <path d="M824.742,477.002 C824.694,493.821 817.942,502.636 801.827,506.801 C795.54,508.426 789.062,508.87 782.659,509.789 C780.056,510.163 779.609,509.184 779.823,506.82 C781.649,486.645 782.373,466.405 783.256,446.174 C783.317,444.774 782.881,443.094 785.436,443.358 C796.503,444.5 807.057,446.914 815.63,454.683 C822.241,460.675 824.671,468.356 824.742,477.002" fill="#FEF5E2"/>
    <path d="M629.575,1025.51 C629.595,1016.65 634.67,1011.77 643.652,1011.75 C645.353,1011.75 646.436,1012.38 647.55,1013.47 C654.682,1020.45 662.67,1026.75 668.8,1034.51 C676.765,1044.6 681.959,1056.42 683.125,1069.51 C683.57,1074.5 681.867,1075.96 676.612,1075.98 C665.952,1076.02 656.975,1072.09 649.272,1064.69 C638.171,1054.01 629.548,1037.23 629.575,1025.51" fill="#FEF5E2"/>
    <path d="M512.038,819.748 C505.39,819.457 498.744,819.067 492.093,818.93 C489.722,818.882 488.74,818.01 488.794,815.726 C488.813,814.896 488.702,814.064 488.658,813.232 C488.393,808.146 485.252,801.779 488.2,798.312 C492.059,793.773 498.744,791.637 504.21,788.463 C505.101,787.945 506.055,787.488 507.023,788.068 C511.304,790.634 515.546,793.266 519.815,795.852 C521.056,796.604 520.944,797.805 520.878,798.947 C520.523,805.094 520.075,811.236 519.774,817.385 C519.68,819.297 518.95,820.068 517.029,819.929 C515.372,819.81 513.7,819.905 512.035,819.905 C512.036,819.852 512.037,819.8 512.038,819.748" fill="#FFBF71"/>
    <path d="M488.74,776.856 C475.945,784.217 463.15,791.578 450.11,799.08 C446.646,790.313 443.306,781.858 439.73,772.809 C456.065,773.558 471.894,774.284 487.723,775.01 C488.394,775.443 489.29,775.751 488.74,776.856" fill="#FEFEFE"/>
    <path d="M521.529,776.238 C522.83,775.932 523.264,775.742 523.697,775.742 C539.639,775.727 555.581,775.729 571.955,775.729 C568.806,783.133 565.524,791.021 562.083,798.84 C560.951,801.412 559.483,799.138 558.547,798.581 C546.42,791.355 534.364,784.012 521.529,776.238" fill="#FEFEFD"/>
    <path d="M448.69,19.887 C447.992,19.541 447.293,19.193 446.594,18.846 C449.672,18.088 452.753,17.017 455.798,18.956 C453.4,19.05 451.179,20.487 448.69,19.887" fill="#D7D1CB"/>
    <path d="M228.833,423.868 C230.522,422.894 229.184,421.104 229.909,419.871 C231.007,421.121 230.958,422.817 230.651,424.086 C230.093,426.4 229.358,424.868 228.833,423.868" fill="#AF997E"/>
    <path d="M488.74,776.856 C488.401,776.241 488.062,775.626 487.723,775.01 C488.781,774.914 490.248,774.318 490.714,775.367 C491.051,776.126 489.756,776.771 488.74,776.856" fill="#D8CEC2"/>
    <path d="M325.322,551.984 C310.072,552.106 297.454,549.118 286.138,541.75 C271.274,532.073 268.152,514.715 278.703,500.604 C289.444,486.238 303.87,479.255 321.855,478.807 C337,478.431 350.093,482.72 360.296,494.069 C365.626,499.997 370.219,506.563 370.793,515.036 C371.741,529.053 362.587,536.777 352.695,543.896 C344.017,550.141 334.122,552.484 325.322,551.984" fill="#FFE0C5"/>
    <path d="M699.58,548.923 C687.316,549.22 676.975,546.875 667.195,541.713 C649.447,532.347 646.365,512.731 660.066,497.96 C670.294,486.934 682.983,481.155 697.573,481.151 C717.127,481.146 732.731,489.173 741.057,509.803 C744.1,517.343 742.441,524.716 737.277,530.708 C727.1,542.516 714.926,550.616 699.58,548.923" fill="#FFE0C5"/>
    <path d="M489.752,669.957 C475.524,669.541 461.059,667.337 449.041,657.148 C447.385,655.744 445.729,654.334 444.747,652.354 C442.805,648.44 443.449,644.74 446.564,641.884 C449.69,639.018 454.103,638.251 457.094,641.063 C469.54,652.766 484.673,653.23 500.109,651.785 C517.399,650.166 533.572,644.685 548.025,634.896 C557.469,628.5 565.034,620.603 566.872,608.539 C567.536,604.182 571.901,601.491 576.153,601.953 C580.718,602.448 583.997,606.011 583.872,610.777 C583.665,618.697 580.513,625.657 576.023,631.972 C565.702,646.486 551.046,655.081 534.846,661.374 C520.622,666.899 505.832,669.708 489.752,669.957" fill="#6E4100"/>
    <path d="M587.714,423.109 C588.156,415.374 590.59,407.756 596.422,401.537 C603.108,394.409 611.526,393.978 619.011,400.225 C631.423,410.583 632.07,432.274 620.3,443.415 C611.44,451.801 598.006,449.926 591.745,439.45 C588.85,434.605 587.681,429.338 587.714,423.109" fill="#6E4100"/>
    <path d="M389.703,424.067 C390.197,414.447 392.975,405.8 400.719,399.459 C406.547,394.687 413.411,394.65 419.525,399.075 C433.948,409.515 434.537,433.648 420.641,444.785 C412.799,451.069 400.885,449.552 395.007,441.396 C391.306,436.261 389.595,430.441 389.703,424.067" fill="#6E4100"/>
    <path d="M607.053,270.773 C616.963,270.878 624.369,274.782 630.173,281.8 C633.161,285.411 632.889,289.669 629.772,292.509 C626.677,295.33 622.557,295.097 619.086,291.881 C618.111,290.978 617.245,289.954 616.234,289.098 C610.144,283.941 603.16,284.96 598.823,291.607 C595.346,296.935 591.483,298.365 587.405,295.835 C583.396,293.348 582.803,288.829 585.997,283.566 C590.929,275.438 598.201,271.174 607.053,270.773" fill="#6E4100"/>
    <path d="M431.623,289.431 C431.275,292.614 429.75,295.153 426.348,296.301 C422.893,297.467 420.12,296.312 417.979,293.597 C410.046,283.539 405.476,283.192 396.448,292.066 C393.103,295.354 388.964,295.699 385.758,292.956 C382.836,290.456 382.433,286.051 384.807,282.567 C395.917,266.265 420.22,267.082 429.857,284.076 C430.764,285.675 431.594,287.287 431.623,289.431" fill="#6E4100"/>
    <path d="M504.818,449.924 C506.97,449.704 509.328,450.344 510.511,452.106 C514.097,457.443 516.73,463.359 517.749,469.702 C518.284,473.032 516.036,475.648 512.853,477.085 C509.702,478.507 506.575,478.403 503.963,476.103 C498.507,471.3 496.529,464.72 496.073,457.853 C495.775,453.371 500.054,449.968 504.818,449.924" fill="#6E4100"/>
  </g>
</svg>
