<?xml version="1.0" encoding="UTF-8"?>
<!DOCTYPE svg PUBLIC "-//W3C//DTD SVG 1.1//EN" "http://www.w3.org/Graphics/SVG/1.1/DTD/svg11.dtd">
<svg version="1.1" xmlns="http://www.w3.org/2000/svg" xmlns:xlink="http://www.w3.org/1999/xlink" x="0" y="0" width="280" height="440" viewBox="0, 0, 280, 440">
  <defs>
    <clipPath id="Clip_1">
      <path d="M279.906,-1.901 L279.906,438.643 L1.906,438.643 L1.906,-1.901 L279.906,-1.901 z"/>
    </clipPath>
  </defs>
  <g id="Layer_1">
    <g clip-path="url(#Clip_1)">
      <path d="M222.088,383.211 L217.113,302.239 C224.955,311.214 235.392,323.336 242.761,331.411 z M222.601,391.569 L222.492,389.795 L223.648,390.269 z M173.074,390.965 L172.916,390.967 C173.066,384.203 173.074,379.147 173.074,378.689 z M221.267,247.234 C214.273,243.44 185.144,237.117 185.144,237.117 L185.353,237.586 L181.156,235.249 C181.156,235.249 181.074,235.594 180.896,236.17 L180.478,231.758 C220.877,228.863 245.086,202.25 254.617,169.27 C266.504,166.711 272.326,160.024 272.326,148.426 C272.326,136.268 265.898,131.253 259.187,129.324 C259.152,128.521 259.109,127.718 259.06,126.916 L259.06,126.934 C262.023,128.472 263.682,129.318 263.682,129.318 C263.682,129.318 265.359,71.967 252.798,46.784 C246.375,33.905 230,27.92 230,27.92 L234.599,20.329 C229.504,21.157 220.039,17.849 212.759,15.369 C205.48,12.889 188.115,14.542 188.115,14.542 L188.736,5.449 C182.912,10.41 140.996,10.77 127.495,17.383 C113.994,23.995 113.266,29.068 113.266,29.068 C108.351,31.361 97.959,37.138 93.149,46.784 C80.588,71.967 82.264,129.318 82.264,129.318 C82.264,129.318 83.99,128.642 87.06,127.408 C87.06,127.405 87.061,127.401 87.061,127.397 C87.023,128.039 86.988,128.681 86.96,129.324 C80.249,131.253 73.822,136.268 73.822,148.426 C73.822,160.024 79.644,166.711 91.529,169.27 C101.062,202.25 125.271,228.863 165.668,231.758 L165.193,236.77 C164.879,235.83 164.738,235.249 164.738,235.249 L159.859,237.966 L160.203,237.117 C160.203,237.117 131.074,243.44 124.08,247.234 C121.83,248.454 107.11,277.842 102.078,292.051 L84.455,260.092 L79.362,262.196 L77.701,255.134 C81.059,252.051 86.223,246.264 88.584,238.17 C92.379,225.162 89.151,211.452 82.088,214.024 C75.026,216.597 83.695,227.034 78.177,230.669 C65.854,238.788 58.656,226.561 58.656,226.561 C58.656,226.561 52.108,213.885 59.093,208.467 C64.75,204.08 75.246,217.279 78.57,210.88 C82.078,204.134 65.897,195.037 53.552,199.146 C41.209,203.254 46.036,224.126 46.036,224.126 C46.036,224.126 22.606,205.536 18.852,210.567 C14.84,215.944 39.929,234.243 39.929,234.243 C39.929,234.243 9.599,222.594 8.215,227.682 C5.978,235.898 36.007,245.379 36.007,245.379 C36.007,245.379 5.933,239.54 9.126,246.943 C13.541,257.181 61.442,264.63 61.442,264.63 L63.994,263.283 L66.371,267.562 L61.455,269.592 C61.455,269.592 89.491,347.575 98.158,347.575 C101.945,347.575 117.68,325.389 128.695,307.78 L121.333,427.592 C121.333,427.592 123.043,427.825 125.812,428.166 L141.783,662.258 L163.951,662.593 L171.375,457.559 L172.781,456.003 L174.187,457.559 L181.611,662.593 L203.779,662.258 L219.521,431.534 C221.156,436.555 223.89,440.23 228.466,437.953 C235.504,434.452 238.445,415.032 234.863,402.208 L238.021,396.168 L240.763,397.293 L269.918,335.377 C271.238,333.737 272.048,331.819 272.048,329.703 C272.048,320.37 223.517,248.454 221.267,247.234 M210.912,669.328 C202.568,661.491 181.611,663.481 181.611,663.481 L181.611,677.564 L213.459,677.564 C213.459,677.564 217.552,675.565 210.912,669.328 M134.651,669.328 C128.009,675.565 132.104,677.564 132.104,677.564 L163.951,677.564 L163.951,663.481 C163.951,663.481 142.995,661.491 134.651,669.328" fill="#666666"/>
      <path d="M222.088,383.211 L217.113,302.239 C224.955,311.214 235.392,323.336 242.761,331.411 L222.088,383.211 z M222.601,391.569 L222.492,389.795 L223.648,390.269 L222.601,391.569 z M173.074,390.965 L172.916,390.967 C173.066,384.203 173.074,379.147 173.074,378.689 L173.074,390.965 z M221.267,247.234 C214.273,243.44 185.144,237.117 185.144,237.117 L185.353,237.586 L181.156,235.249 C181.156,235.249 181.074,235.594 180.896,236.17 L180.478,231.758 C220.877,228.863 245.086,202.25 254.617,169.27 C266.504,166.711 272.326,160.024 272.326,148.426 C272.326,136.268 265.898,131.253 259.187,129.324 C259.152,128.521 259.109,127.718 259.06,126.916 L259.06,126.934 C262.023,128.472 263.682,129.318 263.682,129.318 C263.682,129.318 265.359,71.967 252.798,46.784 C246.375,33.905 230,27.92 230,27.92 L234.599,20.329 C229.504,21.157 220.039,17.849 212.759,15.369 C205.48,12.889 188.115,14.542 188.115,14.542 L188.736,5.449 C182.912,10.41 140.996,10.77 127.495,17.383 C113.994,23.995 113.266,29.068 113.266,29.068 C108.351,31.361 97.959,37.138 93.149,46.784 C80.588,71.967 82.264,129.318 82.264,129.318 C82.264,129.318 83.99,128.642 87.06,127.408 C87.06,127.405 87.061,127.401 87.061,127.397 C87.023,128.039 86.988,128.681 86.96,129.324 C80.249,131.253 73.822,136.268 73.822,148.426 C73.822,160.024 79.644,166.711 91.529,169.27 C101.062,202.25 125.271,228.863 165.668,231.758 L165.193,236.77 C164.879,235.83 164.738,235.249 164.738,235.249 L159.859,237.966 L160.203,237.117 C160.203,237.117 131.074,243.44 124.08,247.234 C121.83,248.454 107.11,277.842 102.078,292.051 L84.455,260.092 L79.362,262.196 L77.701,255.134 C81.059,252.051 86.223,246.264 88.584,238.17 C92.379,225.162 89.151,211.452 82.088,214.024 C75.026,216.597 83.695,227.034 78.177,230.669 C65.854,238.788 58.656,226.561 58.656,226.561 C58.656,226.561 52.108,213.885 59.093,208.467 C64.75,204.08 75.246,217.279 78.57,210.88 C82.078,204.134 65.897,195.037 53.552,199.146 C41.209,203.254 46.036,224.126 46.036,224.126 C46.036,224.126 22.606,205.536 18.852,210.567 C14.84,215.944 39.929,234.243 39.929,234.243 C39.929,234.243 9.599,222.594 8.215,227.682 C5.978,235.898 36.007,245.379 36.007,245.379 C36.007,245.379 5.933,239.54 9.126,246.943 C13.541,257.181 61.442,264.63 61.442,264.63 L63.994,263.283 L66.371,267.562 L61.455,269.592 C61.455,269.592 89.491,347.575 98.158,347.575 C101.945,347.575 117.68,325.389 128.695,307.78 L121.333,427.592 C121.333,427.592 123.043,427.825 125.812,428.166 L141.783,662.258 L163.951,662.593 L171.375,457.559 L172.781,456.003 L174.187,457.559 L181.611,662.593 L203.779,662.258 L219.521,431.534 C221.156,436.555 223.89,440.23 228.466,437.953 C235.504,434.452 238.445,415.032 234.863,402.208 L238.021,396.168 L240.763,397.293 L269.918,335.377 C271.238,333.737 272.048,331.819 272.048,329.703 C272.048,320.37 223.517,248.454 221.267,247.234 z M210.912,669.328 C202.568,661.491 181.611,663.481 181.611,663.481 L181.611,677.564 L213.459,677.564 C213.459,677.564 217.552,675.565 210.912,669.328 z M134.651,669.328 C128.009,675.565 132.104,677.564 132.104,677.564 L163.951,677.564 L163.951,663.481 C163.951,663.481 142.995,661.491 134.651,669.328 z" fill-opacity="0" stroke="#666666" stroke-width="8" stroke-linecap="round" stroke-linejoin="round"/>
      <path d="M181.031,237.6 L179.561,222.083 L173.074,217.865 L166.583,222.083 L165.115,237.6 L153.87,240.089 C153.87,240.089 151.947,249.027 173.074,249.027 C194.199,249.027 192.274,240.089 192.274,240.089 z" fill="#FFECD0"/>
      <path d="M181.031,237.6 L179.561,222.083 L173.074,217.865 L166.583,222.083 L165.115,237.6 L153.87,240.089 C153.87,240.089 151.947,249.027 173.074,249.027 C194.199,249.027 192.274,240.089 192.274,240.089 L181.031,237.6 z" fill-opacity="0" stroke="#666666" stroke-width="4" stroke-linecap="round" stroke-linejoin="round"/>
      <path d="M88.584,238.17 C92.379,225.162 89.151,211.452 82.088,214.024 C75.026,216.597 83.695,227.034 78.177,230.669 C65.854,238.788 58.656,226.561 58.656,226.561 C58.656,226.561 52.108,213.885 59.093,208.467 C64.75,204.08 75.246,217.279 78.57,210.88 C82.078,204.134 65.897,195.037 53.552,199.146 C41.209,203.254 46.036,224.126 46.036,224.126 C46.036,224.126 22.606,205.536 18.852,210.567 C14.84,215.944 39.929,234.243 39.929,234.243 C39.929,234.243 9.599,222.594 8.215,227.682 C5.978,235.898 36.007,245.379 36.007,245.379 C36.007,245.379 5.933,239.54 9.126,246.943 C13.541,257.181 61.442,264.63 61.442,264.63 L63.994,263.283 L71.573,276.924 L81.573,271.591 L77.701,255.133 C81.059,252.05 86.223,246.263 88.584,238.17" fill="#FFECD0"/>
      <path d="M88.584,238.17 C92.379,225.162 89.151,211.452 82.088,214.024 C75.026,216.597 83.695,227.034 78.177,230.669 C65.854,238.788 58.656,226.561 58.656,226.561 C58.656,226.561 52.108,213.885 59.093,208.467 C64.75,204.08 75.246,217.279 78.57,210.88 C82.078,204.134 65.897,195.037 53.552,199.146 C41.209,203.254 46.036,224.126 46.036,224.126 C46.036,224.126 22.606,205.536 18.852,210.567 C14.84,215.944 39.929,234.243 39.929,234.243 C39.929,234.243 9.599,222.594 8.215,227.682 C5.978,235.898 36.007,245.379 36.007,245.379 C36.007,245.379 5.933,239.54 9.126,246.943 C13.541,257.181 61.442,264.63 61.442,264.63 L63.994,263.283 L71.573,276.924 L81.573,271.591 L77.701,255.133 C81.059,252.05 86.223,246.263 88.584,238.17 z" fill-opacity="0" stroke="#666666" stroke-width="4" stroke-linecap="round" stroke-linejoin="round"/>
      <path d="M252.798,46.784 C246.374,33.905 229.999,27.92 229.999,27.92 L234.598,20.329 C229.503,21.157 220.038,17.849 212.758,15.369 C205.48,12.889 188.115,14.542 188.115,14.542 L188.736,5.449 C182.911,10.41 140.995,10.77 127.494,17.383 C113.993,23.995 113.266,29.068 113.266,29.068 C108.351,31.361 97.959,37.138 93.148,46.784 C80.588,71.967 82.264,129.318 82.264,129.318 C82.264,129.318 83.99,128.642 87.06,127.408 C89.923,78.375 119.941,30.577 173.074,30.577 C226.035,30.577 256.033,78.069 259.06,126.934 C262.022,128.472 263.682,129.318 263.682,129.318 C263.682,129.318 265.358,71.967 252.798,46.784" fill="#8A7763"/>
      <path d="M252.798,46.784 C246.374,33.905 229.999,27.92 229.999,27.92 L234.598,20.329 C229.503,21.157 220.038,17.849 212.758,15.369 C205.48,12.889 188.115,14.542 188.115,14.542 L188.736,5.449 C182.911,10.41 140.995,10.77 127.494,17.383 C113.993,23.995 113.266,29.068 113.266,29.068 C108.351,31.361 97.959,37.138 93.148,46.784 C80.588,71.967 82.264,129.318 82.264,129.318 C82.264,129.318 83.99,128.642 87.06,127.408 C89.923,78.375 119.941,30.577 173.074,30.577 C226.035,30.577 256.033,78.069 259.06,126.934 C262.022,128.472 263.682,129.318 263.682,129.318 C263.682,129.318 265.358,71.967 252.798,46.784 z" fill-opacity="0" stroke="#666666" stroke-width="4" stroke-linecap="round" stroke-linejoin="round"/>
      <path d="M101.964,128.79 C101.964,128.79 73.822,122.982 73.822,148.426 C73.822,163.393 83.51,170.189 103.428,170.473" fill="#FFECD0"/>
      <path d="M101.964,128.79 C101.964,128.79 73.822,122.982 73.822,148.426 C73.822,163.393 83.51,170.189 103.428,170.473" fill-opacity="0" stroke="#666666" stroke-width="4" stroke-linecap="round" stroke-linejoin="round"/>
      <path d="M84.546,149.803 C84.546,149.803 88.235,148.1 91.75,148.12" fill="#FFECD0"/>
      <path d="M84.546,149.803 C84.546,149.803 88.235,148.1 91.75,148.12" fill-opacity="0" stroke="#666666" stroke-width="4" stroke-linecap="round" stroke-linejoin="round"/>
      <path d="M244.182,128.79 C244.182,128.79 272.326,122.982 272.326,148.426 C272.326,163.393 262.635,170.189 242.717,170.473" fill="#FFECD0"/>
      <path d="M244.182,128.79 C244.182,128.79 272.326,122.982 272.326,148.426 C272.326,163.393 262.635,170.189 242.717,170.473" fill-opacity="0" stroke="#666666" stroke-width="4" stroke-linecap="round" stroke-linejoin="round"/>
      <path d="M261.601,149.803 C261.601,149.803 257.911,148.1 254.396,148.12" fill="#FFECD0"/>
      <path d="M261.601,149.803 C261.601,149.803 257.911,148.1 254.396,148.12" fill-opacity="0" stroke="#666666" stroke-width="4" stroke-linecap="round" stroke-linejoin="round"/>
      <path d="M173.074,232.027 C52.314,232.027 63.997,30.577 173.074,30.577 C282.15,30.577 293.833,232.027 173.074,232.027" fill="#FFECD0"/>
      <path d="M173.074,232.027 C52.314,232.027 63.997,30.577 173.074,30.577 C282.15,30.577 293.833,232.027 173.074,232.027 z" fill-opacity="0" stroke="#666666" stroke-width="4" stroke-linecap="round" stroke-linejoin="round"/>
      <path d="M169.156,171.509 C169.156,171.509 167.822,177.509 173.074,177.176" fill-opacity="0" stroke="#666666" stroke-width="4" stroke-linecap="round" stroke-linejoin="round"/>
      <path d="M191.149,190.265 C191.149,190.265 188.641,212.46 173.074,212.46 C157.503,212.46 154.995,190.265 154.995,190.265 z" fill="#F09A96"/>
      <path d="M191.149,190.265 C191.149,190.265 188.641,212.46 173.074,212.46 C157.503,212.46 154.995,190.265 154.995,190.265 L191.149,190.265 z" fill-opacity="0" stroke="#666666" stroke-width="4" stroke-linecap="round" stroke-linejoin="round"/>
      <path d="M127.858,126.299 C127.858,126.299 138.372,126.746 143.24,133.71 C137.357,132.862 126.858,136.715 126.858,136.715" fill-opacity="0" stroke="#666666" stroke-width="4" stroke-linecap="round" stroke-linejoin="round"/>
      <path d="M217.447,390.592 L172.781,390.968 L128.115,390.592 L125.322,420.996 L141.783,662.259 L163.951,662.593 L171.375,457.559 L172.781,456.003 L174.187,457.559 L181.611,662.593 L203.779,662.259 L220.24,420.996 z" fill="#878D91"/>
      <path d="M217.447,390.592 L172.781,390.968 L128.115,390.592 L125.322,420.996 L141.783,662.259 L163.951,662.593 L171.375,457.559 L172.781,456.003 L174.187,457.559 L181.611,662.593 L203.779,662.259 L220.24,420.996 L217.447,390.592 z" fill-opacity="0" stroke="#666666" stroke-width="4" stroke-linecap="round" stroke-linejoin="round"/>
      <path d="M179.595,311.051 L192.545,245.842 L172.947,247.696 L153.603,245.842 L166.551,311.051 z" fill="#FFFFFF"/>
      <path d="M179.595,311.051 L192.545,245.842 L172.947,247.696 L153.603,245.842 L166.551,311.051 L179.595,311.051 z" fill-opacity="0" stroke="#666666" stroke-width="4" stroke-linecap="round" stroke-linejoin="round"/>
      <path d="M207.418,282.848 L197.418,240.9 C192.704,240.312 190.748,238.236 187.715,238.234 L173.074,321.132 L158.433,238.234 C155.402,238.236 153.443,240.312 148.73,240.9 L138.73,282.848 L137.424,292.964 L172.781,325.716 z" fill="#878D91"/>
      <path d="M181.156,235.249 C181.156,235.249 179.236,243.396 172.947,248.852 C172.947,248.852 178.711,246.198 180.806,248.106 C182.902,250.014 191.287,255.262 191.287,255.262 L187.095,238.556 z" fill="#FFFFFF"/>
      <path d="M181.156,235.249 C181.156,235.249 179.236,243.396 172.947,248.852 C172.947,248.852 178.711,246.198 180.806,248.106 C182.902,250.014 191.287,255.262 191.287,255.262 L187.095,238.556 L181.156,235.249 z" fill-opacity="0" stroke="#666666" stroke-width="4" stroke-linecap="round" stroke-linejoin="round"/>
      <path d="M164.738,235.249 C164.738,235.249 166.66,243.396 172.947,248.852 C172.947,248.852 167.182,246.198 165.087,248.106 C162.992,250.014 154.608,255.262 154.608,255.262 L158.799,238.556 z" fill="#FFFFFF"/>
      <path d="M164.738,235.249 C164.738,235.249 166.66,243.396 172.947,248.852 C172.947,248.852 167.182,246.198 165.087,248.106 C162.992,250.014 154.608,255.262 154.608,255.262 L158.799,238.556 L164.738,235.249 z" fill-opacity="0" stroke="#666666" stroke-width="4" stroke-linecap="round" stroke-linejoin="round"/>
      <path d="M214.986,126.918 C214.986,134.545 212.449,140.728 209.318,140.728 C206.187,140.728 203.65,134.545 203.65,126.918 C203.65,119.291 206.187,113.109 209.318,113.109 C212.449,113.109 214.986,119.291 214.986,126.918" fill="#666666"/>
      <path d="M160.202,237.117 C160.202,237.117 131.074,243.439 124.079,247.234 C121.829,248.454 107.11,277.842 102.077,292.051 L84.454,260.091 L61.455,269.591 C61.455,269.591 89.491,347.574 98.158,347.574 C103.468,347.574 132.273,303.949 138.615,290.492" fill="#878D91"/>
      <path d="M160.202,237.117 C160.202,237.117 131.074,243.439 124.079,247.234 C121.829,248.454 107.11,277.842 102.077,292.051 L84.454,260.091 L61.455,269.591 C61.455,269.591 89.491,347.574 98.158,347.574 C103.468,347.574 132.273,303.949 138.615,290.492" fill-opacity="0" stroke="#666666" stroke-width="4" stroke-linecap="round" stroke-linejoin="round"/>
      <path d="M215.922,282.848 L224.816,427.591 C224.816,427.591 181.533,433.486 177.301,429.465 C173.074,425.447 173.074,391.243 173.074,391.243 L173.074,378.654 C173.074,378.654 173.074,425.447 168.842,429.465 C164.615,433.486 121.333,427.591 121.333,427.591 L130.228,282.848" fill="#878D91"/>
      <path d="M215.922,282.848 L224.816,427.591 C224.816,427.591 181.533,433.486 177.301,429.465 C173.074,425.447 173.074,391.243 173.074,391.243 L173.074,378.654 C173.074,378.654 173.074,425.447 168.842,429.465 C164.615,433.486 121.333,427.591 121.333,427.591 L130.228,282.848" fill-opacity="0" stroke="#666666" stroke-width="4" stroke-linecap="round" stroke-linejoin="round"/>
      <path d="M175.115,342.965 C175.115,344.094 174.201,345.006 173.074,345.006 C171.947,345.006 171.033,344.094 171.033,342.965 C171.033,341.838 171.947,340.924 173.074,340.924 C174.201,340.924 175.115,341.838 175.115,342.965" fill="#878D91"/>
      <path d="M175.115,342.965 C175.115,344.094 174.201,345.006 173.074,345.006 C171.947,345.006 171.033,344.094 171.033,342.965 C171.033,341.838 171.947,340.924 173.074,340.924 C174.201,340.924 175.115,341.838 175.115,342.965 z" fill-opacity="0" stroke="#666666" stroke-width="4" stroke-linecap="round" stroke-linejoin="round"/>
      <path d="M175.115,366.715 C175.115,367.844 174.201,368.757 173.074,368.757 C171.947,368.757 171.033,367.844 171.033,366.715 C171.033,365.587 171.947,364.673 173.074,364.673 C174.201,364.673 175.115,365.587 175.115,366.715" fill="#878D91"/>
      <path d="M175.115,366.715 C175.115,367.844 174.201,368.757 173.074,368.757 C171.947,368.757 171.033,367.844 171.033,366.715 C171.033,365.587 171.947,364.673 173.074,364.673 C174.201,364.673 175.115,365.587 175.115,366.715 z" fill-opacity="0" stroke="#666666" stroke-width="4" stroke-linecap="round" stroke-linejoin="round"/>
      <path d="M177.798,257.952 L172.781,257.594 L167.763,257.952 L164.42,291.383 L172.781,327.125 L181.142,291.383 z" fill="#915D5D"/>
      <path d="M177.798,257.952 L172.781,257.594 L167.763,257.952 L164.42,291.383 L172.781,327.125 L181.142,291.383 L177.798,257.952 z" fill-opacity="0" stroke="#666666" stroke-width="4" stroke-linecap="round" stroke-linejoin="round"/>
      <path d="M167.167,247.821 L167.805,257.322 C167.805,257.322 170.4,259.197 172.781,259.197 C175.161,259.197 177.755,257.322 177.755,257.322 L178.395,247.821 z" fill="#915D5D"/>
      <path d="M167.167,247.821 L167.805,257.322 C167.805,257.322 170.4,259.197 172.781,259.197 C175.161,259.197 177.755,257.322 177.755,257.322 L178.395,247.821 L167.167,247.821 z" fill-opacity="0" stroke="#666666" stroke-width="4" stroke-linecap="round" stroke-linejoin="round"/>
      <path d="M115.12,56.885 C115.12,56.885 144.197,64.842 155.447,61.842 C155.193,59.538 152.197,54.342 152.197,54.342 C152.197,54.342 179.556,61.467 192.947,59.688 C192.195,57.726 189.158,53.342 189.158,53.342 C189.158,53.342 217.298,61.02 226.197,58.842 C225.197,56.842 225.197,52.592 225.197,52.592 L240.947,56.092 C240.947,56.092 224.281,15.529 155.115,27.433 C101.598,36.643 115.12,56.885 115.12,56.885" fill="#8A7763"/>
      <path d="M115.12,56.885 C115.12,56.885 144.197,64.841 155.447,61.842 C155.193,59.538 152.197,54.342 152.197,54.342 C152.197,54.342 179.556,61.467 192.947,59.688 C192.195,57.726 189.158,53.342 189.158,53.342 C189.158,53.342 217.298,61.02 226.197,58.842 C225.197,56.842 225.197,52.592 225.197,52.592 L229.799,54.745" fill="#8A7763"/>
      <path d="M115.12,56.885 C115.12,56.885 144.197,64.841 155.447,61.842 C155.193,59.538 152.197,54.342 152.197,54.342 C152.197,54.342 179.556,61.467 192.947,59.688 C192.195,57.726 189.158,53.342 189.158,53.342 C189.158,53.342 217.298,61.02 226.197,58.842 C225.197,56.842 225.197,52.592 225.197,52.592 L229.799,54.745" fill-opacity="0" stroke="#666666" stroke-width="4" stroke-linecap="round" stroke-linejoin="round"/>
      <path d="M126.347,95.842 C126.347,95.842 129.781,93.692 135.631,93.692 C140.614,93.692 144.081,96.342 144.081,96.342" fill-opacity="0" stroke="#666666" stroke-width="4" stroke-linecap="round" stroke-linejoin="round"/>
      <path d="M219.215,95.842 C219.215,95.842 215.78,93.692 209.93,93.692 C204.948,93.692 201.479,96.342 201.479,96.342" fill-opacity="0" stroke="#666666" stroke-width="4" stroke-linecap="round" stroke-linejoin="round"/>
      <path d="M158.432,238.235 L147.447,249.26 L155.447,255.26 L147.115,259.26 L172.781,329.637 z" fill="#878D91"/>
      <path d="M158.432,238.235 L147.447,249.26 L155.447,255.26 L147.115,259.26 L172.781,329.637 L158.432,238.235 z" fill-opacity="0" stroke="#666666" stroke-width="4" stroke-linecap="round" stroke-linejoin="round"/>
      <path d="M128.418,382.005 L128.418,387.464 C128.418,388.639 129.371,389.592 130.547,389.592 L150.652,389.592 C151.828,389.592 152.781,388.639 152.781,387.464 L152.781,382.005 z" fill="#878D91"/>
      <path d="M128.418,382.005 L128.418,387.464 C128.418,388.639 129.371,389.592 130.547,389.592 L150.652,389.592 C151.828,389.592 152.781,388.639 152.781,387.464 L152.781,382.005 L128.418,382.005 z" fill-opacity="0" stroke="#666666" stroke-width="4" stroke-linecap="round" stroke-linejoin="round"/>
      <path d="M217.144,382.005 L217.144,387.464 C217.144,388.639 216.191,389.592 215.015,389.592 L194.91,389.592 C193.734,389.592 192.781,388.639 192.781,387.464 L192.781,382.005 z" fill="#878D91"/>
      <path d="M217.144,382.005 L217.144,387.464 C217.144,388.639 216.191,389.592 215.015,389.592 L194.91,389.592 C193.734,389.592 192.781,388.639 192.781,387.464 L192.781,382.005 L217.144,382.005 z" fill-opacity="0" stroke="#666666" stroke-width="4" stroke-linecap="round" stroke-linejoin="round"/>
      <path d="M185.144,237.117 C185.144,237.117 214.273,243.439 221.267,247.234 C223.517,248.454 272.048,320.37 272.048,329.703 C272.048,339.036 256.354,344.592 250.023,338.926 C243.548,333.133 220.9,306.346 210.945,295.246" fill="#878D91"/>
      <path d="M185.144,237.117 C185.144,237.117 214.273,243.439 221.267,247.234 C223.517,248.454 272.048,320.37 272.048,329.703 C272.048,339.036 256.354,344.592 250.023,338.926 C243.548,333.133 220.9,306.346 210.945,295.246" fill-opacity="0" stroke="#666666" stroke-width="4" stroke-linecap="round" stroke-linejoin="round"/>
      <path d="M234.514,402.871 L243.952,384.828 L232.893,378.772 L217.354,398.091" fill="#FFECD0"/>
      <path d="M234.514,402.871 L243.952,384.828 L232.893,378.772 L217.354,398.091" fill-opacity="0" stroke="#666666" stroke-width="4" stroke-linecap="round" stroke-linejoin="round"/>
      <path d="M219.215,396.243 C218.132,397.5 214.383,397.85 212.271,402.388 C208.31,410.885 208.74,420.831 214.256,422.221 C219.299,423.492 217.101,415.108 217.101,415.108 C217.101,415.108 217.574,443.371 228.465,437.953 C235.678,434.363 238.592,414.049 234.586,401.258 C233.855,398.926 234.586,401.258 234.586,401.258" fill="#FFECD0"/>
      <path d="M219.215,396.243 C218.132,397.5 214.383,397.85 212.271,402.388 C208.31,410.885 208.74,420.831 214.256,422.221 C219.299,423.492 217.101,415.108 217.101,415.108 C217.101,415.108 217.574,443.371 228.465,437.953 C235.678,434.363 238.592,414.049 234.586,401.258 C233.855,398.926 234.586,401.258 234.586,401.258" fill-opacity="0" stroke="#666666" stroke-width="4" stroke-linecap="round" stroke-linejoin="round"/>
      <path d="M271.914,331.137 L240.763,397.293 L219.886,388.725 L243.355,329.924" fill="#878D91"/>
      <path d="M271.914,331.137 L240.763,397.293 L219.886,388.725 L243.355,329.924" fill-opacity="0" stroke="#666666" stroke-width="4" stroke-linecap="round" stroke-linejoin="round"/>
      <path d="M187.13,238.235 L198.114,249.26 L190.114,255.26 L198.448,259.26 L172.78,329.637 z" fill="#878D91"/>
      <path d="M187.13,238.235 L198.114,249.26 L190.114,255.26 L198.448,259.26 L172.78,329.637 L187.13,238.235 z" fill-opacity="0" stroke="#666666" stroke-width="4" stroke-linecap="round" stroke-linejoin="round"/>
    </g>
  </g>
</svg>
