<?xml version="1.0" encoding="utf-8"?>

<!DOCTYPE svg PUBLIC "-//W3C//DTD SVG 1.1//EN" "http://www.w3.org/Graphics/SVG/1.1/DTD/svg11.dtd">
<svg version="1.1" id="Layer_1" xmlns="http://www.w3.org/2000/svg" xmlns:xlink="http://www.w3.org/1999/xlink" x="0px" y="0px"
	 viewBox="-59 -56.2651 2038 1943.5302" enable-background="new -59 -56.2651 2038 1943.5302" xml:space="preserve">
<g>
	<path fill="#BF9330" stroke="#BF9330" stroke-width="0.2" d="M1327.54,0h0.64c-6.15,14.38-11.88,28.94-17.8101,43.4
		c-3.15,8.02-6.92,15.81-9.48,24.03c13.04-1.77,25.78-5.35,38.71-7.82c25.8201-5.5,51.65-11.03,77.48-16.51
		c9.0701-1.68,17.9701-4.35,27.16-5.38c-4.11,4.76-9.21,8.48-13.75,12.78c-13.1799,12.02-26.89,23.48-39.8099,35.77
		c3.47,1.55,7.21,2.27,10.9099,3.08c35.67,8.36,71.3401,16.72,107,25.11c8.48,2.27,17.25,3.49,25.55,6.37
		c-15.88,5.57-32.17,9.9-48.08,15.38c3.6399,3.94,7.8099,7.34,11.7599,10.96c14.8601,13.49,29.7401,26.94,44.6101,40.41
		C1554.9,199.1,1567.89,210.09,1580,222c-15.66-6.13-30.74-13.75-46.62-19.35c-5.79-1.89-11.58-4.68-17.8101-4.26
		c-2.2899-0.19-4.5399-0.76-6.7-1.46c-17.41-10.12-34.75-20.34-51.96-30.78c-9.92-5.68-19.51-11.96-29.75-17.03
		c0.51,16.28,2.2799,32.51,2.6,48.8c-21.26-20.96-42.2-42.26-63.38-63.3c-5.77-5.41-10.8101-11.62-17.04-16.5
		c-12.89,15.84-25.88,31.6-38.71,47.49c-5.6901,6.4-10.51,13.56-16.5699,19.61c-4.79-11.35-8.29-23.22-12.5701-34.78
		c-2.22-5.61-3.62-11.55-6.36-16.95c-19.45,7.56-38.64,15.79-57.99,23.63c-6.6801,2.89-13.7001,5.07-20.02,8.72
		c-6.5699,1.67-12.67,4.65-18.88,7.29c-12.61,4.63-24.71,10.64-37.48,14.81c3.8-5.79,9.03-10.44,13.4-15.79
		c15.0299-16.96,30.08-33.9,45.12-50.85c4.61-5.45,9.8099-10.42,13.99-16.22c-9.61-15.07-19.78-29.78-29.59-44.72
		c-4.1901-6.59-9.02-12.78-12.7101-19.67c6.01,1.05,11.78,3.1,17.67,4.67c14.25,4.1,28.51,8.17,42.77,12.25
		c8.5499,2.22,16.9,5.22,25.5699,6.98c11.29-9.88,22.1801-20.23,33.3301-30.27C1302.66,22.81,1315.42,11.75,1327.54,0z"/>
	<path fill="#F7D7A8" stroke="#F7D7A8" stroke-width="0.2" d="M1349.34,118.12c6.23,4.88,11.27,11.09,17.04,16.5
		c21.1801,21.04,42.12,42.34,63.38,63.3c-0.3201-16.29-2.09-32.52-2.6-48.8c10.24,5.07,19.83,11.35,29.75,17.03
		c17.21,10.44,34.5499,20.66,51.96,30.78c8.5699,17.49,15.74,35.84,19,55.12c3.23,19.09,3.59,38.62,1.76,57.88
		c-4.99,37.9-20.92,74.6-46.6,103.08c-27.75,31.25-65.9401,53.31-107.17,60.68c-10.1799,2.04-20.6,1.98-30.91,2.77
		c-35.2,1.19-70.5299-8.62-100.6699-26.71c-30.85-18.79-56.4-46.41-72.0801-79.01c-18.7799-38.03-23.9299-82.53-14.5-123.87
		c4.05-18.5,11.12-36.3,20.3601-52.82c5.49-9.97,12.34-19.06,19.0599-28.21c6.3199-3.65,13.34-5.83,20.02-8.72
		c19.35-7.84,38.54-16.07,57.99-23.63c2.74,5.4,4.14,11.34,6.36,16.95c4.28,11.56,7.78,23.43,12.5701,34.78
		c6.0599-6.05,10.8799-13.21,16.5699-19.61C1323.46,149.72,1336.45,133.96,1349.34,118.12 M1380.3101,218.24
		c-11.8101,2.65-19.2401,13.79-21.9801,24.92c-2.87,14.12-0.21,30.57,11.02,40.5c6.3,5.86,15.99,8.26,24.1,5.01
		c9.04-3.44,15.74-11.52,18.5901-20.64c2.4099-6.74,1.6699-14.02,1.5699-21.03c-1.16-9.84-6.33-19.34-14.4399-25.14
		C1393.78,218.02,1386.73,216.65,1380.3101,218.24 M1251.36,240.59c-7.01,1.87-13.09,6.73-16.89,12.85
		c-6.98,11.45-8.23,26.17-3.5599,38.69c3.24,7.39,8.15,14.82,15.8099,18.16c7.6901,3.67,17.39,2.74,24.23-2.37
		c5.5901-4.29,9.6001-10.46,12.02-17.03c2.1801-5.7,1.7101-11.9,1.74-17.88c0.3201-12.26-6.6699-24.39-17.3199-30.43
		C1262.58,239.73,1256.71,239.8,1251.36,240.59 M1356.61,260.22c0.52-4.12,0.52-8.3,0.0601-12.42
		C1354.97,251.56,1355.26,256.34,1356.61,260.22 M1437.42,335.43c-5.77,6.59-11.17,13.48-16.77,20.21
		c-10.87,12.77-23.02,24.5-36.4401,34.58c-16.37,12.01-36.86,19.16-57.2999,17.48c-16.25-0.68-31.8401-7.14-44.8-16.78
		c-8.13-5.4-14.77-12.59-22.04-19.02c-2.7599-2.3-5.09-5.83-9.0299-5.94c-0.15,5.6,3.24,10.37,6.1799,14.85
		c10.37,14.24,25.7001,25.08,42.9501,29.08c18.9099,4.59,38.76,1.87,57.1599-3.64c18.5701-5.22,36.1901-13.79,51.76-25.16
		c13.51-10.96,26.12-24.14,32.25-40.72c0.67-2.5,2.27-5.59,0.66-7.97C1439.97,332.43,1438.7,334.14,1437.42,335.43z"/>
	<path fill="#333332" stroke="#333332" stroke-width="0.2" d="M1178.24,173.13c6.21-2.64,12.3101-5.62,18.88-7.29
		c-6.72,9.15-13.5699,18.24-19.0599,28.21c-9.2401,16.52-16.3101,34.32-20.3601,52.82c-9.4299,41.34-4.2799,85.84,14.5,123.87
		c15.6801,32.6,41.2301,60.22,72.0801,79.01c30.14,18.09,65.47,27.9,100.6699,26.71c10.3101-0.79,20.7301-0.73,30.91-2.77
		c41.23-7.37,79.42-29.43,107.17-60.68c25.6799-28.48,41.61-65.18,46.6-103.08c1.83-19.26,1.47-38.79-1.76-57.88
		c-3.26-19.28-10.4301-37.63-19-55.12c2.16,0.7,4.41,1.27,6.7,1.46c2.2001,5.1,4.79,10.02,6.89,15.17
		c14.04,33.82,18.1001,71.65,12.03,107.73c-5.16,31.88-18.76,62.21-38.36,87.82c-22.83,29.41-54.03,52.32-89.12,64.84
		c-38.08,13.85-80.42,15.31-119.45,4.6c-31.78-8.5-61.02-25.65-84.6201-48.49c-24.2599-23.19-42.1499-52.84-52.0599-84.86
		c-12.95-42.89-11.3101-90.24,5.49-131.86C1162,199.1,1169.8,185.86,1178.24,173.13z"/>
	<path fill="#0087FA" stroke="#0087FA" stroke-width="0.2" d="M1380.3101,218.24c6.4199-1.59,13.47-0.22,18.86,3.62
		c8.11,5.8,13.2799,15.3,14.4399,25.14c0.1,7.01,0.84,14.29-1.5699,21.03c-2.8501,9.12-9.55,17.2-18.5901,20.64
		c-8.11,3.25-17.7999,0.85-24.1-5.01c-11.23-9.93-13.89-26.38-11.02-40.5C1361.0699,232.03,1368.5,220.89,1380.3101,218.24z"/>
	<path fill="#0087FA" stroke="#0087FA" stroke-width="0.2" d="M1251.36,240.59c5.35-0.79,11.22-0.86,16.03,1.99
		c10.65,6.04,17.64,18.17,17.3199,30.43c-0.0299,5.98,0.4401,12.18-1.74,17.88c-2.4199,6.57-6.4299,12.74-12.02,17.03
		c-6.84,5.11-16.5399,6.04-24.23,2.37c-7.6599-3.34-12.5699-10.77-15.8099-18.16c-4.67-12.52-3.42-27.24,3.5599-38.69
		C1238.27,247.32,1244.35,242.46,1251.36,240.59z"/>
	<path fill="#CCDCDE" stroke="#CCDCDE" stroke-width="0.2" d="M1356.61,260.22c-1.35-3.88-1.64-8.66,0.0601-12.42
		C1357.13,251.92,1357.13,256.1,1356.61,260.22z"/>
	<path fill="#343331" stroke="#343331" stroke-width="0.2" d="M1437.42,335.43c1.2799-1.29,2.5499-3,4.58-3.03
		c1.61,2.38,0.01,5.47-0.66,7.97c-6.13,16.58-18.74,29.76-32.25,40.72c-15.5699,11.37-33.1899,19.94-51.76,25.16
		c-18.3999,5.51-38.25,8.23-57.1599,3.64c-17.25-4-32.5801-14.84-42.9501-29.08c-2.9399-4.48-6.33-9.25-6.1799-14.85
		c3.9399,0.11,6.27,3.64,9.0299,5.94c7.27,6.43,13.91,13.62,22.04,19.02c12.96,9.64,28.55,16.1,44.8,16.78
		c20.4399,1.68,40.9299-5.47,57.2999-17.48c13.42-10.08,25.5701-21.81,36.4401-34.58C1426.25,348.91,1431.65,342.02,1437.42,335.43z
		"/>
	<path fill="#BF9330" stroke="#BF9330" stroke-width="0.2" d="M427.52,504.53c3.38-3.89,6.4-8.14,10.42-11.41
		c-9.75,18.76-17.21,38.63-24.29,58.53c-2.52,8.23-6.09,16.37-6.45,25.08c10.61,0.28,21.17-0.95,31.76-1.3
		c31.68-1.66,63.37-3.32,95.06-4.86c6.4,0.17,12.77-1.32,19.16-0.54c-3.34,2.04-7.2,2.89-10.83,4.27
		c-24.44,8.63-49.04,16.84-73.37,25.78c4.58,4.7,9.59,8.97,14.71,13.06c5.35,5.29,10.78,10.63,17.22,14.61
		c1.32,1.77,2.65,3.56,4.33,5.02c8.04,6.94,15.84,14.14,23.88,21.09c2.25,1.9,4.34,4.01,6.15,6.36c-5.75-0.58-11.27-2.34-16.86-3.66
		c-30.01-7.31-60.04-14.53-90.03-21.88c-5.69-1.27-11.28-3.08-17.09-3.72c-10.43,17.3-19.75,35.2599-30.34,52.45
		c-4.55-3.9-8.23-8.67-12.29-13.05c-7.41-8-14.4-16.39-21.95-24.26c-12.78,8.98-25.06,18.6801-37.6,28
		c-10.93,8.39-22.32,16.22-32.91,25.05c-2.05,1.59-4.29,3.13-6.98,3.25c-2.85-3.37-6.45-5.97-9.77-8.84
		c-15.74-13.27-31.49-26.52-47.21-39.81c-4.43-3.87-9.19-7.36-13.32-11.56c5.74-0.09,11.39,0.97,17.08,1.53
		c18.11,1.67,36.15,3.92,54.26,5.52c0.46-29.06,0.03-58.15,0.21-87.22c11.82,10.97,22.91,22.76,34.42,34.08
		c2.53,2.34,4.55,5.4,7.77,6.88c8.14-22.62,16.19-45.27,24.37-67.87c3.28-8.67,5.88-17.63,9.73-26.05
		c4.05,19.36,7.74,38.8,11.73,58.18c1.2,5.57,1.83,11.29,3.61,16.73c8.15-9.1899,15.61-19,23.43-28.48
		C399.55,538.52,413.35,521.37,427.52,504.53z"/>
	<path fill="#FF4806" stroke="#FF4806" stroke-width="0.2" d="M1393.97,496.97c0.74-0.53,1.5-0.54,2.27-0.04
		c14.4401,8.8,30.13,15.28,45.45,22.36c61.3,27.27,123.41,52.71,185.88,77.17c39.78,15.42,79.7001,30.5099,120.2101,43.91
		c-11.51,16.24-23.42,32.2-35.23,48.22c-3.8201,5.83-8.3301,11.17-12.16,16.99c-13.4,17.63-26.03,35.83-39.48,53.42
		c-4.4301-3.52-8.24-7.71-12.36-11.57c-24.8401-23.76-49.54-47.68-74.4401-71.39c0.36,8.04,2.03,15.94,3.01,23.92
		c8.53,62.74,17.45,125.42,25.97,188.16c1.2101,10.18,3.49,20.27,3.66,30.55c-21.59,0.03-43.16-1.12-64.75-1.42
		c-14.65-0.98-29.35-0.59-43.99-1.47c-11.34-0.1201-22.67-0.64-34-0.36c5.6-1.04,11.3099-0.72,16.99-0.96
		c-25.7,0.72-51.37-0.84-77.05-1.09c-23.6799-1.28-47.4199-1.37-71.11-2.21c2.8301-0.6299,5.74-0.66,8.65-0.68
		c-24.72,0.85-49.45-1-74.1799-1.02c-0.6101-4.46-0.63-8.97-0.4901-13.46c0.7201-13.32,0.17-26.67,0.4301-40.01
		c0.0601-29.66,0.1801-59.32,0.2-88.99c-0.0699-23.77,0.4501-47.55-0.09-71.31c-26.54,6.39-52.79,13.97-79.25,20.67
		c-6.2999,1.46-12.39,3.84-18.84,4.55c-6.5-14.0099-12.52-28.24-19.04-42.25c-2.85-6.22-5.48-12.54-8.3099-18.77
		c-3.4701-7.82-6.86-15.68-10.4701-23.43c-0.87-2.25-2.5399-4.5-2.12-7c2.92-2.29,6.39-3.75,9.66-5.48
		c48.5601-25.09,97.7-49.03,146.65-73.35C1321.6899,532.62,1357.95,515.04,1393.97,496.97z"/>
	<path fill="#333332" stroke="#333332" stroke-width="0.2" d="M483.69,613.14c9.67,2.03,18.78,6.26,27.66,10.52
		c30.93,15.27,56.91,39.91,74.49,69.52c20.78,35.56,28.58,78.33,22.3,118.99c-4.29,27.82-15.26,54.53-31.4,77.56
		c-24.04,33.79-59.89,59.01-99.94,69.9c-39.33,10.86-82.41,7.74-119.76-8.69c-26.59-11.27-50.07-29.38-68.15-51.84
		c-23.12-28.2-37.13-63.67-39.65-100.03c-2.45-33.21,4.2-67.29,19.98-96.67c2.69-0.12,4.93-1.66,6.98-3.25
		c-7.09,13.77-13.23,28.13-16.76,43.2599c-9.32,38.59-5.63,80.51,11.85,116.29c13.64,28.47,34.94,53.37,61.47,70.58
		c33.96,23.0699,76.56,32.24,117.15,27.28c27.7-3.76,54.55-14.1,77.41-30.23c24.92-17.81,45.35-42.07,57.91-70.06
		c16.01-35.48,19.39-76.44,9.67-114.11c-9.3-35.39-29.5-67.97-57.8-91.27c-11.11-9.05-23.06-17.3-36.19-23.14
		C494.47,623.77,489.04,618.43,483.69,613.14z"/>
	<path fill="#F7D7A8" stroke="#F7D7A8" stroke-width="0.2" d="M500.91,627.75c13.13,5.84,25.08,14.09,36.19,23.14
		c28.3,23.3,48.5,55.88,57.8,91.27c9.72,37.67,6.34,78.63-9.67,114.11c-12.56,27.99-32.99,52.25-57.91,70.06
		c-22.86,16.13-49.71,26.47-77.41,30.23c-40.59,4.96-83.19-4.21-117.15-27.28c-26.53-17.21-47.83-42.11-61.47-70.58
		c-17.48-35.78-21.17-77.7-11.85-116.29c3.53-15.1299,9.67-29.49,16.76-43.2599c10.59-8.83,21.98-16.66,32.91-25.05
		c12.54-9.3199,24.82-19.02,37.6-28c7.55,7.87,14.54,16.26,21.95,24.26c4.06,4.38,7.74,9.15,12.29,13.05
		c10.59-17.19,19.91-35.15,30.34-52.45c5.81,0.64,11.4,2.45,17.09,3.72c29.99,7.35,60.02,14.57,90.03,21.88
		c5.59,1.32,11.11,3.08,16.86,3.66c-1.81-2.35-3.9-4.46-6.15-6.36c-8.04-6.95-15.84-14.15-23.88-21.09
		C503.56,631.31,502.23,629.52,500.91,627.75 M468.34,702.32c-13.05,4.74-20.55,19.3-20.1,32.69c0.07,4.82-0.4,9.78,1.1,14.46
		c2.6,9.3701,8.7,18.41,17.93,22.23c7.35,3.13,16.27,2.05,22.67-2.71c7.21-5.23,11.9-13.42,13.84-22.01
		c1.04-5.26,0.92-10.68,0.54-15.99c-1.46-12.39-9-25.08-21.36-29.06C478.17,701.05,473.04,700.88,468.34,702.32 M505.38,731.79
		c-0.51,3.77-0.5,7.61,0.04,11.38C506.69,739.58,506.95,735.32,505.38,731.79 M377.51,733.74c-7.54,1.99-13.77,7.51-17.64,14.16
		c-9.04,15.46-7.33,36.95,5.24,49.99c6.01,6.35,15.34,9.57,23.88,7.1c7.21-2.22,13.26-7.53,16.95-14.03
		c5.8-10.4,7.17-23.18,3.61-34.54c-2.62-8.02-7.13-16.11-14.95-20.03C389.56,733.12,383.28,732.82,377.51,733.74 M535.03,787.14
		c-5.5,2.83-9.88,7.34-13.92,11.94c-19.16,21.42-31.7,47.78-50.54,69.45c-10.85,12.21-23.6,23.91-39.62,28.59
		c-9.65,3.12-20.81,1.99-29.21-3.85c-10.71-7.31-18.08-18.25-25.2-28.83c-3.25-4.67-5.83-10.12-10.68-13.37
		c-0.96,1.45-1.25,3.19-0.77,4.89c2.34,11.61,7.91,22.42,15.53,31.46c7.63,9.65,18.83,17.39,31.43,18c9.81,1,19.55-2.44,27.75-7.62
		c16.12-9.69,29.23-23.39,42.23-36.78c10.64-10.76,20.78-22.01,30.13-33.91c8.1801-10.86,16.33-21.76,23.92-33.05
		c1.73-2.54,3.97-4.83,4.89-7.83C538.95,786.07,536.84,786.1,535.03,787.14z"/>
	<path fill="#333333" stroke="#333333" stroke-width="0.2" d="M1018.15,732.13c41.2899-24.02,82.46-48.26,123.77-72.24
		c2.83,6.23,5.46,12.55,8.3099,18.77c-39.9,23.28-79.77,46.6201-119.65,69.95c-1.33,7.79-2.0399,15.67-3.14,23.5
		c-11.78,93.6-23.83,187.16-35.4999,280.76c15.49,6.35,28.52,18.8101,34.73,34.4401c8.51,20.11,4.9299,44.6599-8.7001,61.6699
		c-10.91,13.4501-27.53,22.49-44.96,23.09c-17.76,1.0901-35.82-6.09-47.77-19.2999c-3.79-3.74-6.29-8.46-9.45-12.66
		c-3.15-1.28-6.62-1.42-9.91-2.11c-92.68-16.41-185.37-32.79-278.04-49.26c2.69-6.76,5.3799-13.51,8.14-20.23
		c46.13,7.88,92.17,16.29,138.26,24.36c44.87,8,89.77,15.84,134.63,23.91c0.37-5.29,0.01-10.64,0.95-15.88
		c1.82-10.73,6.65-20.9,13.74-29.14c-1.31,3.99-4.49,6.97-6.23,10.75c-9.7,18.29-9.25,41.72,1.9,59.27
		c7.62,11.76,19.09,21.3199,32.63,25.39c15.5,4.89,32.93,2.8099,46.95-5.39c16.17-9.04,27.11-26.36,29.04-44.7101
		c1.5601-15.2799-3.13-31.1399-12.91-43.0099c-10.46-12.77-26.42-20.9501-42.94-21.66c-13.05-0.5701-26.21,3.2899-37.01,10.6
		c-2.71,1.89-5.24,4.08-8.31,5.36c11.03-13.0699,28.26-19.5699,45.12-19.54c12.9-101.71,25.79-203.4299,38.69-305.14
		C1011.35,739.09,1014.23,734.7,1018.15,732.13z"/>
	<path fill="#333333" stroke="#333333" stroke-width="0.2" d="M1712.55,688.59c1.23,0.66,2.45,1.37,3.5399,2.31
		c35.15,32.53,70.4301,64.93,106.0801,96.93c14.97,13.24,29.74,26.76,45.47,39.13c-0.5701,1.58-1.72,3.11-1.48,4.87
		c0.89,4.43,3.83,8.28,4.38,12.79c-8.42,8.54-17.4701,16.46-26.0801,24.83c-55.14,51.94-110.22,103.94-165.36,155.8799
		c5.3,11.4,7.72,24.2101,5.65,36.7101c-2.03,17.4399-12.73,33.02-27.04,42.83c-7.5699,4.87-16.25,7.6801-25.0299,9.38
		c-5.5,0.61-11.0701,0.4399-16.5701,0.14c-17.17-2.34-33.0699-12.3201-42.7999-26.64c-5.0601-7.95-8.7401-16.9301-9.6901-26.35
		c-0.72-8.61-0.7-17.49,2.1901-25.74c2.96-8.7001,7.1799-17.46,14.35-23.48c-4.42,6.13-9.0901,12.23-11.54,19.47
		c-6.17,15.9399-5.08,34.4299,3.17,49.4199c8.3199,15.66,24,27.4801,41.6,30.3201c17.8199,3.24,36.98-2.41,50.1799-14.8201
		c13.3201-12.11,20.38-30.6799,18.39-48.59c-1.3099-18.39-12.47-35.38-28.2899-44.63c-15.7301-9.91-36.0901-11-53.13-3.88
		c-7.2201,2.6-13.0601,7.63-19.4,11.75c4.21-6.24,10.84-10.24,17.34-13.74c9.71-4.6,20.7001-6.64,31.42-5.6
		c13.5,1.01,26.13,7.13,36.13,16.12c4.7899-4.18,9.3199-8.65,13.97-13c55.47-52.42,111.16-104.62,166.53-157.15
		c-49.64-43.04-97.89-87.68-146.14-132.27C1704.22,699.76,1708.73,694.42,1712.55,688.59z"/>
	<path fill="#0087FA" stroke="#0087FA" stroke-width="0.2" d="M468.34,702.32c4.7-1.44,9.83-1.27,14.62-0.39
		c12.36,3.98,19.9,16.67,21.36,29.06c0.38,5.31,0.5,10.73-0.54,15.99c-1.94,8.59-6.63,16.78-13.84,22.01
		c-6.4,4.76-15.32,5.84-22.67,2.71c-9.23-3.82-15.33-12.86-17.93-22.23c-1.5-4.68-1.03-9.64-1.1-14.46
		C447.79,721.62,455.29,707.06,468.34,702.32z"/>
	<path fill="#D6DDD6" stroke="#D6DDD6" stroke-width="0.2" d="M505.38,731.79c1.57,3.53,1.31,7.79,0.04,11.38
		C504.88,739.4,504.87,735.56,505.38,731.79z"/>
	<path fill="#0087FA" stroke="#0087FA" stroke-width="0.2" d="M377.51,733.74c5.77-0.92,12.05-0.62,17.09,2.65
		c7.82,3.92,12.33,12.01,14.95,20.03c3.56,11.36,2.19,24.14-3.61,34.54c-3.69,6.5-9.74,11.81-16.95,14.03
		c-8.54,2.47-17.87-0.75-23.88-7.1c-12.57-13.04-14.28-34.53-5.24-49.99C363.74,741.25,369.97,735.73,377.51,733.74z"/>
	<path fill="#020101" stroke="#020101" stroke-width="0.2" d="M535.03,787.14c1.81-1.04,3.92-1.07,5.9399-0.91
		c-0.92,3-3.16,5.29-4.89,7.83c-7.59,11.29-15.74,22.19-23.92,33.05c-9.35,11.9-19.49,23.15-30.13,33.91
		c-13,13.39-26.11,27.09-42.23,36.78c-8.2,5.18-17.94,8.62-27.75,7.62c-12.6-0.61-23.8-8.35-31.43-18
		c-7.62-9.04-13.19-19.85-15.53-31.46c-0.48-1.7-0.19-3.44,0.77-4.89c4.85,3.25,7.43,8.7,10.68,13.37
		c7.12,10.58,14.49,21.52,25.2,28.83c8.4,5.84,19.56,6.97,29.21,3.85c16.02-4.68,28.77-16.38,39.62-28.59
		c18.84-21.67,31.38-48.03,50.54-69.45C525.15,794.48,529.53,789.97,535.03,787.14z"/>
	<path fill="#0087FA" stroke="#0087FA" stroke-width="0.2" d="M1267.4399,922.29c9.14,0.04,18.3301-0.16,27.41,1
		c14.4,0.06,28.79,0.48,43.17,1.05c14.96,0.03,29.88,1.23,44.85,1.3199c11.47,0.6801,22.96,0.72,34.45,1.09
		c13.89,0.97,27.8301,0.75,41.7301,1.54c10-0.08,19.9399,1.2401,29.9399,1.08c28.35,0.43,56.66,1.86,85,2.52
		c13.76,0.86,27.6,0.21,41.34,1.67c4.8301,19.44,9.4,38.96,14.5701,58.32c-10.72-1.04-21.7101,1-31.42,5.6
		c-6.5,3.5-13.13,7.5-17.34,13.74c-0.24,0.2401-0.73,0.72-0.98,0.96c-7.17,6.02-11.39,14.78-14.35,23.48
		c-2.89,8.25-2.91,17.13-2.1901,25.74c0.95,9.4199,4.63,18.4,9.6901,26.35c9.73,14.3199,25.6299,24.3,42.7999,26.64
		c5.5,0.2999,11.0701,0.47,16.5701-0.14c8.7799-1.7,17.46-4.51,25.0299-9.38c44.24,178.58,88.4501,357.17,132.67,535.75
		c1.27,5.76,3.26,11.37,3.9301,17.27c-25.67,4.22-51.39,8.0699-77.0701,12.1799c-34.02,5.14-67.95,10.9-102,15.75
		c-5.79-23.49-10.86-47.1699-16.33-70.73c-39.48-172.88-78.8101-345.7799-118.37-518.64c-5.88-1.0699-11.8401-1.5599-17.74-2.36
		c-8.9401-0.95-17.8-2.6599-26.78-3.01c-1.51,7.6001-1.9501,15.36-3.13,23.03c-25.25,196.13-50.25,392.3-75.52,588.4301
		c-2.42,0.46-4.88,0.76-7.33,0.7799c-15.36,0.0801-30.7101,0.4801-46.0601,0.9901c-10.65,0-21.3199,0.83-31.96,0.0599
		c2.01,0.26,4.03,0.51,6.04,0.88c-14.3601,0.29-28.7201,0.29-43.0701,0.98c-16.34,0.02-32.63,1.39-48.98,1.3101
		c-11.99-0.12-23.97,1.1799-35.95,0.63c2.75-22.24,6.5699-44.3401,9.6799-66.54C1195.6899,1401.86,1231.6,1162.08,1267.4399,922.29z
		"/>
	<path fill="#0087FA" stroke="#0087FA" stroke-width="0.2" d="M421.39,982.41c4.47-0.7,9.06-1.66,13.55-0.5699
		c71.69,16.87,143.3,34.09,215.02,50.81c-0.75,4.5-2.9,8.5699-4.55,12.78c-3.11,7.7-6.28,15.38-9.43,23.08
		c-2.76,6.72-5.45,13.47-8.14,20.23c-4.82,10.54-8.32,21.7-13.65,32c-17.4-7.17-34.68-14.61-52.04-21.88
		c-7.54-2.97-14.78-6.75-22.57-9.0599c1.28,5.24,3.54,10.1599,5.43,15.1899c4.66,12.08,9.28,24.17,13.91,36.26
		c-10.37,1.4-20.87,0.7-31.29,1.37c-14.86,0.9301-29.75,1.1801-44.63,1.77c-23.06,1.3199-46.17,1.65-69.22,3.14
		c-7.11,0.37-14.24,0.84-21.36,0.35c3.18-19.54,7.44-38.92,10.22-58.51c-13.32,1.98-26.49,4.9401-39.74,7.38
		c-21.12,3.83-42.09,8.46-63.26,11.97c-1.71-5.1899-2.22-10.65-3.39-15.95c-2.29-12.23-4.85-24.41-6.88-36.6801
		c-1.07-6.9-2.67-13.6899-4.13-20.51c-1.67-10.23-4.38-20.29-5.46-30.59C326.93,997.13,374.2,990.02,421.39,982.41z"/>
	<path fill="#F7D7A8" stroke="#F7D7A8" stroke-width="0.2" d="M1600.54,999.47c17.0399-7.12,37.3999-6.03,53.13,3.88
		c15.8199,9.25,26.98,26.24,28.2899,44.63c1.99,17.91-5.0699,36.48-18.39,48.59c-13.2,12.41-32.36,18.0601-50.1799,14.8201
		c-17.6-2.84-33.28-14.66-41.6-30.3201c-8.25-14.99-9.3401-33.48-3.17-49.4199c2.45-7.24,7.12-13.34,11.54-19.47
		c0.25-0.24,0.74-0.72,0.98-0.96C1587.48,1007.1,1593.3199,1002.07,1600.54,999.47z"/>
	<path fill="#333333" stroke="#333333" stroke-width="0.2" d="M150.97,1093.9399c44.66-19.6699,89.5-38.9299,134.27-58.36
		c1.46,6.8201,3.06,13.61,4.13,20.51c-42.37,18.36-84.78,36.64-127.05,55.2101c-7.71,3.6499-15.86,6.49-23.2,10.83
		c-2.71,5.59-4.22,11.7-6.51,17.49c-22.58,63.08-44.82,126.29-67.63,189.27c-0.25,0.36-0.76,1.0699-1.01,1.42
		c-4.85-4.5601-10.72-8.2201-17.33-9.52l0.22-0.8401c6.03-18.4099,12.95-36.5199,19.32-54.8099
		c17.93-50.36,35.9-100.7001,53.82-151.05c1.26-3.6799,3.34-7.35,7.01-9.0699C134.82,1100.97,142.97,1097.6,150.97,1093.9399z"/>
	<path fill="#F7D7A8" stroke="#F7D7A8" stroke-width="0.2" d="M934.99,1063c10.8-7.3101,23.96-11.17,37.01-10.6
		c16.52,0.71,32.48,8.89,42.94,21.66c9.78,11.87,14.47,27.73,12.91,43.0099c-1.9299,18.3501-12.87,35.67-29.04,44.7101
		c-14.02,8.2-31.45,10.28-46.95,5.39c-13.54-4.0701-25.01-13.63-32.63-25.39c-11.15-17.55-11.6-40.98-1.9-59.27
		c1.74-3.78,4.92-6.76,6.23-10.75c0.92-1.25,1.99-2.36,3.12-3.4C929.75,1067.08,932.28,1064.89,934.99,1063z"/>
	<path fill="#0E549A" stroke="#0E549A" stroke-width="0.2" d="M527.63,1142.62c10.42-0.67,20.92,0.03,31.29-1.37
		c8.15,20.87,16.15,41.8101,24.11,62.76c-9.19,0.27-18.27,1.86-27.4301,2.5599c-48.19,5.0901-96.39,10.0901-144.58,15.1801
		c-10.62,0.8-21.17,2.62-31.82,3.01c-0.13-0.49-0.39-1.46-0.52-1.9401c4.64-24.97,8.89-50.0099,13.74-74.9399
		c7.12,0.49,14.25,0.02,21.36-0.35c23.05-1.49,46.16-1.8201,69.22-3.14C497.88,1143.8,512.77,1143.55,527.63,1142.62z"/>
	<path fill="#0087FA" stroke="#0087FA" stroke-width="0.2" d="M555.6,1206.5699c9.16-0.7,18.2401-2.2899,27.4301-2.5599
		c3.59,9.38,7.18,18.76,10.8,28.13c1.56,4.17,3.59,8.22,4.25,12.67c-65.9,5.8799-131.84,11.5199-197.75,17.45
		c-9.61,0.6799-19.18,2.02-28.83,2.21c1.72-13.99,5-27.73,7.18-41.65c0.13,0.4801,0.39,1.4501,0.52,1.9401
		c10.65-0.39,21.2-2.21,31.82-3.01C459.21,1216.66,507.41,1211.66,555.6,1206.5699z"/>
	<path fill="#FF4806" stroke="#FF4806" stroke-width="0.2" d="M562.96,1272.9c5.31-0.77,10.64-1.8301,16.04-1.55
		c17.57,53.14,35.56,106.16,52.85,159.39c-32.02,18.92-63.97,37.97-96.11,56.6901c-6.02,3.47-11.97,7.0599-17.87,10.75
		c-11.59,6.37-22.54,13.98-34.41,19.7999c-6.38-17.83-12.46-35.76-18.8-53.6c-2.59-7.02-4.57-14.28-7.7-21.09
		c-3.07,5.0699-5.12,10.6699-7.63,16.0299c-8.92,19.54-17.43,39.26-26.51,58.7201c-12.96-2.5601-25.51-6.8101-38.34-9.88
		c-6.77-1.77-13.5-3.6901-20.3-5.36c-18.37-5.16-36.91-9.7201-55.24-15.01c1.03-7.37,3.56-14.41,5.23-21.64
		c9.53-37.0701,19.33-74.0701,28.84-111.14c5.22-19.14,9.58-38.53,15.21-57.54c15.31-0.02,30.46-2.65,45.68-3.99
		C456.99,1287.16,509.99,1280.1899,562.96,1272.9z"/>
	<path fill="#3E352D" stroke="#3E352D" stroke-width="0.2" d="M21.38,1323.42c7.8-4.1801,16.87-4.6801,25.48-3.4701l-0.22,0.8401
		c-16.06-3.28-33.7,5.14-41.04,19.83c-7.44,14.04-4.51,32.78,6.94,43.83c9.26,9.3401,23.72,13.3101,36.38,9.54
		c15.82-4.54,27.85-20.45,26.91-37.04c0.04-10.11-4.89-19.5599-11.86-26.6399c0.25-0.3501,0.76-1.0601,1.01-1.42
		c4.79,4.4399,8.94,9.75,11.04,16c5.99,16.38-0.54,36.4-15.21,45.91c-14.04,9.37-34.14,8.49-47-2.6001
		C6.58,1382.4301,2.52,1373.87,0,1365.17v-12.61C2.36,1340.3,9.92,1328.86,21.38,1323.42z"/>
	<path fill="#F7D7A8" stroke="#F7D7A8" stroke-width="0.2" d="M5.6,1340.62c7.34-14.6899,24.98-23.11,41.04-19.83
		c6.61,1.2999,12.48,4.96,17.33,9.52c6.97,7.08,11.9,16.5299,11.86,26.6399c0.94,16.5901-11.09,32.5-26.91,37.04
		c-12.66,3.77-27.12-0.2-36.38-9.54C1.09,1373.4-1.84,1354.66,5.6,1340.62z"/>
	<path fill="#333333" stroke="#333333" stroke-width="0.2" d="M517.87,1498.1801c5.9-3.6901,11.85-7.28,17.87-10.75
		c0.47,1.4199,0.98,2.84,1.63,4.22c46.62,90.16,93.36,180.26,139.92,270.46c-6.4,2.3-12.53,5.3101-18.6,8.37
		C611.77,1679.7,564.61,1589.04,517.87,1498.1801z"/>
	<path fill="#333333" stroke="#333333" stroke-width="0.2" d="M364.18,1502.8c6.8,1.6699,13.53,3.59,20.3,5.36
		c-0.92,1.8199-1.9,3.63-2.96,5.4c-22.45,36.8899-44.86,73.8099-67.28,110.72c-19.81,32.36-39.22,64.96-59.25,97.1799
		c-4.09-5.5299-9.4-10.0599-15.43-13.34c19.93-33.47,40.41-66.62,60.55-99.96C321.48,1573.05,342.74,1537.87,364.18,1502.8z"/>
	<path fill="#333333" stroke="#333333" stroke-width="0.2" d="M1734.85,1681.89c17.65-7.11,36.52-10.79,55.4401-12.28
		c20.9099-1.5,42.0499-0.51,62.62,3.66c15.47,3.28,30.87,8.08,44.39,16.46c10.7699,6.66,21.1,16.55,22.7,29.76v4.03
		c-1.42,11.4-9.49,20.5599-18.5699,26.9199c-14.9401,10.41-32.67,15.9601-50.3601,19.52c-31.62,5.89-64.58,5.39-95.85-2.3099
		c-15.14-3.9301-30.1899-9.5801-42.65-19.24c-7.4199-5.89-14.1399-13.73-15.58-23.39c-1.41-8.72,2.52-17.38,8.27-23.75
		C1713.24,1692.37,1723.9399,1686.4399,1734.85,1681.89z"/>
	<path fill="#0087FA" stroke="#0087FA" stroke-width="0.2" d="M117,1700.98c22.24-7.08,45.9-8.73,69.09-7.0599
		c18.41,1.74,37,5.45,53.47,14.2c6.03,3.28,11.34,7.8101,15.43,13.34c1.65,3.26,3.02,6.8,2.87,10.54c0.13,5.98-3.46,11.25-7.56,15.3
		c-7.14,6.9199-16.39,11.13-25.65,14.4299c-22.4,7.55-46.41,9.39-69.89,7.75c-15.94-1.39-31.98-4.14-46.75-10.5
		c-8.13-3.5699-16.24-8.08-21.74-15.24c-3.42-4.37-5.43-10.16-4.12-15.6899c1.34-6.01,5.61-10.8601,10.27-14.64
		C99.63,1707.58,108.3,1703.95,117,1700.98z"/>
	<path fill="#333333" stroke="#333333" stroke-width="0.2" d="M1190.37,1724.42c22.0601-1,44.33,0.95,65.73,6.5299
		c15.23,4.15,30.41,10.0601,42.66,20.27c7.11,5.99,13.26,14.16,13.9399,23.72c0.67,7.52-2.6499,14.78-7.2899,20.51
		c-8.48,10.14-20.4,16.67-32.53,21.4601c-16.21,6.36-33.47,9.73-50.77,11.36c-23.67,1.98-47.71,0.78-70.88-4.62
		c-14.6899-3.48-29.21-8.64-41.8199-17.0701c-7.28-4.9399-13.99-11.2699-17.6-19.4199c-2.9-6.4301-3.02-14.0601-0.1901-20.52
		c3.54-8.47,10.52-14.9401,17.97-20.02c12.4-8.28,26.67-13.26,41.0601-16.79C1163.6801,1726.79,1177,1725,1190.37,1724.42z"/>
	<path fill="#0087FA" stroke="#0087FA" stroke-width="0.2" d="M677.29,1762.11c26.9-8.27,55.68-9.77,83.45-5.6
		c13.59,2.23,27.19,5.72,39.35,12.35c6.21,3.48,12.2,7.84,16.0699,13.9401c4,6.1899,3.66,14.7799-0.65,20.73
		c-4.7,6.74-11.87,11.25-19.1,14.87c-17.5,8.2899-36.93,11.25-56.08,12.6h-19.67c-18.79-1.5699-37.87-4.39-55.03-12.62
		c-7.65-3.83-15.35-8.65-19.88-16.14c-2.87-4.53-3.34-10.33-1.83-15.4c2.58-7.1699,8.83-12.0399,14.77-16.36
		C664.76,1767.42,670.89,1764.41,677.29,1762.11z"/>
</g>
</svg>
