<?xml version="1.0" encoding="utf-8"?>

<!DOCTYPE svg PUBLIC "-//W3C//DTD SVG 1.1//EN" "http://www.w3.org/Graphics/SVG/1.1/DTD/svg11.dtd">
<svg version="1.1" id="Layer_1" xmlns="http://www.w3.org/2000/svg" xmlns:xlink="http://www.w3.org/1999/xlink" x="0px" y="0px"
	 viewBox="364.694 381.385 3505.306 2367.043" enable-background="new 364.694 381.385 3505.306 2367.043" xml:space="preserve">
<g>
	<linearGradient id="SVGID_1_" gradientUnits="userSpaceOnUse" x1="604.0781" y1="805.7426" x2="770.2234" y2="639.5973">
		<stop  offset="0" style="stop-color:#3BD4E2"/>
		<stop  offset="0.1943" style="stop-color:#32AEBA"/>
		<stop  offset="0.5831" style="stop-color:#21666F"/>
		<stop  offset="0.8614" style="stop-color:#163940"/>
		<stop  offset="1" style="stop-color:#12282E"/>
	</linearGradient>
	<path fill="url(#SVGID_1_)" d="M701.51,616.84c3.54,2.01,7.03,4.14,10.71,5.92c15.67,7.67,31.32,15.4,46.94,23.18
		c2.55,1.26,5.14,2.79,8.06,2.89c1.95,0.23,4.31-0.07,5.7,1.57c0.09,0.11,0.18,0.22,0.26,0.35c4.56,5.46,8.47,11.45,11.97,17.63
		c0.88,1.55,1.75,3.11,2.57,4.71c3.42,6.71,6.28,13.72,8.04,21.06c2.14,7.8,3.51,15.8,4.2,23.86c0.43,7.01,0.3,14.07-0.79,21.02
		c-0.73,5.06-1.55,10.12-2.78,15.1c-2.01,7.53-4.63,14.92-8.05,21.94c-1.14,2.4-2.39,4.74-3.7,7.06
		c-4.11,6.97-8.79,13.61-14.16,19.68c-3.75,4.14-7.8,8.01-12.09,11.58c-4.91,4.36-10.36,8.07-15.98,11.44
		c-9.26,5.35-19.2,9.57-29.6,12.1c-2.43,0.68-4.89,1.21-7.36,1.7c-6.26,1.14-12.6,1.89-18.97,2.03
		c-34.89,1.13-69.72-14.64-91.98-41.52c-5.92-7.05-11.01-14.81-15.04-23.09c-1.42-2.88-2.78-5.79-3.88-8.8
		c-3.61-8.95-6.02-18.39-7.13-27.97c-0.9-7.07-1.34-14.21-0.82-21.32c0.26-3.7,0.52-7.41,1.13-11.07
		c1.39-9.74,4.24-19.21,8.05-28.25c1.18-2.73,2.4-5.44,3.8-8.05c1.25-2.34,2.52-4.66,3.89-6.92c2.06-3.31,4.33-6.48,6.61-9.63
		c1.28-0.06,2.57-0.11,3.86-0.14c-2,2.26-4.33,4.38-5.57,7.19c-0.66,2.9,2.28,5.55,5.08,4.51c3.22-2.12,5.33-5.48,8.14-8.06
		c4.05-4.03,8.26-7.9,12.73-11.45c6.06-4.84,12.4-9.37,19.21-13.1c6.45-3.58,13.16-6.74,20.21-8.94c11.55-3.54,23.91-5.23,35.9-3.13
		c2.96,0.32,5.96,1.48,8.95,0.83C701.85,621.67,701.51,618.88,701.51,616.84z"/>
	<linearGradient id="SVGID_2_" gradientUnits="userSpaceOnUse" x1="561.0452" y1="786.5259" x2="738.0594" y2="609.5116">
		<stop  offset="0" style="stop-color:#3BD4E2"/>
		<stop  offset="0.1943" style="stop-color:#32AEBA"/>
		<stop  offset="0.5831" style="stop-color:#21666F"/>
		<stop  offset="0.8614" style="stop-color:#163940"/>
		<stop  offset="1" style="stop-color:#12282E"/>
	</linearGradient>
	<path fill="url(#SVGID_2_)" d="M577.12,662.63c11.15-18.76,27.31-34.54,46.43-45.12c28.65-16.05,63.81-19.83,95.25-10.36
		c31.57,9.04,58.84,31.66,74.04,60.71c-1.65,1.66-3.29,3.33-4.91,5.02c-4.06-8.13-9.05-15.71-14.85-22.61
		c-21.12-25.19-52.83-41.2-88.28-41.2c-14.29,0-27.96,2.61-40.58,7.36c-0.07-0.05-0.13-0.11-0.19-0.16
		c-20.8,7.56-39.86,20.77-52.92,38.77c-2.28,3.15-4.55,6.32-6.61,9.63C582.06,663.88,579.6,663.21,577.12,662.63z"/>
	<linearGradient id="SVGID_3_" gradientUnits="userSpaceOnUse" x1="601.7274" y1="807.2178" x2="772.324" y2="636.6212">
		<stop  offset="0" style="stop-color:#3BD4E2"/>
		<stop  offset="0.1943" style="stop-color:#32AEBA"/>
		<stop  offset="0.5831" style="stop-color:#21666F"/>
		<stop  offset="0.8614" style="stop-color:#163940"/>
		<stop  offset="1" style="stop-color:#12282E"/>
	</linearGradient>
	<path fill="url(#SVGID_3_)" stroke="#3BD4E2" stroke-width="0.5" d="M802.746,717.833c-0.707-8.253-2.109-16.445-4.301-24.432
		c-1.802-7.516-4.731-14.694-8.233-21.565c-0.84-1.638-1.731-3.236-2.632-4.823c-3.584-6.328-7.588-12.462-12.257-18.053
		c-0.082-0.133-0.174-0.246-0.266-0.358l0.164-0.133c-21.626-25.794-54.097-42.188-90.397-42.188
		c-14.633,0-28.631,2.672-41.553,7.536c-0.072-0.051-0.133-0.112-0.195-0.164c-21.299,7.741-40.816,21.268-54.189,39.7l-6.768,9.861
		c-1.403,2.314-2.703,4.69-3.983,7.086c-1.434,2.672-2.683,5.447-3.891,8.243c-3.901,9.257-6.82,18.954-8.243,28.927
		c-0.625,3.748-0.891,7.547-1.157,11.335c-0.532,7.281-0.082,14.592,0.84,21.831c1.137,9.81,3.604,19.476,7.301,28.641
		c1.126,3.082,2.519,6.062,3.973,9.011c4.127,8.479,9.339,16.425,15.401,23.644c22.794,27.525,58.459,43.673,94.186,42.516
		c6.523-0.143,13.015-0.911,19.425-2.079c2.529-0.502,5.048-1.044,7.536-1.741c10.649-2.591,20.828-6.912,30.31-12.39
		c5.755-3.451,11.336-7.25,16.363-11.714c4.393-3.656,8.54-7.618,12.38-11.858c5.499-6.216,10.291-13.015,14.5-20.152
		c1.341-2.376,2.621-4.772,3.789-7.229c3.502-7.188,6.185-14.756,8.243-22.466c1.259-5.099,2.099-10.281,2.847-15.462
		C803.053,732.24,803.186,725.011,802.746,717.833z"/>
	<path fill="#362012" stroke="#362012" stroke-width="0.5" d="M2143.86,506.89c33.26-14.9,71.33-17.5,106.73-9.51
		c13.34,2.77,26.1,7.61,38.8,12.44c11.55,6,23.54,11.67,33.26,20.51c9.25,8.86,17.35,18.83,25.08,29.03
		c22.96,31.49,40.3,67.22,49.96,105.02c3.54,15.31,6.21,31.13,4.57,46.88c-0.91,7.21-2.71,14.78-7.59,20.4
		c-2.63,3.06-6.43,4.64-10.08,6.07c-0.24,5.26-0.29,10.95-3.43,15.43c-2.24,3.44-6.06,5.35-9.86,6.49
		c-6.27,1.71-12.88,1.29-19.23,0.41c-12.2-1.96-23.99-5.94-35.31-10.8c-1.84-0.77-3.8-1.43-5.78-1.12
		c-73.85,7.89-149.19,8.03-222.17-7.03c-27.95-5.89-55.56-14.05-81.43-26.27c-24.67,27.04-49.04,54.51-70.07,84.51
		c-5.62,8.36-11.22,16.89-14.69,26.39c-1.63,4.11-1.07,8.56-1.14,12.87c-4.28-2.46-6.64-6.92-9.25-10.89
		c-9.96-16.02-18.71-32.75-27.49-49.43c-1.65-3.13-3.38-6.21-4.65-9.5c-1.87-19.27-0.5-38.76,2.79-57.81
		c5.13-29.05,16.13-57.21,33.18-81.37c16.82-23.61,39.27-43.03,64.74-56.81c33.84-18.54,71.97-27.9,110.11-32.11
		c3.57-0.24,5.98-3.13,8.54-5.28C2112.73,523.78,2127.73,514.1,2143.86,506.89z"/>
	<path fill="#E6F7F7" stroke="#E6F7F7" stroke-width="0.5" d="M647.48,619.21c13.78-5.2,28.85-7.23,43.49-5.24
		c3.61,0.48,7.33,1.01,10.54,2.87c0,2.04,0.34,4.83-1.89,5.91c-2.99,0.65-5.99-0.51-8.95-0.83c-11.99-2.1-24.35-0.41-35.9,3.13
		c-7.05,2.2-13.76,5.36-20.21,8.94c-6.81,3.73-13.15,8.26-19.21,13.1c-4.47,3.55-8.68,7.42-12.73,11.45
		c-2.81,2.58-4.92,5.94-8.14,8.06c-2.8,1.04-5.74-1.61-5.08-4.51c1.24-2.81,3.57-4.93,5.57-7.19
		C609.75,639.57,627.5,626.8,647.48,619.21z"/>
	<path fill="#F3E5C8" stroke="#F3E5C8" stroke-width="0.5" d="M1589.01,617.02c8.76-1.14,17.69-1.14,26.43,0.19
		c4.71,19.68,9.62,39.32,14.43,58.98c1.88,7.96,4.18,15.83,5.53,23.92c-24.01,4.92-46.83,15.35-66.32,30.19
		c-8.95-11.95-11.38-27.11-14.01-41.43c-1.47-9.56-3.15-19.13-3.76-28.79c-0.66-10.74,1.96-22.24,9.55-30.2
		C1568.18,622.16,1578.71,618.52,1589.01,617.02z"/>
	<path fill="#F3E5C8" stroke="#F3E5C8" stroke-width="0.5" d="M816.64,648.41c6.48,0.21,11.76,4.47,16.58,8.36
		c11.9,10.27,21.25,23.07,29.99,36.04c23.26,35.63,41.8,74.07,59.07,112.88c3.02,6.15,4.9,12.86,8.39,18.78
		c6.96,2.65,14.78,1.73,22.09,2.94c18.4,2.01,36.82,3.79,55.23,5.63c15.56,1.1,30.33,7.92,42.41,17.59
		c12.59,10.16,21.87,23.92,28.42,38.6c8.16,18.35,12.49,38.16,14.88,58.02c4.72,40.96,1.97,82.48-4.65,123.08
		c-7.01,4.77-12.84,10.97-19.3,16.41c-15.37,13.29-30.35,27.01-45.68,40.34c-9.52,8.85-19.63,17.06-28.95,26.13
		c1.29,1.61,2.57,3.23,3.96,4.77c-9.72-0.64-19.35-2.19-29.06-2.97c-11.31-1.07-22.65-2.01-34.02-1.68
		c-5.89,0.22-12.01-0.93-16.73-4.65c-8.3-6.21-12.96-15.74-19.16-23.8c-2.42-2.96-5.19-6.26-9.19-6.87
		c-4.36-0.63-8.89-0.27-13.09-1.78c-7.72-2.69-14.7-7.08-21.44-11.62c-11.85-8.24-22.75-17.9-32.18-28.82
		c-5.84-6.96-11.42-14.63-13.43-23.65c-2.66-12.47-1.13-26,5.21-37.16c2.77-4.78,4.97-9.85,6.99-14.98
		c4.72-11.59,9.56-23.12,14.28-34.71c2.3-5.58,4.41-11.25,7.34-16.55c31.74,30.65,63.46,61.33,95.07,92.12
		c-7.25,5.69-16.6,7.97-25.66,8.29c-10.73,0.38-20.92-4.5-29.25-10.91c-10.32-7.77-17.92-18.44-24.8-29.22
		c-5.55-9.34-10.8-18.89-15.1-28.87c-1.67-3.89-3.57-7.67-5.86-11.21c2.4,17.59,10.43,33.81,18.82,49.26
		c5.71,9.88,13.45,18.48,22.16,25.81c11.39,9.38,27.08,14.09,41.61,10.51c7.94-1.36,15.53-4.85,21.06-10.81
		c19.81,19.06,39.51,38.24,59.26,57.37c2.84,3.03,7.65,4.29,11.37,2.11c3.63-2.24,6.22-5.73,9.2-8.72
		c8.68-8.88,17.23-17.89,25.96-26.72c12.19-12.92,24.79-25.43,37.03-38.29c2.39-2.44,4.23-5.78,3.47-9.29
		c-0.66-3.75-3.85-6.22-6.4-8.72c-8.28-7.73-16.34-15.68-24.35-23.68c-1.38-1.28-2.73-2.67-4.46-3.43
		c-2.89-0.59-5.87-0.23-8.78-0.16c-31.32,1.5-62.8-2.62-92.91-11.3c-23.44-7.84-47.21-18.16-64.14-36.81
		c-4.72-5.6-9.88-11.67-10.87-19.18c-0.65-4.39,2.04-8.25,5.18-10.99c10.87-6.61,23.9-7.76,36.32-8.57
		c15.45-1.22,30.93-0.24,46.38,0.41c-19.9-19.65-40.17-38.93-60.18-58.48c-3.16-3.4-8.71-5.45-12.76-2.32
		c-6.3,4.86-10.96,11.48-17.09,16.54c-4.84-5.61-10.41-10.5-15.63-15.73c-5.83-5.88-12.44-11.14-16.93-18.2
		c-5.84-10.91-12.46-21.4-17.69-32.62c12.09-27.77,15.53-59.12,10.19-88.91C831.64,680.61,825.48,663.75,816.64,648.41
		 M817.38,1016.73c3.75,10.64,9.23,20.56,14.31,30.6c4.05,7.98,7.72,16.15,12.01,24.01c2.56,5.02,8.37,6.65,13.15,8.81
		c14.45,6.28,30.68,8.42,46.24,5.98c16.74-3.51,33.17-13.59,40.75-29.36c-5.1,3.14-8.65,8.16-13.67,11.41
		c-14.17,10.61-32.92,13.98-50.17,10.95c-8.73-1.55-17.29-4.15-25.39-7.71c-4.31-1.62-6.16-6.06-8.34-9.72
		c-5.09-8.55-10.12-17.12-15.43-25.53C826.67,1029.49,822.98,1022.38,817.38,1016.73z"/>
	<path fill="#040404" stroke="#040404" stroke-width="0.5" d="M1635.4,700.11c35.01-7.2,72.34-2.78,104.55,12.78
		c39.39,18.8,70.65,53.84,84.7,95.17c7.93,23.07,10.57,47.92,7.82,72.16c-3.51,31.57-16.51,61.98-36.84,86.39
		c-21.05,25.42-49.84,44.42-81.62,53.41c-19.68,5.67-40.42,7.43-60.8,5.58c-13.5-1.3-26.87-4.14-39.62-8.78
		c-41.11-14.37-75.75-46.01-94.08-85.48c-19.15-40.03-20.6-87.97-4.49-129.27c0.97-2.51,2-5.01,3.09-7.48
		c10.09-22.62,25.35-42.92,44.29-58.88c2.19-1.85,4.4-3.67,6.68-5.41C1588.57,715.46,1611.39,705.03,1635.4,700.11 M1593.89,741.35
		c5.44,8.71,11.05,17.32,16.37,26.11c-4.15,2.42-8.07,5.24-12.27,7.58c-1.15-0.5-1.56-1.81-2.25-2.72
		c-4.62-7.5-9.4-14.91-14.08-22.37c-13.65,10.7-25.43,23.84-34.24,38.8c8.25,4.8,16.46,9.68,24.72,14.48
		c-2.56,4.25-5.02,8.55-7.53,12.82c-8.14-4.65-16.18-9.46-24.28-14.17c-8.45,18.24-12.83,38.24-13.16,58.32
		c9.02,0.09,18.04,0.04,27.06,0.03c0.02,4.92,0.02,9.84,0.02,14.77c-8.79,0.01-17.57-0.03-26.34,0.02
		c1.89,20.68,8.48,40.91,19.12,58.74c6.61-3.97,13.01-8.27,19.64-12.22c2.57,4.21,5.24,8.37,7.85,12.57
		c-6.36,4.08-12.79,8.05-19.15,12.12c10.03,13.47,22.52,25.1,36.63,34.22c4.09-6.66,7.92-13.48,11.97-20.16
		c4.28,2.46,8.54,4.98,12.8,7.5c-3.84,6.74-7.86,13.38-11.75,20.08c17.37,8.93,36.69,13.86,56.17,14.98
		c0.11-7.77,0.05-15.54,0.03-23.3c5-0.08,10.01-0.07,15.02-0.03c0.04,7.77-0.04,15.55,0.04,23.34c19.46-1.12,38.73-6.1,56.13-14.93
		c-4.15-6.73-8.44-13.37-12.62-20.07c4.2-2.69,8.35-5.46,12.71-7.9c4.16,6.72,8.35,13.45,12.69,20.06l0.72,0.1
		c14.62-9.47,27.51-21.71,37.63-35.91c-7.4-4.36-14.82-8.66-22.18-13.07c2.47-4.29,4.96-8.56,7.53-12.79
		c7.67,4.32,15.12,9.05,22.86,13.27c9.94-17.5,16.05-37.1,17.91-57.13c-9.15-0.02-18.3,0.07-27.45-0.05
		c0.05-4.9,0.04-9.79,0.02-14.68c9.34-0.02,18.69-0.03,28.04,0c-0.37-22.44-6.01-44.73-16.44-64.6
		c-8.95,5.58-17.85,11.26-26.79,16.87c-2.68-4.21-5.39-8.4-7.94-12.67c9.02-5.55,17.89-11.35,26.94-16.88
		c-10.02-15.18-23.25-28.18-38.29-38.38c-5.38,8.93-10.55,17.99-15.88,26.94c-4.3-2.49-8.52-5.08-12.84-7.51
		c5.2-9.12,10.71-18.06,15.86-27.21c-18.26-9.52-38.53-15.07-59.09-16.16c-0.09,10.43-0.06,20.86-0.02,31.29
		c-5.01,0.09-10.02,0.05-15.02,0.03c-0.04-10.42,0.02-20.84-0.04-31.26C1637.14,721.6,1613.95,728.87,1593.89,741.35z"/>
	<path fill="#F3E5C8" stroke="#F3E5C8" stroke-width="0.5" d="M1500.11,722.08c4.49-7.1,13.14-9.95,21.1-10.73
		c8.46-0.71,17.78-0.65,25,4.46c7.05,4.98,12.86,11.9,16.19,19.9c-18.94,15.96-34.2,36.26-44.29,58.88
		c-10.1-12.88-16.84-28.28-20.51-44.18C1495.8,741.08,1494.77,730.48,1500.11,722.08z"/>
	<path fill="#F3E5C8" stroke="#F3E5C8" stroke-width="0.5" d="M2007.38,714.84c25.87,12.22,53.48,20.38,81.43,26.27
		c72.98,15.06,148.32,14.92,222.17,7.03c1.98-0.31,3.94,0.35,5.78,1.12c11.32,4.86,23.11,8.84,35.31,10.8
		c6.35,0.88,12.96,1.3,19.23-0.41c3.55,3.54,4.34,8.65,5.84,13.23c2.27,7.19,4.17,14.5,6.02,21.82c6.31-4.96,13.1-9.88,21.19-11.34
		c6.62-1.4,13.88-0.17,19.34,3.96c7.25,5.37,11.3,13.93,13.51,22.47c2.46,9.92,3.11,20.27,2.24,30.45
		c-1.46,18.79-6.74,37.22-15.08,54.11c-6.33,12.6-14.51,24.52-25.24,33.78c-3.75,3.41-8.61,5.27-12.39,8.6
		c-1.98,3.98-2.16,8.56-3.26,12.83c-7.57,32.47-20.19,63.82-37.66,92.24c-26.82,43.96-65.96,80.9-113.03,102.31
		c-0.19,10.96,0.82,21.9,0.99,32.86c0.37,7.24-0.45,14.71,1.9,21.71c-13.79,13.11-29.93,23.33-44.55,35.41
		c-17.83,13.12-34.58,27.65-52.63,40.46c-0.94-0.12-1.86-0.21-2.76-0.27c-10.13-14.36-22.1-27.27-32.83-41.16
		c-4.84-6.14-10.44-11.69-14.58-18.35c-4.89-8.14-11.77-14.8-17.26-22.51c0.27-13.28-0.57-26.58-1.3-39.83
		c-56.54-18.62-104.06-59.58-135.77-109.42c-23.16-36.16-38.29-77.23-45.5-119.5c-7.06-2.77-14.04-6.13-19.41-11.6
		c-13.59-12.45-21.49-29.5-27.98-46.41c-2.71,4.99-4.61,10.55-8.63,14.72c2.75-24.24,0.11-49.09-7.82-72.16
		c3.26-1.38,6.59-2.62,9.97-3.73c1.79-7.67,3.29-15.56,7.17-22.52c4.11-7.94,11.25-15.13,20.45-16.41c6.17-1.08,12.24,1,17.85,3.39
		c1.27,3.29,3,6.37,4.65,9.5c8.78,16.68,17.53,33.41,27.49,49.43c2.61,3.97,4.97,8.43,9.25,10.89c0.07-4.31-0.49-8.76,1.14-12.87
		c3.47-9.5,9.07-18.03,14.69-26.39C1958.34,769.35,1982.71,741.88,2007.38,714.84 M2251.9,826.99
		c-14.28,5.2-26.45,14.89-36.81,25.82c38.44-1.31,76.89-2.6,115.32-4.14c-10.62-10.92-24.03-19.33-38.76-23.38
		C2278.65,821.7,2264.54,822.26,2251.9,826.99 M2006.02,832.81c-19.76,2.78-36.78,14.93-50.13,29.2
		c38.47-1.31,76.93-2.62,115.39-4.12C2054.53,840.8,2030.33,829.22,2006.02,832.81 M2266.32,881.26
		c-13.68,2.14-25.38,13-28.68,26.43c-3.85,14.14,2.12,30.26,14.29,38.44c13.51,9.77,33.75,8.13,45.5-3.71
		c11.33-10.64,14.12-28.87,6.79-42.51C2297.35,886.35,2281.25,878.46,2266.32,881.26 M2017.42,890.65
		c-5.25,1.4-10.18,3.95-14.28,7.5c-11.67,9.83-15.68,27.34-9.57,41.3c5.78,14.13,21.28,23.34,36.47,21.65
		c10.32-0.89,20.07-6.6,25.99-15.09c6.35-8.87,8.14-20.72,4.95-31.13c-2.48-8.36-8.18-15.7-15.66-20.18
		C2037.1,889.58,2026.75,888.2,2017.42,890.65 M2157.88,1008.88c-6.61,2.97-14.33,3.02-21.03,0.34c-6.02-1.89-11.26-6.27-17.79-6.25
		c-2.3,8.1,3.36,15.98,10.23,19.74c12.89,6.96,30.23,5.7,41.4-4.04c5.04-4.26,7.29-11.52,5.27-17.85
		C2169.12,1001.42,2164.1,1006.59,2157.88,1008.88 M2194.57,1065.48c-17.2,4.05-34.9,5.97-52.56,5.72
		c-19.27,0.19-38.54-2.26-57.22-6.96c-3.61,7.04-2.69,16.32,2.91,22.08c6.93,7.42,16.88,10.95,26.47,13.5
		c10.09,2.43,20.4,4.44,30.84,4.44c15.72-0.27,31.4-3.13,46.37-7.9c9.37-3.51,19.68-8.19,24.21-17.74
		c3.01-5.92,2.13-12.95-0.66-18.76C2208.04,1061.37,2201.43,1063.88,2194.57,1065.48z"/>
	<path fill="#F6F6F6" stroke="#F6F6F6" stroke-width="0.5" d="M1593.89,741.35c20.06-12.48,43.25-19.75,66.83-21.13
		c0.06,10.42,0,20.84,0.04,31.26c5,0.02,10.01,0.06,15.02-0.03c-0.04-10.43-0.07-20.86,0.02-31.29
		c20.56,1.09,40.83,6.64,59.09,16.16c-5.15,9.15-10.66,18.09-15.86,27.21c4.32,2.43,8.54,5.02,12.84,7.51
		c5.33-8.95,10.5-18.01,15.88-26.94c15.04,10.2,28.27,23.2,38.29,38.38c-9.05,5.53-17.92,11.33-26.94,16.88
		c2.55,4.27,5.26,8.46,7.94,12.67c8.94-5.61,17.84-11.29,26.79-16.87c10.43,19.87,16.07,42.16,16.44,64.6
		c-9.35-0.03-18.7-0.02-28.04,0c0.02,4.89,0.03,9.78-0.02,14.68c9.15,0.12,18.3,0.03,27.45,0.05c-1.86,20.03-7.97,39.63-17.91,57.13
		c-7.74-4.22-15.19-8.95-22.86-13.27c-2.57,4.23-5.06,8.5-7.53,12.79c7.36,4.41,14.78,8.71,22.18,13.07
		c-10.12,14.2-23.01,26.44-37.63,35.91l-0.72-0.1c-4.34-6.61-8.53-13.34-12.69-20.06c-4.36,2.44-8.51,5.21-12.71,7.9
		c4.18,6.7,8.47,13.34,12.62,20.07c-17.4,8.83-36.67,13.81-56.13,14.93c-0.08-7.79,0-15.57-0.04-23.34
		c-5.01-0.04-10.02-0.05-15.02,0.03c0.02,7.76,0.08,15.53-0.03,23.3c-19.48-1.12-38.8-6.05-56.17-14.98
		c3.89-6.7,7.91-13.34,11.75-20.08c-4.26-2.52-8.52-5.04-12.8-7.5c-4.05,6.68-7.88,13.5-11.97,20.16
		c-14.11-9.12-26.6-20.75-36.63-34.22c6.36-4.07,12.79-8.04,19.15-12.12c-2.61-4.2-5.28-8.36-7.85-12.57
		c-6.63,3.95-13.03,8.25-19.64,12.22c-10.64-17.83-17.23-38.06-19.12-58.74c8.77-0.05,17.55-0.01,26.34-0.02
		c0-4.93,0-9.85-0.02-14.77c-9.02,0.01-18.04,0.06-27.06-0.03c0.33-20.08,4.71-40.08,13.16-58.32c8.1,4.71,16.14,9.52,24.28,14.17
		c2.51-4.27,4.97-8.57,7.53-12.82c-8.26-4.8-16.47-9.68-24.72-14.48c8.81-14.96,20.59-28.1,34.24-38.8
		c4.68,7.46,9.46,14.87,14.08,22.37c0.69,0.91,1.1,2.22,2.25,2.72c4.2-2.34,8.12-5.16,12.27-7.58
		C1604.94,758.67,1599.33,750.06,1593.89,741.35 M1632.58,775.25c12.87,33.16,26.22,66.13,39.18,99.26
		c24.24-0.04,48.48,0.01,72.72-0.03c0.01-4.09,0.04-8.18-0.04-12.26c-20.16,0.08-40.33-0.02-60.49,0.05
		c-1.32-0.18-3.48,0.52-3.88-1.26c-10.86-27.48-21.79-54.94-32.64-82.42c-1.27-2.49-1.61-5.69-3.55-7.66
		C1640.03,772.16,1636.35,773.83,1632.58,775.25z"/>
	<path fill="#040404" stroke="#040404" stroke-width="0.5" d="M1632.58,775.25c3.77-1.42,7.45-3.09,11.3-4.32
		c1.94,1.97,2.28,5.17,3.55,7.66c10.85,27.48,21.78,54.94,32.64,82.42c0.4,1.78,2.56,1.08,3.88,1.26
		c20.16-0.07,40.33,0.03,60.49-0.05c0.08,4.08,0.05,8.17,0.04,12.26c-24.24,0.04-48.48-0.01-72.72,0.03
		C1658.8,841.38,1645.45,808.41,1632.58,775.25z"/>
	<path fill="#F3E5C8" stroke="#F3E5C8" stroke-width="0.5" d="M1488.7,784.62c9.23,5.09,17.66,11.47,26.32,17.45
		c-16.11,41.3-14.66,89.24,4.49,129.27c-3.04,5.45-7.7,9.76-12.4,13.77c-6.8,5.44-15.25,9.53-24.14,9.15
		c-6.58-0.21-12.64-3.5-17.39-7.86c-7.34-6.7-12.81-15.13-17.83-23.62c-4.3-7.32-8.49-14.71-12.27-22.31
		c-3.23-6.44-4.89-14.22-2.15-21.12c2.96-7.4,10.12-12.08,17.35-14.71c7.19-2.81,15.03-2.52,22.61-2.18
		c-4.77-8.52-10.74-16.28-16.93-23.8c-3.89-4.64-5.34-11.11-3.61-16.93c2.61-9.48,9.82-16.68,17-22.99
		C1475.63,793.46,1482.58,789.59,1488.7,784.62z"/>
	<path fill="#9D9D9D" stroke="#9D9D9D" stroke-width="0.5" d="M818.41,799.64c5.34,2.73,9.17,7.44,13.35,11.59
		c3.18,3.15,6.13,6.89,10.56,8.32c4.49,7.06,11.1,12.32,16.93,18.2c5.22,5.23,10.79,10.12,15.63,15.73
		c-7.25,7.94-15.3,15.11-22.3,23.27c-6.97,7.83-14.43,15.2-21.66,22.77c-8.55-5-14.43-13.21-21.67-19.77
		c-10.36-11.07-22.3-20.49-32.46-31.75C793.79,834.97,808.15,818.46,818.41,799.64z"/>
	<path fill="#170600" stroke="#170600" stroke-width="0.5" d="M2251.9,826.99c12.64-4.73,26.75-5.29,39.75-1.7
		c14.73,4.05,28.14,12.46,38.76,23.38c-38.43,1.54-76.88,2.83-115.32,4.14C2225.45,841.88,2237.62,832.19,2251.9,826.99z"/>
	<path fill="#170600" stroke="#170600" stroke-width="0.5" d="M2006.02,832.81c24.31-3.59,48.51,7.99,65.26,25.08
		c-38.46,1.5-76.92,2.81-115.39,4.12C1969.24,847.74,1986.26,835.59,2006.02,832.81z"/>
	<path fill="#BB8E64" stroke="#BB8E64" stroke-width="0.5" d="M891.97,836.94c4.05-3.13,9.6-1.08,12.76,2.32
		c20.01,19.55,40.28,38.83,60.18,58.48c-15.45-0.65-30.93-1.63-46.38-0.41c-12.42,0.81-25.45,1.96-36.32,8.57
		c-9.52-10.08-19.72-19.47-29.63-29.15c7-8.16,15.05-15.33,22.3-23.27C881.01,848.42,885.67,841.8,891.97,836.94z"/>
	<path fill="#7A6047" stroke="#7A6047" stroke-width="0.5" d="M830.92,899.52c7.23-7.57,14.69-14.94,21.66-22.77
		c9.91,9.68,20.11,19.07,29.63,29.15c-3.14,2.74-5.83,6.6-5.18,10.99c0.99,7.51,6.15,13.58,10.87,19.18
		c16.93,18.65,40.7,28.97,64.14,36.81c13.19,12.82,26.02,26.02,39.57,38.47c11.42,11.25,22.79,22.55,34.55,33.46
		c7.33,7.73,15.75,14.48,22.28,22.94c-8.73,8.83-17.28,17.84-25.96,26.72c-2.98,2.99-5.57,6.48-9.2,8.72
		c-3.72,2.18-8.53,0.92-11.37-2.11c-19.75-19.13-39.45-38.31-59.26-57.37c-1.01-0.95-2.01-1.9-2.98-2.85
		c-31.61-30.79-63.33-61.47-95.07-92.12c-8.24-7.87-16.3-15.93-24.48-23.85c-3.52-3.06-4.42-8.6-1.57-12.4
		C822.15,907.71,826.89,903.94,830.92,899.52z"/>
	<path fill="#170600" stroke="#170600" stroke-width="0.5" d="M2266.32,881.26c14.93-2.8,31.03,5.09,37.9,18.65
		c7.33,13.64,4.54,31.87-6.79,42.51c-11.75,11.84-31.99,13.48-45.5,3.71c-12.17-8.18-18.14-24.3-14.29-38.44
		C2240.94,894.26,2252.64,883.4,2266.32,881.26 M2279.29,895.19c-3.55,1.11-6.35,4.2-7.13,7.83c-1.5,5.9,2.7,12.51,8.82,13.25
		c6.55,1.33,13.33-4.54,12.55-11.29C2293.66,897.93,2285.77,892.83,2279.29,895.19z"/>
	<path fill="#170600" stroke="#170600" stroke-width="0.5" d="M2017.42,890.65c9.33-2.45,19.68-1.07,27.9,4.05
		c7.48,4.48,13.18,11.82,15.66,20.18c3.19,10.41,1.4,22.26-4.95,31.13c-5.92,8.49-15.67,14.2-25.99,15.09
		c-15.19,1.69-30.69-7.52-36.47-21.65c-6.11-13.96-2.1-31.47,9.57-41.3C2007.24,894.6,2012.17,892.05,2017.42,890.65
		 M2012.41,904.57c-7.86,1.92-10.41,13.1-4.38,18.39c5.75,5.88,17.21,2.29,18.19-6C2027.99,909.27,2019.82,902.12,2012.41,904.57z"
		/>
	<path fill="#F7E8ED" stroke="#F7E8ED" stroke-width="0.5" d="M2279.29,895.19c6.48-2.36,14.37,2.74,14.24,9.79
		c0.78,6.75-6,12.62-12.55,11.29c-6.12-0.74-10.32-7.35-8.82-13.25C2272.94,899.39,2275.74,896.3,2279.29,895.19z"/>
	<path fill="#F7E8ED" stroke="#F7E8ED" stroke-width="0.5" d="M2012.41,904.57c7.41-2.45,15.58,4.7,13.81,12.39
		c-0.98,8.29-12.44,11.88-18.19,6C2002,917.67,2004.55,906.49,2012.41,904.57z"/>
	<path fill="#E6D8BD" stroke="#E6D8BD" stroke-width="0.5" d="M2574.76,923.61c6.46-0.79,12.95-1.29,19.46-1.44
		c-2.09,0.3-4.13,0.72-6.15,1.13c5.48,1.98,11.5,3.59,15.68,7.95c4.94,5.38,7.52,13.17,5.58,20.37c-5.09-5.31-8.63-11.9-13.95-17
		C2589.91,928.9,2583.47,922.37,2574.76,923.61z"/>
	<path fill="#F3E5C8" stroke="#F3E5C8" stroke-width="0.5" d="M2594.22,922.17c16.05-0.68,32.36-0.97,48.14,2.53
		c7.38,1.54,13.96,5.48,19.81,10.12c14.19,11,27.28,23.33,40.44,35.52c7.05,6.48,13.53,13.56,20.88,19.71
		c5.23,4.92,9.8,10.49,15.14,15.32c0.26,0.24,0.78,0.71,1.04,0.95c12.78,12.89,25.59,25.75,38.25,38.78
		c1.67,1.69,3.4,3.35,5.27,4.89c5.4,4.18,9.52,9.68,14.43,14.39c3.94,3.96,7.54,8.47,12.59,11.13c-0.28,0.68-0.54,1.37-0.79,2.07
		c5.25,5.46,10.08,11.5,16.28,15.95c-4.13,5.07-5.28,11.65-7.51,17.62c-10.02,28.98-19.91,58.01-30.12,86.93
		c-14-4.03-27.86-8.51-41.96-12.12c-25.14-7.72-50.54-14.56-76.02-21.04c-10.74-2.88-22.1-3.79-32.17-8.79
		c-23.11-10.87-43.52-26.52-63.53-42.19c-4.13-3.31-8.12-6.79-12.19-10.18c-4.03-3.46-9.59-3.81-14.43-5.48
		c-27.48-8.24-55.09-16.56-81.24-28.51c-4.66-2.31-9.33-4.67-13.5-7.79c-0.99-0.79-1.91-1.6-2.77-2.46
		c-2.97-4.06-4.38-9.27-2.91-14.18c2.4-8.74,8.67-15.76,15.22-21.73c2.3-1.96,4.01-4.55,4.58-7.55
		c4.09-18.64,9.19-37.09,15.77-55.02c14.08,7.02,28.53,13.5,41.47,22.57c5.94,4.05,11.27,8.97,17.57,12.51
		c-4.15-6.98-9.71-12.97-15.2-18.89c-7.45-7.19-15.83-13.96-25.82-17.15c-5.61-1.88-11.55-1.04-17.32-0.88
		c1.55-4.23,3.84-8.29,7.44-11.11c7.64-6.22,17.03-9.74,26.26-12.86c18.62-6.08,38.02-9.38,57.44-11.62
		c8.71-1.24,15.15,5.29,20.62,11.01c5.32,5.1,8.86,11.69,13.95,17c1.94-7.2-0.64-14.99-5.58-20.37c-4.18-4.36-10.2-5.97-15.68-7.95
		C2590.09,922.89,2592.13,922.47,2594.22,922.17z"/>
	<path fill="#362012" stroke="#362012" stroke-width="0.5" d="M1396.15,942.14c17.23-6.36,34.27-13.25,51.6-19.36
		c5.02,8.49,10.49,16.92,17.83,23.62c4.75,4.36,10.81,7.65,17.39,7.86c8.89,0.38,17.34-3.71,24.14-9.15
		c4.7-4.01,9.36-8.32,12.4-13.77c18.33,39.47,52.97,71.11,94.08,85.48c0.43,1.36,0.89,2.72,1.36,4.09
		c-69.71,21.19-139.54,42-209.28,63.09c80.58,26.66,161.29,52.95,241.95,79.38c21.32,6.9,42.57,14.03,63.95,20.72
		c66.14,21.91,132.49,43.18,198.79,64.61c2.36,0.79,5.05,1.56,7.29-0.05c14.91-8.36,30.35-15.83,46.34-21.91
		c31.8,39.44,63.88,78.65,95.52,118.21c-0.92,0.97-1.78,1.98-2.58,3.03c16.82,18.21,33.57,36.48,50.47,54.62
		c2.98,2.67,5.17,6.23,4.92,10.39c8.09,199.75,16.2,399.49,24.31,599.23c0.72,9.25,0.17,18.57,1.21,27.79
		c0.3,3.89,2.94,6.92,5.36,9.77c12.77,15.05,24.94,30.63,37.95,45.47c8.06-17.64,14.7-35.9,22.44-53.68
		c3.33-6.76,1.3-14.34,1.01-21.46c-13.86-200.36-27.66-400.72-41.51-601.07c-0.21-4.5-1.24-9.05-0.43-13.51
		c2.37-4.4,6.74-7.24,10.28-10.65c9.37-8.61,18.66-17.32,28.05-25.93c4.43-3.89,8.71-7.96,12.81-12.21
		c-1.54-1.85-3.09-3.68-4.67-5.45c33.85-25.82,67.32-52.14,101.03-78.13c12.19-9.58,24.65-18.83,36.66-28.63
		c14.95,6.82,28.94,15.53,42.81,24.3c9.79-12.08,22.1-21.89,35.4-29.85c14.82-9.01,30.8-15.96,47.09-21.86
		c39.43-14.04,80.79-21.91,122.26-26.85c50.33-5.96,101.14-6.88,151.73-4.32c14.1,3.61,27.96,8.09,41.96,12.12
		c-0.62,1.87-1.21,3.75-1.74,5.65c17.12,3.4,34.15,7.28,51.31,10.57c10.8-35.72,21.68-71.41,32.55-107.11
		c37.74-4.32,75.8-7,113.8-5.24c17.35,1,34.94,2.77,51.39,8.7c7.83,2.98,15.89,7.32,20.01,14.98c3.74,7.15,4.64,15.4,4.73,23.36
		c0.01,14.38-2.78,28.61-6.71,42.39c-4.56,15.28-10.28,30.49-19.29,43.76c-7.8,10.4-17.43,19.32-27.45,27.53
		c-15.6,12.68-32.83,23.11-50.23,33.08c-33.11,17.57-67.68,32.26-102.99,44.75c-41.63,14.75-84.17,26.85-127.2,36.76
		c-43.88,10-88.3,17.88-133.12,22.23c-5.86,0.57-11.73,0.92-17.55,1.69c19.3,10.58,39.03,20.39,58.38,30.9
		c68.15,36.35,135.36,74.49,200.96,115.27c57.76-40.97,115.23-82.35,173-123.3c0.95,1.02,1.93,2.06,2.93,3.14
		c22.99,25.97,45.99,51.93,68.95,77.94c0.72,0.89,1.48,1.81,2.27,2.76c-22.85,36.79-47.39,72.53-73.36,107.19
		c-20.96,27.29-42.59,54.35-68.12,77.55c-8.58,7.6-17.59,14.93-27.85,20.16c-7.71,4.09-16.8,6.45-25.4,3.93
		c-31.1-8.33-61.03-20.35-91.45-30.75c12.99,11.11,26.64,21.44,39.85,32.3c62.23,50.11,124.45,100.22,186.71,150.3
		c20.7,16.89,41.78,33.33,62.34,50.4c-1.72,3.21-3.4,6.43-5.11,9.65c-25.47,48.21-50.73,96.54-76.23,144.74
		c-3.75,7.07-7.26,14.28-11.29,21.2c-3.77-2.94-7.45-5.96-11.18-8.91c11.98-12.36,23.37-25.38,33.1-39.61
		c9.59-13.3,17.49-27.94,22.26-43.67c7.41-22.98,6.51-49.46-6.32-70.37c-17.85-30.58-39.85-59.19-67.44-81.6
		c-16.04-12.7-34.37-23.03-54.47-27.5c-17.96-4.16-37.02-3.12-54.45,2.86c-16.98,5.82-33.54,12.78-49.99,19.94
		c-24.73,10.58-49.25,21.6-73.66,32.87c-12.72-11.19-26.09-21.61-39.03-32.52c-47.47-39.21-94.95-78.41-142.42-117.62
		c-5.7-4.54-11.09-9.47-17.01-13.73c-1.38,79.25-5.89,158.43-12.75,237.4c-0.6,9.1-2.01,18.15-2.09,27.29
		c-54.38,26.36-108.76,52.71-163.02,79.3c-16.92,8.49-34,16.69-50.99,25.03c-34.04,17.04-68.45,33.33-102.31,50.72
		c-2.79,1.43-6.05,2.85-9.12,1.38c-102.95-42.38-206.34-83.75-310.22-123.83c-13.18-46.07-25.83-92.29-37.6-138.73
		c-21.25-85.55-39.73-171.89-51.54-259.29c-43.65,41.88-86.98,84.1-130.44,126.18c-29.62,28.46-58.99,57.2-88.58,85.7
		c-3.85,3.47-7.08,7.69-11.41,10.58c-5.69,1.3-11.62,0.73-17.41,1.14c-39.36,1.47-78.72,3-118.08,4.48
		c-7.17,0.37-14.36,0.24-21.5,1.04c-40.53,0.9-81.03,3.05-121.56,4.36c-58.05,2.23-116.1,4.45-174.15,6.66
		c-6.46,0.16-12.9,0.67-19.35,0.39c0.6-6.1,1.8-12.12,2.46-18.2c4.24-33.08,8.91-66.09,13.24-99.15c0.3-2.23,0.68-4.43,1.07-6.62
		c34.66-1.39,69.31-3.14,103.96-4.71c53.59-2.46,107.18-4.92,160.77-7.44c12.82-0.62,25.66-0.98,38.47-1.93
		c19.56-0.46,39.09-1.83,58.64-2.48c3.44-0.27,7.7,0.33,9.97-2.92c13.23-15.61,26.57-31.13,39.89-46.67
		c39.68-46.48,79.46-92.87,119.18-139.32c13.69-16.13,27.66-32.02,41.14-48.32c-24.08-0.12-48.14,0.46-72.21,0.58
		c-76.87,0.94-153.75,1.45-230.62,2.56c-27.79-0.11-55.58,0.63-83.37,0.71c-17.13-0.05-34.27,0.87-51.38,0.14
		c-3.49-6.38-8.64-11.62-12.89-17.47c-50.36-64.62-100.74-129.24-151.11-193.86c-25.41-32.79-51.11-65.36-76.42-98.23
		c2.82-2.26,5.69-4.45,8.57-6.64c30.88-23.89,61.84-47.68,92.76-71.51c1.8-1.39,3.62-2.76,5.46-4.1
		c22.62,26.43,44.8,53.25,67.24,79.84c49.62,59.04,99.23,118.1,148.82,177.16c1.98,2.99,5.8,2.33,8.9,2.35
		c12.28-0.51,24.58-0.78,36.88-1.13c34.8-1.09,69.61-1.83,104.41-3.11c67.69-1.69,135.37-3.72,203.05-5.71
		c-7.15-3.42-14.78-5.64-22.14-8.54c-65.75-24.3-131.37-49-196.81-74.12c-38.08-14.66-76.03-29.64-113.91-44.78
		c-21.27-8.81-42.6-17.48-63.72-26.64c-20.21-8.75-40.4-17.63-59.76-28.15c-5.98-3.39-12.49-6.86-15.87-13.14
		c-8.32-14.52-10.49-31.55-11.68-47.98c-1.36-25.79,0.45-51.69,4.31-77.2c28.47-10.96,57.06-21.62,85.56-32.5
		C1320.25,970.91,1358.19,956.51,1396.15,942.14z"/>
	<path fill="#E6D8BD" stroke="#E6D8BD" stroke-width="0.5" d="M2483.62,959.2c5.77-0.16,11.71-1,17.32,0.88
		c9.99,3.19,18.37,9.96,25.82,17.15c5.49,5.92,11.05,11.91,15.2,18.89c-6.3-3.54-11.63-8.46-17.57-12.51
		c-12.94-9.07-27.39-15.55-41.47-22.57C2483.09,960.58,2483.45,959.66,2483.62,959.2z"/>
	<path fill="#E6D8BD" stroke="#E6D8BD" stroke-width="0.5" d="M839,968.94c2.29,3.54,4.19,7.32,5.86,11.21
		c4.3,9.98,9.55,19.53,15.1,28.87c6.88,10.78,14.48,21.45,24.8,29.22c8.33,6.41,18.52,11.29,29.25,10.91
		c9.06-0.32,18.41-2.6,25.66-8.29c0.97,0.95,1.97,1.9,2.98,2.85c-5.53,5.96-13.12,9.45-21.06,10.81
		c-14.53,3.58-30.22-1.13-41.61-10.51c-8.71-7.33-16.45-15.93-22.16-25.81C849.43,1002.75,841.4,986.53,839,968.94z"/>
	<path fill="#BB8E64" stroke="#BB8E64" stroke-width="0.5" d="M952.04,972.88c30.11,8.68,61.59,12.8,92.91,11.3
		c2.91-0.07,5.89-0.43,8.78,0.16c1.73,0.76,3.08,2.15,4.46,3.43c8.01,8,16.07,15.95,24.35,23.68c2.55,2.5,5.74,4.97,6.4,8.72
		c0.76,3.51-1.08,6.85-3.47,9.29c-12.24,12.86-24.84,25.37-37.03,38.29c-6.53-8.46-14.95-15.21-22.28-22.94
		c-11.76-10.91-23.13-22.21-34.55-33.46C978.06,998.9,965.23,985.7,952.04,972.88z"/>
	<path fill="#FCDC91" stroke="#FCDC91" stroke-width="0.5" d="M2747,986.98c10.55-1.34,21.24-2.88,31.89-1.58
		c6.92,0.89,13.77,4.15,17.36,10.4c5.13,6.11,6.03,14.17,7.21,21.76c2.68,15.23,5.56,30.43,8.27,45.66
		c0.9,4.16,0.04,8.39-1.52,12.29c-5.05-2.66-8.65-7.17-12.59-11.13c-4.91-4.71-9.03-10.21-14.43-14.39
		c-1.66-9.97-3.55-19.9-5.34-29.85c-0.9-5.4-2.58-10.84-1.66-16.36c0.18-1.26,0.42-2.51,0.7-3.74c-12.9,0.34-25.58,3.15-38.26,5.33
		c-5.34-4.83-9.91-10.4-15.14-15.32C2731.25,988.52,2739.16,988.02,2747,986.98z"/>
	<path fill="#A8A494" stroke="#A8A494" stroke-width="0.5" d="M2738.63,1005.37c12.68-2.18,25.36-4.99,38.26-5.33
		c-0.28,1.23-0.52,2.48-0.7,3.74c-12.21-0.15-24.41,1.18-36.52,2.54C2739.41,1006.08,2738.89,1005.61,2738.63,1005.37z"/>
	<path fill="#EDC097" stroke="#EDC097" stroke-width="0.5" d="M2157.88,1008.88c6.22-2.29,11.24-7.46,18.08-8.06
		c2.02,6.33-0.23,13.59-5.27,17.85c-11.17,9.74-28.51,11-41.4,4.04c-6.87-3.76-12.53-11.64-10.23-19.74
		c6.53-0.02,11.77,4.36,17.79,6.25C2143.55,1011.9,2151.27,1011.85,2157.88,1008.88z"/>
	<path fill="#6D3A14" stroke="#6D3A14" stroke-width="0.5" d="M2739.67,1006.32c12.11-1.36,24.31-2.69,36.52-2.54
		c-0.92,5.52,0.76,10.96,1.66,16.36c1.79,9.95,3.68,19.88,5.34,29.85c-1.87-1.54-3.6-3.2-5.27-4.89
		C2765.26,1032.07,2752.45,1019.21,2739.67,1006.32z"/>
	<path fill="#E6D8BD" stroke="#E6D8BD" stroke-width="0.5" d="M817.38,1016.73c5.6,5.65,9.29,12.76,13.46,19.44
		c5.31,8.41,10.34,16.98,15.43,25.53c2.18,3.66,4.03,8.1,8.34,9.72c8.1,3.56,16.66,6.16,25.39,7.71c17.25,3.03,36-0.34,50.17-10.95
		c5.02-3.25,8.57-8.27,13.67-11.41c-7.58,15.77-24.01,25.85-40.75,29.36c-15.56,2.44-31.79,0.3-46.24-5.98
		c-4.78-2.16-10.59-3.79-13.15-8.81c-4.29-7.86-7.96-16.03-12.01-24.01C826.61,1037.29,821.13,1027.37,817.38,1016.73z"/>
	<path fill="#FCDC91" stroke="#FCDC91" stroke-width="0.5" d="M2394.34,1052.05c8.97,0.7,17.79,2.61,26.71,3.83
		c9.74,1.14,19.35,3.72,29.21,3.64c0.86,0.86,1.78,1.67,2.77,2.46c1.74,14.63,4.31,29.15,5.92,43.79
		c-11.5,8.32-23.49,15.94-35.11,24.08c-2.25,1.48-4.44,3.19-7.02,4.01c-2.6-0.01-4.94-1.33-7.24-2.33
		c-16.19-7.94-32.57-15.48-48.79-23.33c14.78-2.87,29.64-5.37,44.48-7.94c3.89-0.73,8.55-1.65,10.56-5.52
		c1.37-2.33,0.72-5.45-1.3-7.17c-2.83-2.64-7.02-2.21-10.51-1.71c-11.99,1.96-23.89,4.53-35.93,6.19c-0.79,0.06-2.36,0.18-3.15,0.24
		c3.9-6.71,8.95-12.63,13.49-18.89C2383.81,1066.34,2388.94,1059.1,2394.34,1052.05 M2421.45,1084.38
		c-4.81,2.43-3.87,10.86,1.61,11.66c4.51,1.13,8.71-3.96,7.12-8.2C2429.23,1084.24,2424.59,1082.33,2421.45,1084.38z"/>
	<path fill="#F7B8A9" stroke="#F7B8A9" stroke-width="0.5" d="M2194.57,1065.48c6.86-1.6,13.47-4.11,20.36-5.62
		c2.79,5.81,3.67,12.84,0.66,18.76c-4.53,9.55-14.84,14.23-24.21,17.74c-14.97,4.77-30.65,7.63-46.37,7.9
		c-10.44,0-20.75-2.01-30.84-4.44c-9.59-2.55-19.54-6.08-26.47-13.5c-5.6-5.76-6.52-15.04-2.91-22.08
		c18.68,4.7,37.95,7.15,57.22,6.96C2159.67,1071.45,2177.37,1069.53,2194.57,1065.48z"/>
	<path fill="#6D3A13" stroke="#6D3A13" stroke-width="0.5" d="M2472.44,1094.59c-1.91-8.29-4.72-16.38-5.91-24.82
		c26.15,11.95,53.76,20.27,81.24,28.51c4.84,1.67,10.4,2.02,14.43,5.48c4.07,3.39,8.06,6.87,12.19,10.18
		c-7.05,1.36-14.22,2.86-21.42,2.14c-25.58-2.54-51.16-5.1-76.74-7.57C2474.8,1103.91,2473.58,1099.25,2472.44,1094.59z"/>
	<path fill="#FCFCFC" stroke="#FCFCFC" stroke-width="0.5" d="M1069.75,1086.74c6.46-5.44,12.29-11.64,19.3-16.41
		c4.28,7.49,8.57,15,12.5,22.69c-30.92,23.83-61.88,47.62-92.76,71.51c-3.26-2.15-6.36-4.53-9.71-6.55
		c-1.39-1.54-2.67-3.16-3.96-4.77c9.32-9.07,19.43-17.28,28.95-26.13C1039.4,1113.75,1054.38,1100.03,1069.75,1086.74z"/>
	<path fill="#FCFCFC" stroke="#FCFCFC" stroke-width="0.5" d="M2818.19,1111.15c2.23-5.97,3.38-12.55,7.51-17.62
		c15.34,2.87,30.87,4.68,46.22,7.52c-0.59,2.04-1.15,4.09-1.73,6.14c-10.87,35.7-21.75,71.39-32.55,107.11
		c-17.16-3.29-34.19-7.17-51.31-10.57c0.53-1.9,1.12-3.78,1.74-5.65C2798.28,1169.16,2808.17,1140.13,2818.19,1111.15z"/>
	<path fill="#F9E709" stroke="#F9E709" stroke-width="0.5" d="M3580.33,1131.46c10.67-2.65,21.76-2.06,32.66-1.9
		c17.97,0.52,34.48,8.83,49.56,17.95c9.94,7.24,19.07,15.89,25.57,26.41c10.83,16.13,17.29,35.55,16.65,55.08
		c-0.07,8.05,0.27,16.22-1.48,24.14c-6.81,30.7-28.18,58.16-57.08,70.99c-9.35,4.3-19.46,6.63-29.5,8.61
		c-8.03,0.99-16.12,0.73-24.17,0.66c-0.13,3.84-0.24,7.68-0.48,11.53c-1.01,0.48-1.92,1.01-2.83,1.54
		c-28.96-20.61-58.03-41.06-87.08-61.53c0.25-0.72,0.73-2.16,0.98-2.88c3.17-1.02,6.07-2.71,8.9-4.49
		c-6.1-13.37-10.7-27.74-10.55-42.57c-0.43-11.55,0.68-23.2,4.29-34.22c2.97-9.62,7.92-18.46,13-27.11
		c4.03-6.97,9.99-12.49,15.34-18.42c6.98-5.49,14.05-11.02,22.07-14.93C3563.88,1136.52,3571.98,1133.51,3580.33,1131.46z"/>
	<path fill="#F3E5C8" stroke="#F3E5C8" stroke-width="0.5" d="M3368.83,1145.22c9.03-0.81,18.1-1.43,27.18-1.23
		c7.1,0.24,14.58,0.58,21.01,3.97c3.55,1.76,4.75,5.79,5.75,9.34c3.36,12.69,9.1,24.71,11.12,37.76c0.99,6.48,1.09,13.35-1.39,19.54
		c-2.54,6.27-7.75,11.07-13.55,14.33c-8.43,4.74-17.99,6.76-27.37,8.67c-45.75,9.51-91.63,18.46-137.59,26.92
		c1.61,11.08,4.68,21.88,6.55,32.92c1.28,6.44,1.38,13.36,4.91,19.13c4.55,7.74,10.02,14.95,14.02,23.04
		c4.67,8.83,7.41,18.94,6.02,28.98c-2.92,21.43-5.17,42.95-7.21,64.48c0.01,4.39-3.99,6.79-7.04,9.17
		c-16.72,12.41-33.71,25.1-53.22,32.79c-11.34,4.86-23.76,1.61-35.61,1.73c1.32,2.98,3.83,6.78,1.07,9.75
		c-5.73,5.89-14.13,8.16-21.89,10.03c-20.08,3.57-40.66,0.49-60.33-4.04c-12.45-14.43-26.29-27.57-39.04-41.72
		c-7.19-6.84-13.49-14.51-20.47-21.54c-7.13-6.88-13.16-14.83-20.62-21.37c2.73-7.65,3.26-15.84,2.7-23.88
		c-0.37-13.48,0.21-26.97,1.41-40.39c2.27-24.01,6.53-47.96,14.58-70.75c9.49-26.88,24.8-52.93,48.58-69.49
		c14.29-10.12,31.2-16.3,48.55-18.45c25.65-3.43,51.28-7.17,77.03-9.81c11.11-0.47,21.65-4.28,32.43-6.66
		C3286.83,1158.87,3327.52,1149.97,3368.83,1145.22z"/>
	<path fill="#E9E9E9" stroke="#E9E9E9" stroke-width="0.5" d="M1968.19,1215.19c24.59-19.54,48.64-39.78,73.41-59.08
		c9.85,12.03,19.43,24.28,29.46,36.15c5.49,7.71,12.37,14.37,17.26,22.51c4.14,6.66,9.74,12.21,14.58,18.35
		c10.73,13.89,22.7,26.8,32.83,41.16c-25.15,23.83-50.91,47.02-76.22,70.68c-31.64-39.56-63.72-78.77-95.52-118.21
		c-1.25-1.58-2.46-3.19-3.64-4.77C1962.86,1219.61,1965.46,1217.31,1968.19,1215.19z"/>
	<path fill="#E9E9E9" stroke="#E9E9E9" stroke-width="0.5" d="M2255.76,1182.79c9.07-6.86,17.85-14.09,27.06-20.77
		c21.47,27.39,42.72,54.97,64,82.52c-12.01,9.8-24.47,19.05-36.66,28.63c-33.71,25.99-67.18,52.31-101.03,78.13
		c-23.49-25.63-47.31-50.97-70.64-76.75c18.05-12.81,34.8-27.34,52.63-40.46c14.62-12.08,30.76-22.3,44.55-35.41
		C2242.12,1193.09,2249.06,1188.09,2255.76,1182.79z"/>
	<path stroke="#000000" stroke-width="0.5" d="M2135.73,1274.28c0.9,0.06,1.82,0.15,2.76,0.27c23.33,25.78,47.15,51.12,70.64,76.75
		c1.58,1.77,3.13,3.6,4.67,5.45c-4.1,4.25-8.38,8.32-12.81,12.21c-9.39,8.61-18.68,17.32-28.05,25.93
		c-3.54,3.41-7.91,6.25-10.28,10.65c-0.81,4.46,0.22,9.01,0.43,13.51c13.85,200.35,27.65,400.71,41.51,601.07
		c0.29,7.12,2.32,14.7-1.01,21.46c-7.74,17.78-14.38,36.04-22.44,53.68c-13.01-14.84-25.18-30.42-37.95-45.47
		c-2.42-2.85-5.06-5.88-5.36-9.77c-1.04-9.22-0.49-18.54-1.21-27.79c-8.11-199.74-16.22-399.48-24.31-599.23
		c0.25-4.16-1.94-7.72-4.92-10.39c-16.9-18.14-33.65-36.41-50.47-54.62c0.8-1.05,1.66-2.06,2.58-3.03
		C2084.82,1321.3,2110.58,1298.11,2135.73,1274.28z"/>
	<path fill="#060809" stroke="#060809" stroke-width="0.5" d="M3495.32,1289.35c2.13-2.83,4.04-6.45,7.81-7.29
		c-0.25,0.72-0.73,2.16-0.98,2.88c29.05,20.47,58.12,40.92,87.08,61.53c0.91-0.53,1.82-1.06,2.83-1.54
		c-0.26,4.45-3.44,7.85-5.73,11.42c-10.47,14.55-20.64,29.31-31.1,43.86c-4.86,6.84-12.78,11.69-21.23,12.19
		c-4.55,0.44-9.06-0.44-13.46-1.4c-1.06,3.34-2.47,7.23-6.13,8.44c-3.68,1.55-7.62-0.03-10.54-2.32
		c-15.92-11.54-32.28-22.47-48.01-34.24c-0.57-3.01-1.63-6.33-0.09-9.21c1.33-2.6,4.05-3.97,6.42-5.49
		c-5.74-10.13-6.12-23.44,0.88-33.07C3473.77,1319.83,3484.61,1304.63,3495.32,1289.35 M3498.14,1293.45
		c28.48,19.67,56.48,40.02,84.95,59.69c1.33-1.92,2.64-3.86,3.92-5.82c-13.54-9.56-27.08-19.13-40.61-28.7
		c-14.87-10.24-29.33-21.07-44.35-31.06C3500.68,1289.49,3499.38,1291.45,3498.14,1293.45 M3495.21,1297.02
		c-1.15,1.63-2.33,3.25-3.23,5.02c1.66,2.65,4.68,4.03,7.13,5.89c20.32,14.31,40.63,28.63,60.92,42.99
		c5.4,3.56,10.37,7.83,16.03,10.98c2.08-0.53,2.83-3.32,4.21-4.88c-13.91-10.25-28.2-19.98-42.26-30.01
		C3523.7,1317.07,3509.69,1306.7,3495.21,1297.02 M3484.93,1311.87c28.18,20.18,56.58,40.08,84.93,60.04
		c1.29-1.89,2.6-3.79,3.93-5.68c-28.29-19.97-56.46-40.1-84.89-59.84C3487.5,1308.17,3486.22,1310.02,3484.93,1311.87
		 M3482.12,1315.83c-1.35,1.82-2.66,3.66-3.96,5.5c11.56,8.71,23.63,16.72,35.38,25.19c16.54,11.56,32.84,23.47,49.54,34.8
		c1.29-1.86,2.71-3.62,4.04-5.47c-11.96-9.12-24.57-17.37-36.74-26.2C3514.25,1338.44,3498.46,1326.72,3482.12,1315.83
		 M3471.7,1330.76c28.12,20.18,56.54,39.98,84.78,60.01c1.28-1.82,2.54-3.66,3.78-5.53c-28.07-20.24-56.54-39.93-84.71-60.03
		C3474.2,1327.02,3472.9,1328.86,3471.7,1330.76 M3465.21,1340.01c3.38,3.94,8.35,6.15,12.4,9.38
		c24.1,16.83,47.86,34.18,72.16,50.71c1.33-1.81,2.68-3.62,4.04-5.42c-11.49-8.77-23.61-16.67-35.28-25.19
		c-16.61-11.52-32.91-23.49-49.64-34.82C3467.51,1336.35,3466.09,1338.03,3465.21,1340.01 M3462.98,1344.89
		c-0.25,2.93-2.21,7.16,1.18,8.96c25.07,17.63,50.08,35.36,75.14,53c2.3-1.01,4.57-2.16,6.76-3.45
		c-12.45-9.08-25.15-17.79-37.69-26.73C3493.19,1366.15,3478.35,1355.13,3462.98,1344.89 M3463.53,1359.55
		c1.58,7.08,7.09,12.24,13.01,15.96c11.19,7.78,22.24,15.77,33.43,23.57c6.53,4.86,13.79,10.08,22.44,9.04
		c-4.81-4.51-10.55-7.82-15.81-11.72c-10.96-7.7-21.88-15.45-32.83-23.16C3476.97,1368.75,3470.76,1363.33,3463.53,1359.55
		 M3462.3,1373.2c-3.37,1.23-4.16,6.52-0.9,8.39c14.26,10.44,28.9,20.38,43.21,30.76c2.36,1.55,4.9,3.74,7.96,3.27
		c2.24-1.09,3.51-3.75,3.05-6.18c-1.7-2.38-4.3-3.84-6.58-5.52c-13.53-9.47-27.01-19-40.45-28.57
		C3466.7,1374.2,3464.6,1372.51,3462.3,1373.2z"/>
	<path fill="#4E5863" stroke="#4E5863" stroke-width="0.5" d="M3498.14,1293.45c1.24-2,2.54-3.96,3.91-5.89
		c15.02,9.99,29.48,20.82,44.35,31.06c13.53,9.57,27.07,19.14,40.61,28.7c-1.28,1.96-2.59,3.9-3.92,5.82
		C3554.62,1333.47,3526.62,1313.12,3498.14,1293.45z"/>
	<path fill="#4E5863" stroke="#4E5863" stroke-width="0.5" d="M3495.21,1297.02c14.48,9.68,28.49,20.05,42.8,29.99
		c14.06,10.03,28.35,19.76,42.26,30.01c-1.38,1.56-2.13,4.35-4.21,4.88c-5.66-3.15-10.63-7.42-16.03-10.98
		c-20.29-14.36-40.6-28.68-60.92-42.99c-2.45-1.86-5.47-3.24-7.13-5.89C3492.88,1300.27,3494.06,1298.65,3495.21,1297.02z"/>
	<path fill="#4E5863" stroke="#4E5863" stroke-width="0.5" d="M3484.93,1311.87c1.29-1.85,2.57-3.7,3.97-5.48
		c28.43,19.74,56.6,39.87,84.89,59.84c-1.33,1.89-2.64,3.79-3.93,5.68C3541.51,1351.95,3513.11,1332.05,3484.93,1311.87z"/>
	<path fill="#4E5864" stroke="#4E5864" stroke-width="0.5" d="M3482.12,1315.83c16.34,10.89,32.13,22.61,48.26,33.82
		c12.17,8.83,24.78,17.08,36.74,26.2c-1.33,1.85-2.75,3.61-4.04,5.47c-16.7-11.33-33-23.24-49.54-34.8
		c-11.75-8.47-23.82-16.48-35.38-25.19C3479.46,1319.49,3480.77,1317.65,3482.12,1315.83z"/>
	<path fill="#4F5863" stroke="#4F5863" stroke-width="0.5" d="M3471.7,1330.76c1.2-1.9,2.5-3.74,3.85-5.55
		c28.17,20.1,56.64,39.79,84.71,60.03c-1.24,1.87-2.5,3.71-3.78,5.53C3528.24,1370.74,3499.82,1350.94,3471.7,1330.76z"/>
	<path fill="#4E5863" stroke="#4E5863" stroke-width="0.5" d="M3465.21,1340.01c0.88-1.98,2.3-3.66,3.68-5.34
		c16.73,11.33,33.03,23.3,49.64,34.82c11.67,8.52,23.79,16.42,35.28,25.19c-1.36,1.8-2.71,3.61-4.04,5.42
		c-24.3-16.53-48.06-33.88-72.16-50.71C3473.56,1346.16,3468.59,1343.95,3465.21,1340.01z"/>
	<path fill="#4F5863" stroke="#4F5863" stroke-width="0.5" d="M3462.98,1344.89c15.37,10.24,30.21,21.26,45.39,31.78
		c12.54,8.94,25.24,17.65,37.69,26.73c-2.19,1.29-4.46,2.44-6.76,3.45c-25.06-17.64-50.07-35.37-75.14-53
		C3460.77,1352.05,3462.73,1347.82,3462.98,1344.89z"/>
	<path fill="#4F5863" stroke="#4F5863" stroke-width="0.5" d="M3463.53,1359.55c7.23,3.78,13.44,9.2,20.24,13.69
		c10.95,7.71,21.87,15.46,32.83,23.16c5.26,3.9,11,7.21,15.81,11.72c-8.65,1.04-15.91-4.18-22.44-9.04
		c-11.19-7.8-22.24-15.79-33.43-23.57C3470.62,1371.79,3465.11,1366.63,3463.53,1359.55z"/>
	<path fill="#535762" stroke="#535762" stroke-width="0.5" d="M3462.3,1373.2c2.3-0.69,4.4,1,6.29,2.15
		c13.44,9.57,26.92,19.1,40.45,28.57c2.28,1.68,4.88,3.14,6.58,5.52c0.46,2.43-0.81,5.09-3.05,6.18c-3.06,0.47-5.6-1.72-7.96-3.27
		c-14.31-10.38-28.95-20.32-43.21-30.76C3458.14,1379.72,3458.93,1374.43,3462.3,1373.2z"/>
	<path fill="#FCFCFC" stroke="#FCFCFC" stroke-width="0.5" d="M3021.13,1407.87c7.46,6.54,13.49,14.49,20.62,21.37
		c6.98,7.03,13.28,14.7,20.47,21.54c12.75,14.15,26.59,27.29,39.04,41.72c-7.24,4.06-14.39,8.27-21.46,12.63
		c-22.96-26.01-45.96-51.97-68.95-77.94C3014.34,1420.79,3017.98,1414.46,3021.13,1407.87z"/>
	<path fill="#FEFFFE" stroke="#FEFFFE" stroke-width="0.5" d="M806.93,1451.34c25.15-3.67,50.33-7.17,75.45-11.02
		c2.08,9.78,2.75,19.79,4.71,29.59c-24.98,4.15-50.11,7.3-75.13,11.11c-4.15,0.7-8.36,1.47-12.58,0.96
		c-0.87-9.71-2.93-19.27-3.79-28.98C799.36,1452.4,803.14,1451.83,806.93,1451.34 M850.08,1449.23c0.74,5.83,1.62,11.64,2.51,17.46
		c3.81-0.45,7.61-1,11.41-1.6c-0.83-5.61-1.44-11.26-2.48-16.82C857.87,1447.27,853.85,1449.03,850.08,1449.23 M819.44,1453.71
		c0.64,5.81,1.6,11.59,2.47,17.38c3.77-0.4,7.53-0.96,11.29-1.43c-0.52-5.91-1.61-11.75-2.35-17.62
		C827.03,1452.52,823.23,1453.08,819.44,1453.71z"/>
	<path fill="#5E5F61" stroke="#5E5F61" stroke-width="0.5" d="M850.08,1449.23c3.77-0.2,7.79-1.96,11.44-0.96
		c1.04,5.56,1.65,11.21,2.48,16.82c-3.8,0.6-7.6,1.15-11.41,1.6C851.7,1460.87,850.82,1455.06,850.08,1449.23z"/>
	<path fill="#5E5F61" stroke="#5E5F61" stroke-width="0.5" d="M819.44,1453.71c3.79-0.63,7.59-1.19,11.41-1.67
		c0.74,5.87,1.83,11.71,2.35,17.62c-3.76,0.47-7.52,1.03-11.29,1.43C821.04,1465.3,820.08,1459.52,819.44,1453.71z"/>
	<path fill="#7A9C9B" stroke="#7A9C9B" stroke-width="0.5" d="M811.96,1481.02c25.02-3.81,50.15-6.96,75.13-11.11
		c1.27-0.02,2.54,0.06,3.83,0.25c4.42,0.12,3.98,5.73,5.18,8.81c1.34,0.54,2.7,1.03,4.11,1.46c-38.07,5.69-76.2,11.09-114.31,16.59
		c1.2-0.79,2.36-1.61,3.53-2.44c-0.13-3.09-0.23-6.18-0.29-9.26c3.4-1.15,6.79-2.35,10.24-3.34
		C803.6,1482.49,807.81,1481.72,811.96,1481.02z"/>
	<path fill="#6FBEC5" stroke="#6FBEC5" stroke-width="0.5" d="M900.21,1480.43c3.37-0.42,6.75-0.82,10.15-1.04
		c1.95,10.72,3.17,21.56,4.82,32.33c2.92,20.75,6.08,41.46,9.01,62.21c3.03,23.08,7.14,46.03,9.64,69.18
		c-16.06-11.27-32.4-22.37-50.29-30.58c-8.06-3.45-16.59-6.9-25.53-6.39c-5.63,0.27-10.15,4.13-13.96,7.91
		c-15.62,16.45-27.05,36.26-39,55.4c-2.55-10.64-3.46-21.58-5.18-32.37c-1.32-10.67-3.44-21.23-4.41-31.93
		c0.95-7.49,3.66-14.64,4.41-22.17c0.7-6.73,1.27-13.98-1.65-20.29c-1.69-3.84-6.11-5.03-9.92-5.31
		c-2.54-19.76-6.13-39.38-8.26-59.17c1.95-0.4,3.9-0.8,5.86-1.19C824.01,1491.52,862.14,1486.12,900.21,1480.43z"/>
	<path fill="#F3E5C8" stroke="#F3E5C8" stroke-width="0.5" d="M788.3,1557.38c3.81,0.28,8.23,1.47,9.92,5.31
		c2.92,6.31,2.35,13.56,1.65,20.29c-0.75,7.53-3.46,14.68-4.41,22.17c-8.52,2.22-17.4,2.15-26.08,3.24
		c-7.59,0.93-15.27,1.09-22.81,2.28c-1.86,0.11-2.63,1.97-3.47,3.34c-2.79,5.26-5.25,10.69-7.88,16.04
		c11.67,17.82,23.93,35.25,35.83,52.93c4.94,7,9.46,14.29,14.61,21.15c6.31-11.65,12.81-23.19,19.39-34.68
		c11.95-19.14,23.38-38.95,39-55.4c3.81-3.78,8.33-7.64,13.96-7.91c8.94-0.51,17.47,2.94,25.53,6.39
		c17.89,8.21,34.23,19.31,50.29,30.58c1.67,1.27,3.29,2.63,4.91,4c-1.08,2.21-2.17,4.42-3.27,6.64c-2.99,5.87-6.31,11.58-9.03,17.6
		c-3.39-2.99-6.89-6.1-11.29-7.45c-12.66-4.01-26.06-3.71-39.16-4.68c-5.84-0.39-11.67,0.33-17.42,1.35
		c-3.36,10.1-5.44,20.55-8.16,30.83c-3.92,16.52-8.88,32.83-11.21,49.68c4.23-8.05,6.39-16.94,9.43-25.45
		c3.71-11.65,7.35-23.32,10.93-35.01c1.36-4.28,2.15-8.79,4.29-12.77c0.62-1.72,2.62-1.7,4.14-1.83c5.34-0.16,10.64,0.79,15.99,0.85
		c10.12,0.17,20.39,0.89,30.08,4.03c2.27,0.89,5.55,2.06,5.57,5c-0.7,2-2.01,3.72-3.22,5.46c-6.59,8.79-13,17.71-19.46,26.6
		c-4.53,6.53-9.39,12.89-13.01,20c6.31-4.71,10.78-11.26,15.91-17.12c8.8-10.21,17.24-20.72,25.92-31.03
		c4.75,3.23,9.62,6.29,14.54,9.26c5.28,3.37,10.51,6.8,15.96,9.9c-3.94,6.52-8.18,12.87-11.61,19.69
		c-4.92,9.68-10.03,19.55-11.62,30.43c7.05-5.67,11.05-13.99,15.31-21.74c4.63-8.45,7.46-17.67,10.85-26.64
		c6.67,4.12,13.42,8.14,20.42,11.7c20.15,9.2,38.19,22.24,56.52,34.53c3.36,2.26,7.59,1.38,11.4,1.49
		c-0.76,25.95-1.59,51.89-2.61,77.83c-19.15-3.16-38.09-7.5-57.16-11.07c-57.44-11.33-114.82-22.93-172.3-34
		c-16.27-3.45-32.6-6.59-48.93-9.73c-2.47-0.47-5.11-1.24-6.45-3.55c-10.59-15.78-20.93-31.73-31.54-47.49
		c-20.97-31.81-42.38-63.33-63.06-95.33c11.69-20.82,24.03-41.29,35.47-62.26c1.02-1.73,2.12-3.4,3.21-5.07
		C732.2,1557.6,760.29,1559.32,788.3,1557.38 M991.05,1723.89c2.53,3.44,5.94,6.2,8.19,9.87c2.08,3.37,0.36,7.65-2.46,10.01
		c-5.11,4.42-11.14,7.6-16.81,11.22c-6.8,4.38-14.66,8.18-22.98,7.07c-7.62-0.65-13.18-6.48-20.11-9
		c3.33,6.14,9.19,10.74,15.49,13.57c9.42,3.17,20.16,1.47,28.57-3.73c7.28-4.54,14.94-8.79,20.87-15.11
		c3.31-3.46,5.08-8.95,2.86-13.43C1001.98,1729.08,996.94,1724.93,991.05,1723.89z"/>
	<path fill="#231F20" stroke="#231F20" stroke-width="0.5" d="M3278.26,1623.33c19.44-29.51,52.81-49.33,88.05-52.15
		c-4.24,3.86-8.95,7.15-13.48,10.63c-14.23,10.78-28.41,21.6-42.65,32.35c4.87,27.89,10.4,55.67,15.33,83.56
		c27.7,11.01,55.58,21.59,83.4,32.34c22.64-16.95,45.02-34.26,67.68-51.19c-3.75-23.41-8.87-46.59-12.57-70
		c26.43,27.96,37.33,69.47,28.45,106.87c-6.84,30.13-25.89,57.29-52.14,73.65c-14.52,9.36-31.18,14.88-48.17,17.59
		c-11.78,35.92-23.31,71.92-34.98,107.87c-27.52,84.95-55,169.91-82.54,254.85c-6.12,18.87-12.23,37.75-18.36,56.62
		c-2,5.64-0.51,12.05-3.47,17.42c-4.21,7.81-12.68,12.18-21.04,14.08c-16.37,3.64-33.52,1.01-49.19-4.38
		c-17.15-5.9-33.36-15.6-45.11-29.58c-5.16-6.87-9.59-15.04-8.96-23.89c0.11-4.87,2.42-9.33,5.54-12.94
		c3.83-4.32,5.53-9.92,7.82-15.09c5.29-12.28,10.54-24.58,15.86-36.85c30.51-70.99,61.08-141.96,91.59-212.96
		c19.54-45.41,39.06-90.83,58.62-136.24c-20.59-14.97-36.46-36.43-44.06-60.78C3252.89,1691.32,3258.39,1652.76,3278.26,1623.33
		 M3188.33,2201.36c-9.41,2.48-16.38,11.88-15.82,21.64c0.18,9.36,7.34,17.85,16.38,20.05c8.83,2.4,18.79-1.91,23.49-9.68
		c4.06-6.57,4.23-15.37,0.26-22.01C3208.01,2203.07,3197.45,2198.66,3188.33,2201.36z"/>
	<path fill="#71BDC3" stroke="#71BDC3" stroke-width="0.5" d="M926.44,1671.35c2.72-6.02,6.04-11.73,9.03-17.6
		c1.91,11.72,4.26,23.43,4.84,35.32c-4.92-2.97-9.79-6.03-14.54-9.26C925.94,1676.98,926.07,1674.14,926.44,1671.35z"/>
	<path fill="#E6D9BD" stroke="#E6D9BD" stroke-width="0.5" d="M858.57,1660.57c5.75-1.02,11.58-1.74,17.42-1.35
		c13.1,0.97,26.5,0.67,39.16,4.68c4.4,1.35,7.9,4.46,11.29,7.45c-0.37,2.79-0.5,5.63-0.67,8.46c-8.68,10.31-17.12,20.82-25.92,31.03
		c-5.13,5.86-9.6,12.41-15.91,17.12c3.62-7.11,8.48-13.47,13.01-20c6.46-8.89,12.87-17.81,19.46-26.6c1.21-1.74,2.52-3.46,3.22-5.46
		c-0.02-2.94-3.3-4.11-5.57-5c-9.69-3.14-19.96-3.86-30.08-4.03c-5.35-0.06-10.65-1.01-15.99-0.85c-1.52,0.13-3.52,0.11-4.14,1.83
		c-2.14,3.98-2.93,8.49-4.29,12.77c-3.58,11.69-7.22,23.36-10.93,35.01c-3.04,8.51-5.2,17.4-9.43,25.45
		c2.33-16.85,7.29-33.16,11.21-49.68C853.13,1681.12,855.21,1670.67,858.57,1660.57z"/>
	<path fill="#E6D8BD" stroke="#E6D8BD" stroke-width="0.5" d="M956.27,1698.97c0.97,0.56,1.95,1.14,2.93,1.74
		c-3.39,8.97-6.22,18.19-10.85,26.64c-4.26,7.75-8.26,16.07-15.31,21.74c1.59-10.88,6.7-20.75,11.62-30.43
		C948.09,1711.84,952.33,1705.49,956.27,1698.97z"/>
	<path fill="#E6D8BD" stroke="#E6D8BD" stroke-width="0.5" d="M991.05,1723.89c5.89,1.04,10.93,5.19,13.62,10.47
		c2.22,4.48,0.45,9.97-2.86,13.43c-5.93,6.32-13.59,10.57-20.87,15.11c-8.41,5.2-19.15,6.9-28.57,3.73
		c-6.3-2.83-12.16-7.43-15.49-13.57c6.93,2.52,12.49,8.35,20.11,9c8.32,1.11,16.18-2.69,22.98-7.07c5.67-3.62,11.7-6.8,16.81-11.22
		c2.82-2.36,4.54-6.64,2.46-10.01C996.99,1730.09,993.58,1727.33,991.05,1723.89z"/>
	<path fill="#FCFCFC" stroke="#FCFCFC" stroke-width="0.5" d="M1048.21,1732c18.99,1.4,37.93,3.58,56.92,5.15
		c-4.33,33.06-9,66.07-13.24,99.15c-1.99,1.46-4.32,2.47-6.84,2.27c-13.45-0.12-26.89,0.58-40.33,0.41
		c0.01-4.25,0.1-8.49,0.21-12.72c1.02-25.94,1.85-51.88,2.61-77.83C1047.76,1742.95,1047.97,1737.47,1048.21,1732z"/>
	<path fill="#F3E5C8" stroke="#F3E5C8" stroke-width="0.5" d="M3155.57,1746.55c2.07-2.09,4.94-4.27,8.08-3.34
		c4.13,1.3,6.29,5.49,7.9,9.21c3.41,8.6,4.84,17.83,6.03,26.97c2.81,24.42,2.95,49.06,2.68,73.62c-0.18,25.64-1.65,51.24-3.1,76.84
		c24.03-2.66,48.02-5.98,72.16-7.72c-30.51,71-61.08,141.97-91.59,212.96c-7.99-5.03-15.37-11.18-21.18-18.64
		c-2.37-2.95-3.96-6.59-6.98-8.93c-3.57-2.12-7.65-3.11-11.47-4.6c-12.37-4.63-24.77-9.22-37.11-13.91c-4.5-1.75-9.31-2.4-14.06-2.9
		c-7.58-0.8-15.1-2.13-22.72-2.35c12.89-40.5,25.74-81.01,38.71-121.49c0.52,0.03,1.57,0.08,2.1,0.11c1.04-3.79,1.63-7.68,1.53-11.6
		c1.17-5.7,3.25-11.14,4.9-16.7c9.86-38.71,19.9-77.42,32.17-115.45c6.18-18.88,12.59-37.77,21.33-55.65
		C3147.93,1757.19,3151,1751.28,3155.57,1746.55z"/>
	<path stroke="#000000" stroke-width="0.5" d="M2853.66,1825.76c17.43-5.98,36.49-7.02,54.45-2.86c20.1,4.47,38.43,14.8,54.47,27.5
		c27.59,22.41,49.59,51.02,67.44,81.6c12.83,20.91,13.73,47.39,6.32,70.37c-4.77,15.73-12.67,30.37-22.26,43.67
		c-9.73,14.23-21.12,27.25-33.1,39.61c-34.69,35.45-74.73,65.05-115.5,93.07c-22.38,14.67-44.89,29.19-67.88,42.91
		c-35.06,21.11-70.82,41.06-106.7,60.75c-11.74,6.44-23.49,12.87-35.14,19.48c-7.39,4.02-14.98,7.65-22.49,11.42
		c-17.24,6.37-34.24,13.4-51.66,19.31c-8,2.78-16.04,5.42-24.05,8.15c-0.49,5.44-0.6,10.93-1.29,16.38
		c-13.42,42.77-27.81,85.25-41.37,127.98c-1.34,1.75-3.53,2.2-5.6,2.29c-122.41,5.62-244.84-10.06-364.43-35.37
		c-6.01-1.32-11.94,0.94-17.77,2.07c-43.19,9.21-86.52,17.8-130.1,24.9c-26.17,4.17-52.44,8-78.9,9.74
		c-16.55,0.96-33.94,1.51-49.38-5.49c-5.1-2.49-11.21-4.75-13.68-10.29c-11.02-37.22-22.44-74.33-33.54-111.52
		c-0.99-3.3-3.37-5.87-5.34-8.58c-12.49-16.31-26-32.09-42.12-44.92c-8.53-6.56-18.04-12.89-28.99-14.1
		c-7.04-0.89-14.31,1.88-18.97,7.22c-5.16,5.76-10.28,11.54-15.38,17.35c-15.45-4.82-30.18-11.68-45.3-17.42
		c-80.92-32.94-160.91-68.25-239.12-107.19c-6.07-3.16-12.55-5.77-17.75-10.32c-20.9-17.66-40.93-36.52-58.19-57.81
		c-18.08-22.32-33.48-47.84-38.87-76.4c-3.19-18.8-1.14-38.56,6.83-55.95c10.85-24.15,30.47-43.15,51.83-58.21
		c22.6-15.91,47.78-27.72,73.48-37.66c9.18-3.22,18.38-6.4,27.71-9.14c5.71-1.82,11.76-2.36,17.73-1.95
		c16.36,0.98,32.44,4.51,48.35,8.27c28.32,6.81,56.2,15.28,83.95,24.08c87.58,28.18,173.77,60.46,259.7,93.29
		c103.88,40.08,207.27,81.45,310.22,123.83c3.07,1.47,6.33,0.05,9.12-1.38c33.86-17.39,68.27-33.68,102.31-50.72
		c16.99-8.34,34.07-16.54,50.99-25.03c54.26-26.59,108.64-52.94,163.02-79.3c70.87-34.08,141.8-68.07,213.3-100.82
		c24.41-11.27,48.93-22.29,73.66-32.87C2820.12,1838.54,2836.68,1831.58,2853.66,1825.76z"/>
	<path fill="#F3E5C8" stroke="#F3E5C8" stroke-width="0.5" d="M3357.18,1914.85c21.85-0.52,43.87-0.88,65.54,2.45
		c14.58,2.65,28.88,6.64,43.06,10.92c18.49,5.78,36.68,12.91,53.43,22.75c14.89,9.25,29.49,21.29,35.49,38.35
		c6.2,18.97,9.29,39.06,8.31,59.03c-1.22,15.86-5.22,31.67-13.12,45.57c-9.02,16.29-22.78,29.63-38.48,39.49
		c-27.57,17.37-59.79,25.44-91.69,30.26c-47.92,7.49-96.71,10.21-145.08,6.03C3302.18,2084.76,3329.66,1999.8,3357.18,1914.85z"/>
	<path fill="#FCFCFC" stroke="#FCFCFC" stroke-width="0.5" d="M3003.45,2073.36c25.5-48.2,50.76-96.53,76.23-144.74
		c3.95,1.72,7.9,3.48,11.77,5.46c-1.65,5.56-3.73,11-4.9,16.7c-1.28,3.8-2.53,7.63-3.63,11.49
		c-12.97,40.48-25.82,80.99-38.71,121.49c-0.81,2.33-1.58,4.68-2.36,7.04c-9.57-3.88-18.9-8.31-28.44-12.24
		C3009.92,2077.14,3006.51,2075.52,3003.45,2073.36z"/>
	<path fill="#B3AFA2" stroke="#B3AFA2" stroke-width="0.5" d="M3086.55,1950.78c0.1,3.92-0.49,7.81-1.53,11.6
		c-0.53-0.03-1.58-0.08-2.1-0.11C3084.02,1958.41,3085.27,1954.58,3086.55,1950.78z"/>
	<path fill="#FFFFFF" d="M1726.08,2301.05c4.66-5.34,11.93-8.11,18.97-7.22c10.95,1.21,20.46,7.54,28.99,14.1
		c16.12,12.83,29.63,28.61,42.12,44.92c1.97,2.71,4.35,5.28,5.34,8.58c11.1,37.19,22.52,74.3,33.54,111.52
		c0.07,0.66,0.23,1.98,0.31,2.64c-30.06,17.94-61.3,34.07-93.93,46.81c-20.18,7.63-40.93,14.35-62.45,16.77
		c-8.63,1.08-17.38,0.36-25.97,1.77c-17.47,2.61-34.32,8.18-50.87,14.19c-20.7,7.68-40.88,16.71-60.84,26.14
		c-35.58,17.07-70.36,35.76-104.47,55.59c-12.53-6.47-24.48-14.23-35.01-23.64c-10.5-9.49-19.66-21.53-22.28-35.74
		c-2.33-11.9,0.53-24.24,6.04-34.86c7.5-14.43,18.92-26.33,30.96-37.06c25.62-22.21,55.15-39.32,85.14-54.88
		c35.1-17.86,71.4-33.34,108.46-46.64c4.14-1.48,6.68-5.28,9.63-8.29c23.79-25.66,47.48-51.39,70.94-77.35
		C1715.8,2312.59,1720.92,2306.81,1726.08,2301.05z"/>
	<path fill="#FFFFFF" d="M2633.27,2313.28c7.51-3.77,15.1-7.4,22.49-11.42c25.32,25.47,50.84,50.75,76.13,76.25
		c5.23,5.34,12.74,7.26,19.18,10.75c52.98,25.12,107.13,47.79,162.21,67.89c17.87,6.72,34.38,17.62,46.45,32.53
		c10.17,12.4,17.11,27.26,20.93,42.8c5.11,20.73,5.38,42.48,2.14,63.54c-0.6,3.33-1.07,7.06-3.64,9.55
		c-5,5.04-12.34,6.61-19.16,7.17c-16.07,1.03-32.04-2.1-47.6-5.76c-21.95-5.32-43.39-12.55-64.5-20.51
		c-34.29-13.19-68-28.06-100.2-45.79c-9.3-5.44-19.06-10.53-26.68-18.29c-3.16-3.16-7.24-5.12-11.32-6.7
		c-16.16-5.99-33.22-8.95-50.11-11.99c-47.88-7.96-96.27-12.25-144.59-16.38c-0.02-0.46-0.07-1.37-0.1-1.82
		c13.56-42.73,27.95-85.21,41.37-127.98c0.91-2.28,2.93-3.72,5.05-4.78c20.42-10.87,40.72-21.98,61.12-32.9
		C2626.1,2317.49,2629.66,2315.35,2633.27,2313.28z"/>
	<path fill="#0B0D12" stroke="#0B0D12" stroke-width="0.5" d="M701.51,616.84L701.51,616.84L701.51,616.84z"/>
	<path fill="#0B0C10" stroke="#0B0C10" stroke-width="0.5" d="M834.82,698.02c-3.18-17.41-9.34-34.27-18.18-49.61
		c-2.88-4.73-5.81-9.44-9.02-13.95c-18.01-23.93-42.68-43.01-70.95-53.15c-36.87-13.61-78.96-12.36-114.93,3.49
		c-16.47,7.01-31.25,17.4-44.51,29.35c-5.58,5.71-10.89,11.71-15.84,17.98c-19.28,25.06-30.41,56.28-31.39,87.88
		c-1.31,32.82,8.19,66.01,26.95,93.01c4.72,6.95,10.21,13.35,15.9,19.53c12.71,12.96,27.56,23.88,43.99,31.67
		c29.07,14.1,62.61,18.31,94.37,12.68c23.71-4.35,46.44-14.22,65.58-28.9c17-13.03,31.36-29.54,41.62-48.36
		c2.26-4.15,4.36-8.38,6.22-12.71C836.72,759.16,840.16,727.81,834.82,698.02z M799.17,739.03c-0.73,5.06-1.55,10.12-2.78,15.1
		c-2.01,7.53-4.63,14.92-8.05,21.94c-1.14,2.4-2.39,4.74-3.7,7.06c-4.11,6.97-8.79,13.61-14.16,19.68
		c-3.75,4.14-7.8,8.01-12.09,11.58c-4.91,4.36-10.36,8.07-15.98,11.44c-9.26,5.35-19.2,9.57-29.6,12.1
		c-2.43,0.68-4.89,1.21-7.36,1.7c-6.26,1.14-12.6,1.89-18.97,2.03c-34.89,1.13-69.72-14.64-91.98-41.52
		c-5.92-7.05-11.01-14.81-15.04-23.09c-1.42-2.88-2.78-5.79-3.88-8.8c-3.61-8.95-6.02-18.39-7.13-27.97
		c-0.9-7.07-1.34-14.21-0.82-21.32c0.26-3.7,0.52-7.41,1.13-11.07c1.39-9.74,4.24-19.21,8.05-28.25c1.18-2.73,2.4-5.44,3.8-8.05
		c1.25-2.34,2.52-4.66,3.89-6.92c2.06-3.31,4.33-6.48,6.61-9.63c13.06-18,32.12-31.21,52.92-38.77c0.06,0.05,0.12,0.11,0.19,0.16
		c12.62-4.75,26.29-7.36,40.58-7.36c35.45,0,67.16,16.01,88.28,41.2c5.799,6.899,10.789,14.478,14.848,22.607
		c-0.069,0.072-0.14,0.141-0.208,0.213c3.42,6.71,6.28,13.72,8.04,21.06c2.14,7.8,3.51,15.8,4.2,23.86
		C800.39,725.02,800.26,732.08,799.17,739.03z"/>
</g>
</svg>
