<svg height="512pt" viewBox="-1 0 512 512.00136" width="512pt" xmlns="http://www.w3.org/2000/svg"><path d="m342.691406.703125c-2.875-1.292969-6.238281-.7734375-8.59375 1.316406l-69.726562 61.980469h-137.917969l-69.726563-61.980469c-5.058593-4.496093-13.3125-.773437-13.3125 5.980469v64c0 170.457031 11.160157 285.320312 34.117188 351.152344 20.867188 59.828125 48.429688 72.40625 72.75 83.507812 3.328125 1.519532 6.472656 2.957032 9.554688 4.496094 1.109374.554688 2.335937.84375 3.578124.84375h64c1.242188 0 2.464844-.289062 3.578126-.84375 3.078124-1.539062 6.226562-2.976562 9.554687-4.496094 24.320313-11.101562 51.882813-23.679687 72.746094-83.507812 22.960937-65.832032 34.121093-180.695313 34.121093-351.152344v-64c0-3.148438-1.851562-6.007812-4.722656-7.296875zm0 0" fill="#f3f7d7"/><path d="m267.945312 490.660156c-3.328124 1.519532-6.476562 2.957032-9.554687 4.496094-1.113281.554688-2.335937.84375-3.578125.84375h-64c-1.242188 0-2.46875-.289062-3.578125-.84375-3.082031-1.539062-6.226563-2.976562-9.558594-4.496094-24.316406-11.101562-51.878906-23.679687-72.746093-83.507812-22.957032-65.832032-34.117188-180.695313-34.117188-351.152344v-41.460938l-14.085938-12.519531c-5.058593-4.496093-13.3125-.773437-13.3125 5.980469v64c0 170.457031 11.160157 285.320312 34.117188 351.152344 20.867188 59.828125 48.429688 72.40625 72.75 83.507812 3.328125 1.519532 6.472656 2.957032 9.554688 4.496094 1.109374.554688 2.335937.84375 3.578124.84375h64c1.242188 0 2.464844-.289062 3.578126-.84375 3.078124-1.539062 6.226562-2.976562 9.554687-4.496094 10-4.5625 20.546875-9.378906 30.953125-17.625-1.191406.546875-2.378906 1.089844-3.554688 1.625zm0 0" fill="#e8f0af"/><path d="m342.691406.703125c-2.875-1.292969-6.238281-.7734375-8.59375 1.316406l-69.726562 61.980469h-137.917969l-69.726563-61.980469c-5.058593-4.496093-13.3125-.773437-13.3125 5.980469v64c0 170.457031 11.160157 285.320312 34.117188 351.152344 13.410156 38.441406 29.582031 57.378906 45.882812 68.945312v-76.097656c0-31.285156 7.03125-60.820312 19.796876-83.164062 13.574218-23.753907 32.113281-36.835938 52.203124-36.835938 20.085938 0 38.625 13.082031 52.199219 36.835938 12.769531 22.34375 19.800781 51.878906 19.800781 83.164062v76.097656c16.296876-11.570312 32.472657-30.503906 45.878907-68.945312 22.957031-65.832032 34.121093-180.695313 34.121093-351.152344v-64c0-3.148438-1.851562-6.007812-4.722656-7.296875zm0 0" fill="#d0e05e"/><path d="m70.8125 56v-41.460938l-14.085938-12.519531c-5.058593-4.496093-13.3125-.773437-13.3125 5.980469v64c0 170.457031 11.160157 285.320312 34.117188 351.152344 13.410156 38.441406 29.582031 57.378906 45.882812 68.945312v-45.433594c-6.527343-10.246093-12.757812-23.097656-18.480468-39.511718-22.960938-65.832032-34.121094-180.695313-34.121094-351.152344zm0 0" fill="#c4d936"/><path d="m385.023438 297.441406c-9.015626-24.609375-27.816407-39.320312-52.945313-41.414062-17.75-1.480469-31.832031 4.097656-41.847656 16.570312-17.738281 22.09375-21.402344 65.769532-10.882813 129.808594 7.636719 46.507812 19.90625 86.292969 20.425782 87.964844 1.75 5.636718 9.113281 7.46875 13.296874 3.285156 31.59375-31.59375 54.992188-67.839844 67.667969-104.828125 11.769531-34.34375 13.292969-66.800781 4.285157-91.386719zm0 0" fill="#f7ad7d"/><path d="m385.023438 297.441406c-5.09375-13.910156-13.320313-24.65625-24.042969-31.75 3.195312 4.691406 5.890625 9.96875 8.03125 15.808594 9.007812 24.585938 7.484375 57.042969-4.285157 91.386719-12.675781 36.988281-36.074218 73.238281-67.667968 104.828125-.246094.246094-.503906.46875-.773438.675781 1.988282 7.125 3.324219 11.453125 3.488282 11.980469 1.75 5.636718 9.113281 7.472656 13.296874 3.289062 31.59375-31.59375 54.992188-67.84375 67.667969-104.828125 11.769531-34.347656 13.292969-66.804687 4.285157-91.390625zm0 0" fill="#f5985d"/><g fill="#fbd6be"><path d="m318.8125 328c-4.417969 0-8-3.582031-8-8v-16c0-4.417969 3.582031-8 8-8s8 3.582031 8 8v16c0 4.417969-3.582031 8-8 8zm0 0"/><path d="m350.8125 336c-4.417969 0-8-3.582031-8-8v-8c0-4.417969 3.582031-8 8-8s8 3.582031 8 8v8c0 4.417969-3.582031 8-8 8zm0 0"/><path d="m334.8125 376c-4.417969 0-8-3.582031-8-8v-16c0-4.417969 3.582031-8 8-8s8 3.582031 8 8v16c0 4.417969-3.582031 8-8 8zm0 0"/><path d="m310.8125 408c-4.417969 0-8-3.582031-8-8v-24c0-4.417969 3.582031-8 8-8s8 3.582031 8 8v24c0 4.417969-3.582031 8-8 8zm0 0"/><path d="m334.8125 432c-4.417969 0-8-3.582031-8-8v-16c0-4.417969 3.582031-8 8-8s8 3.582031 8 8v16c0 4.417969-3.582031 8-8 8zm0 0"/></g><path d="m100.59375 272.597656c-10.015625-12.472656-24.09375-18.050781-41.84375-16.570312-25.128906 2.09375-43.933594 16.804687-52.949219 41.414062-9.003906 24.585938-7.484375 57.042969 4.289063 91.390625 12.675781 36.984375 36.074218 73.234375 67.667968 104.828125 4.183594 4.183594 11.546876 2.347656 13.296876-3.289062.519531-1.667969 12.785156-41.457032 20.425781-87.960938 10.515625-64.042968 6.855469-107.71875-10.886719-129.8125zm0 0" fill="#f7ad7d"/><path d="m32.898438 381.035156c-11.769532-34.347656-13.292969-66.800781-4.285157-91.390625 5.453125-14.894531 14.5-26.152343 26.359375-33.191406-23.234375 3.195313-40.613281 17.625-49.171875 40.988281-9.007812 24.585938-7.484375 57.042969 4.285157 91.386719 12.679687 36.988281 36.078124 73.234375 67.667968 104.828125 4.1875 4.1875 11.550782 2.351562 13.296875-3.285156.15625-.5 1.378907-4.464844 3.210938-10.996094-28.40625-30.023438-49.546875-63.859375-61.363281-98.339844zm0 0" fill="#f5985d"/><path d="m70.8125 320c-4.417969 0-8-3.582031-8-8v-16c0-4.417969 3.582031-8 8-8s8 3.582031 8 8v16c0 4.417969-3.582031 8-8 8zm0 0" fill="#fbd6be"/><path d="m38.8125 328c-4.417969 0-8-3.582031-8-8v-8c0-4.417969 3.582031-8 8-8s8 3.582031 8 8v8c0 4.417969-3.582031 8-8 8zm0 0" fill="#fbd6be"/><path d="m54.8125 376c-4.417969 0-8-3.582031-8-8v-24c0-4.417969 3.582031-8 8-8s8 3.582031 8 8v24c0 4.417969-3.582031 8-8 8zm0 0" fill="#fbd6be"/><path d="m78.8125 384c-4.417969 0-8-3.582031-8-8v-16c0-4.417969 3.582031-8 8-8s8 3.582031 8 8v16c0 4.417969-3.582031 8-8 8zm0 0" fill="#fbd6be"/><path d="m62.8125 424c-4.417969 0-8-3.582031-8-8v-8c0-4.417969 3.582031-8 8-8s8 3.582031 8 8v8c0 4.417969-3.582031 8-8 8zm0 0" fill="#fbd6be"/><path d="m241.558594 170.878906-40-48c-1.519532-1.824218-3.773438-2.878906-6.144532-2.878906-2.375 0-4.628906 1.054688-6.148437 2.878906l-40 48c-1.964844 2.359375-2.40625 5.636719-1.136719 8.433594l40 88c2.785156 6.125 11.78125 6.125 14.566406 0l40-88c1.269532-2.796875.828126-6.074219-1.136718-8.433594zm0 0" fill="#f7ad7d"/><path d="m115.414062 48c-48.523437 0-88 39.476562-88 88s39.476563 88 88 88c48.523438 0 88-39.476562 88-88s-39.476562-88-88-88zm0 0" fill="#ffdb7e"/><path d="m115.414062 72c-35.292968 0-64 28.710938-64 64s28.707032 64 64 64c35.289063 0 64-28.710938 64-64s-28.710937-64-64-64zm0 0" fill="#f4f0f9"/><path d="m134.8125 184c-35.289062 0-64-28.710938-64-64 0-15.316406 5.414062-29.390625 14.421875-40.417969-20.113281 10.800781-33.820313 32.035157-33.820313 56.417969 0 35.289062 28.707032 64 64 64 19.96875 0 37.828126-9.199219 49.574219-23.578125-8.996093 4.832031-19.269531 7.578125-30.175781 7.578125zm0 0" fill="#e8e2f3"/><path d="m131.414062 144h-32c-4.417968 0-8-3.582031-8-8s3.582032-8 8-8h32c4.417969 0 8 3.582031 8 8s-3.582031 8-8 8zm0 0" fill="#f9c19e"/><path d="m275.414062 48c-48.523437 0-88 39.476562-88 88s39.476563 88 88 88c48.523438 0 88-39.476562 88-88s-39.476562-88-88-88zm0 0" fill="#ffdb7e"/><path d="m275.414062 72c-35.292968 0-64 28.710938-64 64s28.707032 64 64 64c35.289063 0 64-28.710938 64-64s-28.710937-64-64-64zm0 0" fill="#f4f0f9"/><path d="m294.8125 184c-35.289062 0-64-28.710938-64-64 0-15.316406 5.414062-29.390625 14.421875-40.417969-20.113281 10.800781-33.820313 32.035157-33.820313 56.417969 0 35.289062 28.707032 64 64 64 19.96875 0 37.828126-9.199219 49.574219-23.578125-8.996093 4.832031-19.269531 7.578125-30.175781 7.578125zm0 0" fill="#e8e2f3"/><path d="m291.414062 144h-32c-4.417968 0-8-3.582031-8-8s3.582032-8 8-8h32c4.417969 0 8 3.582031 8 8s-3.582031 8-8 8zm0 0" fill="#f9c19e"/><path d="m390.8125 248h-32c-6.5625 0-10.359375-7.855469-6.246094-12.996094l21.601563-27.003906h-15.355469c-4.417969 0-8-3.582031-8-8s3.582031-8 8-8h32c6.5625 0 10.359375 7.855469 6.246094 13l-21.601563 27h15.355469c4.417969 0 8 3.582031 8 8s-3.582031 8-8 8zm0 0" fill="#fce0ce"/><path d="m446.8125 216h-32c-6.5625 0-10.359375-7.855469-6.246094-12.996094l21.601563-27.003906h-15.355469c-4.417969 0-8-3.582031-8-8s3.582031-8 8-8h32c6.5625 0 10.359375 7.855469 6.246094 13l-21.601563 27h15.355469c4.417969 0 8 3.582031 8 8s-3.582031 8-8 8zm0 0" fill="#fce0ce"/><path d="m502.8125 184h-32c-6.5625 0-10.359375-7.855469-6.246094-12.996094l21.601563-27.003906h-15.355469c-4.417969 0-8-3.582031-8-8s3.582031-8 8-8h32c6.5625 0 10.359375 7.855469 6.246094 13l-21.601563 27h15.355469c4.417969 0 8 3.582031 8 8s-3.582031 8-8 8zm0 0" fill="#fce0ce"/></svg>