<?xml version="1.0" encoding="UTF-8" standalone="no"?>
<!-- Generator: Adobe Illustrator 16.0.0, SVG Export Plug-In . SVG Version: 6.00 Build 0)  -->

<svg
   xmlns:dc="http://purl.org/dc/elements/1.1/"
   xmlns:cc="http://creativecommons.org/ns#"
   xmlns:rdf="http://www.w3.org/1999/02/22-rdf-syntax-ns#"
   xmlns:svg="http://www.w3.org/2000/svg"
   xmlns="http://www.w3.org/2000/svg"
   xmlns:xlink="http://www.w3.org/1999/xlink"
   xmlns:sodipodi="http://sodipodi.sourceforge.net/DTD/sodipodi-0.dtd"
   xmlns:inkscape="http://www.inkscape.org/namespaces/inkscape"
   version="1.1"
   id="Layer_1"
   x="0px"
   y="0px"
   width="330px"
   height="360px"
   viewBox="0 0 330 360"
   enable-background="new 0 0 330 360"
   xml:space="preserve"
   inkscape:version="0.48.2 r9819"
   sodipodi:docname="zzz.svg"><metadata
   id="metadata97"><rdf:RDF><cc:Work
       rdf:about=""><dc:format>image/svg+xml</dc:format><dc:type
         rdf:resource="http://purl.org/dc/dcmitype/StillImage" /><dc:title></dc:title></cc:Work></rdf:RDF></metadata><defs
   id="defs95" /><sodipodi:namedview
   pagecolor="#ffffff"
   bordercolor="#666666"
   borderopacity="1"
   objecttolerance="10"
   gridtolerance="10"
   guidetolerance="10"
   inkscape:pageopacity="0"
   inkscape:pageshadow="2"
   inkscape:window-width="1153"
   inkscape:window-height="726"
   id="namedview93"
   showgrid="false"
   inkscape:zoom="1.1575153"
   inkscape:cx="65.649265"
   inkscape:cy="177.41325"
   inkscape:window-x="481"
   inkscape:window-y="130"
   inkscape:window-maximized="0"
   inkscape:current-layer="layer2"
   borderlayer="true"
   inkscape:showpageshadow="false" />



























<g
   inkscape:groupmode="layer"
   id="layer1"
   inkscape:label="main-cartoon"
   style="display:inline"><g
     style="display:inline"
     id="g3035"><g
       id="g3">
	<g
   id="g5">
		<path
   id="path7"
   d="m 162.601,218.398 c -0.498,1.147 -0.941,2.224 -1.18,3.449 -0.104,0.53 -0.195,1.055 -0.324,1.579 0.098,-0.398 1.212,-0.941 0.492,-0.658 -5.021,1.972 -4.661,9.821 1.329,9.821 4.444,0 8.889,0 13.333,0 3.912,0 6.068,-4.213 4.317,-7.523 -3.193,-6.037 -8.621,-8.687 -14.988,-10.298 -6.254,-1.583 -8.907,8.061 -2.658,9.643 3.974,1.006 7.02,1.937 9.012,5.702 1.439,-2.508 2.878,-5.016 4.317,-7.523 -4.444,0 -8.889,0 -13.333,0 0.443,3.273 0.886,6.548 1.329,9.821 2.401,-0.943 4.12,-2.013 5.598,-4.176 0.99,-1.45 0.848,-3.537 1.391,-4.79 1.085,-2.5 0.765,-5.342 -1.794,-6.841 -2.138,-1.251 -5.756,-0.708 -6.841,1.794 l 0,0 z"
   inkscape:connector-curvature="0"
   style="fill:#ffd440" />
	</g>
</g><g
       id="g9">
	<g
   id="g11">
		<path
   id="path13"
   d="m 83.43,226.261 c -1.227,8.484 -0.543,16.66 4.504,23.853 0.261,-2.02 0.521,-4.039 0.782,-6.059 -3.068,3.1 -5.066,5.774 -5.464,10.201 -0.212,2.354 1.718,4.056 3.671,4.821 8.909,3.492 21.077,12.509 15.679,23.321 3.106,0.841 6.211,1.683 9.317,2.523 0,-2.222 0,-4.444 0,-6.666 0,-4.756 -7.061,-7.121 -9.317,-2.523 -3.585,7.306 -6.228,15.158 -8.271,23.021 -2.172,8.356 -4.191,18.525 -1.026,26.887 2.379,6.286 7.322,7.942 13.137,10.13 7.897,2.971 15.946,5.556 23.979,8.13 6.171,1.978 12.353,3.983 18.604,5.695 5.863,1.606 12.841,0.658 18.779,0.1 18.887,-1.774 38.035,-5.814 55.786,-12.553 9.063,-3.44 19.496,-7.901 24.98,-16.362 -3.046,-0.398 -6.093,-0.796 -9.139,-1.194 0.414,1.267 1.017,2.68 1.153,4.005 3.273,-0.443 6.548,-0.886 9.821,-1.329 -2.904,-11.438 -6.534,-22.665 -9.863,-33.982 -1.61,-5.472 -3.411,-10.95 -3.754,-16.666 -0.313,-5.205 0.452,-10.256 1.672,-15.298 0.668,-2.764 0.924,-5.086 3.248,-6.84 2.051,-1.547 4.3,-2.867 5.991,-4.832 4.944,-5.743 2.012,-12.783 -1.798,-18.244 -1.695,-2.431 -4.186,-2.968 -6.841,-1.794 -12.532,5.538 -24.593,12.09 -37.288,17.268 -12.481,5.091 -26.635,9.781 -40.143,6.486 -11.892,-2.899 -22.162,-10.297 -32.689,-16.203 -11.406,-6.399 -23.499,-10.725 -36.689,-10.899 -2.722,-0.036 -5.004,2.302 -5,5 0.012,7.034 0.642,13.879 4.683,19.857 2.66,3.936 9.427,2.722 9.317,-2.523 -0.159,-7.582 -2.282,-14.61 -6.016,-21.191 -2.618,2.02 -5.235,4.039 -7.853,6.059 6.928,7.302 9.271,17.423 10.536,27.133 2.845,-1.179 5.69,-2.357 8.536,-3.535 -1.777,-1.778 -3.556,-3.556 -5.333,-5.334 -4.563,-4.565 -11.616,2.489 -7.071,7.07 6.884,6.938 12.512,14.14 10.714,24.47 3.274,0.443 6.547,0.886 9.821,1.329 0.042,-8.962 0.674,-17.905 0.468,-26.871 -0.18,-7.827 -0.697,-16.921 -5.151,-23.652 -1.882,2.448 -3.764,4.896 -5.646,7.345 9.203,2.756 7.229,16.439 6.543,23.697 -0.939,9.94 -3.632,20.151 -2.035,30.143 0.775,4.85 8.767,4.735 9.643,0 1.569,-8.484 1.29,-17.223 1.663,-25.81 0.371,-8.535 0.593,-19.737 6.384,-26.65 -2.845,-1.178 -5.69,-2.356 -8.536,-3.535 -1.367,13.743 -2.608,27.513 -2.667,41.334 -0.023,5.495 8.94,7.016 9.821,1.329 1.664,-10.739 5.389,-21.076 10.163,-30.806 -3.106,-0.841 -6.211,-1.683 -9.317,-2.523 0,16.444 0,32.888 0,49.332 0,6.082 7.757,6.227 9.821,1.329 3.026,-7.181 3.199,-15.029 3.301,-22.71 0.097,-7.319 -0.202,-15.773 4.747,-21.75 -2.786,-0.735 -5.571,-1.471 -8.357,-2.206 5.162,16.376 2.571,33.816 2.488,50.671 -0.032,6.547 9.431,6.314 10,0 1.373,-15.234 5.175,-30.112 6.667,-45.334 -3.333,0 -6.667,0 -10,0 1.447,13.185 5.25,25.774 8.179,38.663 1.34,5.897 9.27,3.927 9.821,-1.329 1.228,-11.698 -1.377,-23.367 -4.179,-34.663 -1.164,2.05 -2.328,4.101 -3.492,6.15 7.925,-1.116 6.561,31.696 7.004,36.513 3.333,0 6.667,0 10,0 -0.887,-8.361 -7.075,-28.953 4.329,-32.513 -2.05,-2.05 -4.101,-4.101 -6.15,-6.15 -1.557,10.539 -4.119,21.298 -2.846,31.997 0.646,5.422 8.036,7.028 9.821,1.329 3.573,-11.405 2.657,-24.29 8.83,-34.806 -3.105,-0.841 -6.212,-1.683 -9.317,-2.523 1.113,12.553 -2.183,24.985 1.512,37.329 1.604,5.36 9.872,4.407 9.821,-1.329 -0.088,-9.876 -2.821,-22.736 3.868,-31.133 -2.785,-0.735 -5.571,-1.471 -8.356,-2.206 1.409,8.527 2.699,17.078 5.334,25.334 1.688,5.292 9.867,4.457 9.821,-1.329 -0.063,-7.928 -1.405,-16.692 1.983,-24.143 -2.878,0 -5.757,0 -8.635,0 4.061,7.25 4.839,16.068 6.163,24.138 0.997,6.075 9.186,3.736 9.821,-1.329 1.254,-9.993 2.883,-19.656 8.65,-28.143 -3.046,-0.398 -6.093,-0.796 -9.139,-1.194 1.282,7.676 2.562,15.361 5.334,22.666 1.851,4.878 10.454,4.682 9.821,-1.329 -0.788,-7.486 1.436,-15.601 4.051,-22.53 1.062,-2.815 2.688,-6.457 5.25,-8.208 2.072,-1.417 4.488,1.598 6.163,3.607 0.735,-2.785 1.471,-5.571 2.206,-8.356 -10.005,3.684 -18.593,9.562 -22.747,19.711 -3.904,9.539 -3.588,20.322 -3.59,30.444 3.273,-0.443 6.548,-0.886 9.821,-1.329 -2.256,-6.604 -2.198,-13.383 -3.338,-20.189 -1.219,-7.285 -6.075,-12.546 -12.293,-16.133 -3.007,-1.735 -6.198,0.004 -7.345,2.988 -4.488,11.687 -0.612,26.254 4,37.324 2.05,4.92 9.818,4.735 9.821,-1.329 0.004,-6.256 0.029,-12.497 1.154,-18.671 -3.273,-0.443 -6.548,-0.886 -9.821,-1.329 -0.064,12.072 -1.185,24.382 2.846,35.997 1.576,4.542 8.258,4.985 9.643,0 3.76,-13.537 1.584,-27.832 5.333,-41.334 -2.785,0.735 -5.571,1.471 -8.356,2.206 2.325,2.494 3.35,6.486 4.336,9.699 1.76,5.731 2.961,11.64 4.126,17.514 2.104,10.613 3.472,21.448 6.252,31.915 1.089,4.1 7.065,5.028 9.139,1.194 5.146,-9.519 2.895,-20.235 -2.666,-29.047 -2.296,-3.639 -7.923,-3.061 -9.139,1.194 -2.668,9.333 -5.334,18.666 -8,28 2.785,-0.735 5.571,-1.471 8.356,-2.206 -7.689,-8.22 -7.824,-21.893 -7.869,-32.465 -0.028,-6.635 -9.214,-6.202 -10,0 -1.212,9.558 2.954,19.082 8.683,26.523 2.842,3.692 9.318,2.906 9.317,-2.523 -0.002,-8.922 -0.15,-17.812 -1.333,-26.668 -0.663,-4.968 -6.246,-6.778 -9.317,-2.523 -8.394,11.629 -11.23,25.736 -11.35,39.857 3.333,0 6.667,0 10,0 -0.187,-14.592 -4.032,-28.772 -8.179,-42.663 -1.386,-4.642 -8.39,-4.907 -9.643,0 -3.622,14.187 -1.621,28.251 -1.512,42.663 3.273,-0.443 6.548,-0.886 9.821,-1.329 -2.524,-13.232 -2.809,-26.763 -5.334,-40 -1.038,-5.44 -7.967,-4.035 -9.643,0 -5.952,14.331 -3.194,31.975 0,46.658 3.046,-1.284 6.093,-2.568 9.139,-3.853 -7.154,-11.952 -8.834,-26.702 -11.496,-40.14 -0.998,-5.04 -8.338,-4.514 -9.643,0 -4.496,15.546 -5.896,34.431 1.838,49.187 2.604,4.97 11.122,1.498 9.139,-3.853 -4.821,-13.011 -2.018,-27.275 -8.504,-39.86 -1.802,-3.495 -6.711,-2.987 -8.635,0 -8.223,12.769 0.34,31.381 8,42.379 2.26,3.245 8.209,3.409 9.139,-1.194 1.139,-5.639 0.454,-10.576 -1.334,-15.99 -0.862,-2.61 -3.413,-4.21 -6.15,-3.492 -14.748,3.865 -18.555,19.456 -15.492,32.816 1.164,-2.05 2.328,-4.101 3.492,-6.15 -7.062,1.09 -14.207,1.152 -21.337,1.155 1.607,1.224 3.214,2.447 4.821,3.671 -2.572,-11.983 -3.951,-26.924 3.496,-37.481 -2.878,0 -5.756,0 -8.635,0 3.908,6.76 6.367,14.096 8.829,21.472 3.214,-0.886 6.428,-1.772 9.643,-2.658 -4.002,-10.861 -6.811,-22.049 -9.333,-33.332 -1.214,-5.43 -10.567,-4.296 -9.821,1.329 1.735,13.085 7.85,24.101 16.13,34.201 2.924,3.567 8.431,0.46 8.536,-3.535 0.141,-5.382 1.207,-10.682 -0.179,-15.995 -3.214,0.886 -6.429,1.772 -9.643,2.658 2.542,7.913 4.125,16.087 6.667,24 2.785,-1.621 5.571,-3.243 8.356,-4.864 -10.174,-11.696 -14.553,-29.409 -10.714,-44.47 -3.046,0.398 -6.092,0.796 -9.139,1.194 4.08,6.945 15.601,18.782 9.333,26.953 2.617,-0.338 5.235,-0.675 7.853,-1.012 -10.333,-9.318 -16.976,-22.07 -28,-30.666 -4.021,-3.135 -9.216,-0.287 -8.357,4.864 1.585,9.508 5.156,18.563 8.474,27.568 3.168,8.598 7.152,17.812 7.347,27.103 3.106,-0.841 6.211,-1.683 9.317,-2.523 -5.687,-12.291 -0.516,-26.332 1.838,-38.815 -3.274,-0.443 -6.547,-0.886 -9.821,-1.329 0.067,11.617 1.237,23.15 2.666,34.668 3.106,-0.841 6.212,-1.683 9.317,-2.523 -7.791,-16.61 -20.268,-33.142 -20.65,-52.145 -0.13,-6.438 -10.022,-6.456 -10,0 0.049,14.159 1.466,28.66 -1.154,42.671 3.214,0 6.428,0 9.643,0 -3.812,-10.779 -4.058,-22.273 -6.667,-33.332 -1.114,-4.721 -8.613,-4.852 -9.643,0 -2.446,11.519 2.181,21.945 2.488,33.329 3.106,-0.841 6.211,-1.683 9.317,-2.523 -7.218,-13.777 -7.757,-29.625 -12.83,-44.14 -1.17,-3.35 -5.662,-5.168 -8.357,-2.206 -8.19,9 -6.857,21.576 -6.797,32.869 3.333,0 6.667,0 10,0 -0.106,-7.178 -1.167,-14.356 -2.846,-21.329 -0.932,-3.869 -5.656,-4.576 -8.357,-2.206 -8.179,7.177 -9.442,18.686 -7.952,28.864 0.168,-1.284 0.336,-2.568 0.504,-3.853 -1.441,3.065 -2.561,6.268 -4,9.332 3.106,0.841 6.211,1.683 9.317,2.523 -0.163,-3.604 -1.172,-7.076 -1.334,-10.666 -3.333,0 -6.667,0 -10,0 0.84,8.641 4.678,15.506 12.741,19.23 7.696,3.555 16.378,3.914 24.264,6.925 2.572,0.982 5.449,-1.065 6.15,-3.492 4.286,-14.831 -7.479,-24.56 -18.298,-32.314 -4.087,-2.93 -9.539,2.782 -6.841,6.841 3.399,5.112 9.434,12.425 6.666,18.953 2.28,-0.598 4.561,-1.196 6.841,-1.794 -6.526,-3.01 -11.924,-8.102 -12.189,-15.683 -2.845,1.179 -5.69,2.357 -8.536,3.535 3.25,4.132 8.808,5.277 12,9.334 2.098,2.667 6.27,1.423 7.853,-1.012 7.884,-12.12 12.062,-28.76 24.872,-36.872 -2.28,-0.598 -4.561,-1.196 -6.841,-1.794 3.564,5.185 4.254,11.579 2.163,17.479 -2.16,6.094 7.504,8.692 9.643,2.658 2.896,-8.17 1.758,-18.015 -3.171,-25.185 -1.499,-2.181 -4.413,-3.331 -6.841,-1.794 -14.747,9.338 -19.415,26.555 -28.46,40.46 2.618,-0.338 5.235,-0.675 7.853,-1.012 -3.25,-4.132 -8.809,-5.277 -12,-9.334 -2.754,-3.502 -8.677,-0.522 -8.536,3.535 0.384,10.991 7.333,19.793 17.143,24.317 2.216,1.021 5.707,0.882 6.841,-1.794 4.608,-10.87 -0.611,-19.941 -6.666,-29.047 -2.28,2.28 -4.561,4.561 -6.841,6.841 6.886,4.937 16.514,11.292 13.702,21.021 2.05,-1.164 4.1,-2.328 6.15,-3.492 -10.027,-3.828 -28.31,-2.59 -29.663,-16.513 -0.612,-6.3 -10.294,-6.53 -10,0 0.163,3.604 1.172,7.076 1.334,10.666 0.207,4.587 7.065,7.318 9.317,2.523 1.25,-2.662 2.27,-5.414 3.428,-8.115 1.234,-2.878 1.042,-4.625 0.833,-7.697 -0.413,-6.047 0.936,-12.394 5.624,-16.508 -2.786,-0.735 -5.571,-1.471 -8.357,-2.206 1.478,6.14 2.395,12.351 2.488,18.671 0.095,6.442 10.034,6.453 10,0 -0.042,-7.979 -2,-19.349 3.869,-25.799 -2.786,-0.735 -5.571,-1.471 -8.357,-2.206 5.383,15.402 6.161,31.876 13.838,46.528 2.315,4.419 9.45,2.368 9.317,-2.523 -0.276,-10.232 -5.02,-20.431 -2.846,-30.671 -3.214,0 -6.428,0 -9.643,0 2.609,11.059 2.855,22.553 6.667,33.332 1.504,4.255 8.659,5.261 9.643,0 2.8,-14.972 1.564,-30.202 1.512,-45.329 -3.333,0 -6.667,0 -10,0 0.424,21.045 13.393,38.805 22.016,57.191 2.046,4.362 9.926,2.385 9.317,-2.523 -1.429,-11.518 -2.6,-23.051 -2.666,-34.668 -0.031,-5.502 -8.752,-7.001 -9.821,-1.329 -2.961,15.701 -7.924,31.188 -0.83,46.521 2.138,4.621 9.417,2.221 9.317,-2.523 -0.42,-20 -12.924,-37.816 -16.179,-57.329 -2.786,1.621 -5.571,3.243 -8.357,4.864 11.024,8.596 17.667,21.348 28,30.666 2.609,2.354 5.844,1.606 7.853,-1.012 9.422,-12.282 -3.173,-26.561 -9.333,-37.047 -2.16,-3.678 -8.059,-3.042 -9.139,1.194 -4.76,18.67 0.72,39.753 13.286,54.198 3.295,3.788 9.854,-0.203 8.356,-4.864 -2.542,-7.913 -4.125,-16.087 -6.667,-24 -1.963,-6.111 -11.278,-3.613 -9.643,2.658 1.116,4.281 -0.065,8.978 -0.179,13.337 2.845,-1.179 5.69,-2.357 8.535,-3.535 -6.397,-7.805 -11.853,-16.967 -13.201,-27.131 -3.274,0.443 -6.547,0.886 -9.821,1.329 2.522,11.283 5.331,22.472 9.333,33.332 2.198,5.965 11.705,3.52 9.643,-2.658 -2.728,-8.173 -5.508,-16.372 -9.837,-23.86 -2.002,-3.465 -6.533,-2.98 -8.635,0 -8.996,12.753 -7.612,30.709 -4.504,45.187 0.463,2.157 2.694,3.672 4.821,3.671 8.059,-0.003 16.019,-0.282 23.995,-1.513 2.777,-0.429 4.046,-3.737 3.492,-6.15 -1.836,-8.009 -0.666,-18.111 8.508,-20.516 -2.05,-1.164 -4.101,-2.328 -6.15,-3.492 1.19,3.605 2.104,6.858 1.334,10.674 3.046,-0.398 6.093,-0.796 9.139,-1.194 -5.446,-7.819 -14.039,-22.907 -8,-32.285 -2.878,0 -5.757,0 -8.635,0 5.928,11.5 3.023,25.402 7.496,37.472 3.046,-1.284 6.093,-2.568 9.139,-3.853 -6.438,-12.28 -4.538,-28.658 -0.83,-41.481 -3.214,0 -6.429,0 -9.643,0 2.845,14.36 4.856,29.753 12.504,42.528 2.989,4.993 10.329,1.62 9.139,-3.853 -2.846,-13.083 -5.299,-28.584 0,-41.342 -3.214,0 -6.429,0 -9.643,0 2.524,13.232 2.809,26.763 5.334,40 1.075,5.639 9.863,4.202 9.821,-1.329 -0.102,-13.447 -2.224,-26.773 1.154,-40.005 -3.214,0 -6.429,0 -9.643,0 3.893,13.039 7.646,26.304 7.821,40.005 0.082,6.446 9.945,6.45 10,0 0.105,-12.514 2.552,-24.514 9.984,-34.811 -3.105,-0.841 -6.212,-1.683 -9.317,-2.523 1.183,8.856 1.331,17.746 1.333,26.668 3.105,-0.841 6.212,-1.683 9.317,-2.523 -4.802,-6.238 -8.338,-13.433 -7.317,-21.477 -3.333,0 -6.667,0 -10,0 0.058,13.496 1.096,29.164 10.799,39.535 2.614,2.795 7.353,1.311 8.356,-2.206 2.666,-9.333 5.332,-18.667 8,-28 -3.046,0.398 -6.093,0.796 -9.139,1.194 3.561,5.643 6.076,12.646 2.666,18.953 3.046,0.398 6.093,0.796 9.139,1.194 -2.996,-11.283 -4.443,-22.98 -6.752,-34.415 -1.909,-9.458 -3.668,-21.764 -10.534,-29.125 -2.597,-2.785 -7.377,-1.322 -8.356,2.206 -3.76,13.537 -1.583,27.832 -5.333,41.334 3.214,0 6.429,0 9.643,0 -3.735,-10.766 -2.548,-22.148 -2.488,-33.339 0.029,-5.519 -8.79,-6.984 -9.821,-1.329 -1.29,7.076 -1.508,14.152 -1.512,21.329 3.273,-0.443 6.548,-0.886 9.821,-1.329 -3.965,-9.517 -7.877,-21.913 -4,-32.008 -2.448,0.996 -4.896,1.992 -7.345,2.988 4.965,2.864 7.302,6.278 7.956,11.951 0.722,6.256 1.023,12.377 3.079,18.395 1.786,5.228 9.82,4.506 9.821,-1.329 0.001,-8.307 -0.253,-16.812 2.146,-24.85 2.42,-8.111 9.226,-12.856 16.849,-15.663 3.699,-1.362 4.715,-5.346 2.206,-8.356 -3.548,-4.26 -8.417,-7.805 -14.235,-6.752 -5.132,0.93 -8.683,5.347 -11.117,9.632 -4.944,8.702 -8.24,21.271 -7.182,31.321 3.273,-0.443 6.548,-0.886 9.821,-1.329 -2.771,-7.305 -4.051,-14.99 -5.334,-22.666 -0.776,-4.646 -6.965,-4.394 -9.139,-1.194 -6.778,9.974 -8.546,21.477 -10.016,33.189 3.273,-0.443 6.548,-0.886 9.821,-1.329 -1.483,-9.042 -2.622,-18.405 -7.171,-26.526 -1.705,-3.044 -7.055,-3.475 -8.635,0 -4.279,9.41 -3.43,19.117 -3.349,29.189 3.273,-0.443 6.548,-0.886 9.821,-1.329 -2.635,-8.256 -3.925,-16.807 -5.334,-25.334 -0.584,-3.533 -6.11,-5.026 -8.356,-2.206 -8.943,11.224 -6.917,24.808 -6.798,38.203 3.273,-0.443 6.548,-0.886 9.821,-1.329 -3.397,-11.354 -0.126,-23.08 -1.154,-34.671 -0.422,-4.751 -6.641,-7.083 -9.317,-2.523 -6.725,11.456 -5.964,24.828 -9.838,37.194 3.273,0.443 6.548,0.886 9.821,1.329 -1.174,-9.859 1.055,-19.628 2.488,-29.339 0.521,-3.522 -2.141,-7.402 -6.15,-6.15 -18.539,5.787 -13.214,27.609 -11.671,42.155 0.67,6.32 10.594,6.451 10,0 -1.247,-13.552 2.879,-49.331 -19.662,-46.155 -2.75,0.388 -4.083,3.771 -3.492,6.15 2.607,10.512 4.964,21.117 3.821,32.005 3.274,-0.443 6.547,-0.886 9.821,-1.329 -2.722,-11.979 -6.476,-23.753 -7.821,-36.005 -0.703,-6.403 -9.366,-6.465 -10,0 -1.491,15.216 -5.294,30.092 -6.667,45.334 3.333,0 6.667,0 10,0 0.087,-17.783 2.604,-36.043 -2.846,-53.329 -1.037,-3.29 -5.828,-5.262 -8.357,-2.206 -11.891,14.362 -3.891,32.907 -10.619,48.872 3.274,0.443 6.547,0.886 9.821,1.329 0,-16.444 0,-32.888 0,-49.332 0,-4.756 -7.062,-7.121 -9.317,-2.523 -5.147,10.488 -9.376,21.607 -11.171,33.194 3.274,0.443 6.547,0.886 9.821,1.329 0.059,-13.821 1.3,-27.591 2.667,-41.334 0.422,-4.246 -5.83,-6.766 -8.536,-3.535 -13.227,15.787 -7.176,38.255 -10.619,56.872 3.214,0 6.428,0 9.643,0 -2.857,-17.874 14.383,-53.076 -11.492,-60.824 -4.076,-1.221 -8.087,3.656 -5.646,7.345 3.972,6.003 3.741,14.442 3.836,21.354 0.111,8.045 -0.48,16.079 -0.519,24.122 -0.026,5.51 8.835,6.996 9.821,1.329 2.465,-14.167 -3.583,-24.418 -13.286,-34.198 -2.357,2.356 -4.714,4.714 -7.071,7.07 1.777,1.778 3.556,3.556 5.333,5.334 2.795,2.797 9.126,1.001 8.536,-3.535 -1.625,-12.479 -4.551,-24.81 -13.464,-34.203 -3.975,-4.188 -10.626,1.17 -7.853,6.059 2.872,5.062 4.528,10.312 4.65,16.145 3.106,-0.841 6.211,-1.683 9.317,-2.523 -3.087,-4.568 -3.308,-9.458 -3.317,-14.811 -1.667,1.667 -3.333,3.333 -5,5 26.833,0.355 45.155,22.735 70.658,27.601 13.917,2.655 28.745,-2.254 41.522,-7.342 13.546,-5.393 26.355,-12.388 39.677,-18.275 -2.28,-0.598 -4.561,-1.196 -6.841,-1.794 0.967,1.386 3.953,4.857 2.961,6.605 -0.767,1.35 -2.975,2.343 -4.167,3.242 -6.316,4.765 -7.589,12.234 -8.703,19.733 -1.562,10.504 0.627,19.868 3.542,29.91 3.288,11.331 6.958,22.542 9.863,33.982 1.36,5.359 10.409,4.367 9.821,-1.329 -0.237,-2.302 -0.792,-4.469 -1.511,-6.663 -1.368,-4.183 -6.741,-4.894 -9.139,-1.194 -3.337,5.148 -10.534,8.261 -16.031,10.578 -8.838,3.727 -18.165,6.317 -27.484,8.515 -9.096,2.145 -18.337,3.788 -27.631,4.771 -5.377,0.568 -12.973,1.488 -17.458,0.26 -14.481,-3.967 -28.926,-8.725 -42.976,-14.01 -2.094,-0.788 -3.446,-1.196 -5.242,-2.312 1.422,0.884 -0.382,-1.081 -0.72,-2.162 -0.646,-2.065 -0.629,-4.26 -0.596,-6.398 0.144,-9.351 3.368,-18.858 6.609,-27.532 0.845,-2.263 1.766,-4.494 2.831,-6.663 -3.106,-0.841 -6.211,-1.683 -9.317,-2.523 0,2.222 0,4.444 0,6.666 0,4.775 7.035,7.095 9.317,2.523 8.718,-17.46 -6.232,-31.966 -21.655,-38.011 1.224,1.607 2.447,3.214 3.671,4.821 0.108,-1.201 1.789,-2.376 2.536,-3.131 1.483,-1.498 2.063,-4.231 0.782,-6.059 -3.441,-4.904 -4.349,-10.244 -3.496,-16.147 0.923,-6.305 -8.712,-9.021 -9.631,-2.658 l 0,0 z"
   inkscape:connector-curvature="0"
   style="fill:#5782c2" />
	</g>
</g><g
       id="g15">
	<g
   id="g17">
		<path
   id="path19"
   d="m 252.107,271.272 c -2.756,-1.306 -6.183,-2.595 -8.726,-0.052 -3.024,3.024 -1.085,6.682 1.335,9.236 0,-2.356 0,-4.714 0,-7.07 -4.02,4.38 -0.679,10.401 5.15,9.236 2.979,-0.596 6.31,-1.988 8.163,-4.443 1.138,-1.508 0.658,-3.505 0,-5.047 -1.112,-2.606 -4.204,-2.543 -6.512,-2.543 -2.867,0 -5.733,0 -8.601,0 -5.274,0 -6.425,6.568 -2.523,9.317 5.907,4.164 11.882,3.512 18.519,1.836 6.249,-1.578 3.597,-11.223 -2.658,-9.643 -4.243,1.071 -7.049,1.825 -10.813,-0.828 -0.841,3.105 -1.683,6.212 -2.523,9.317 1.626,0 3.252,0 4.878,0 1.256,0 4.007,-0.25 4.566,-0.161 -0.996,-0.767 -1.992,-1.532 -2.988,-2.298 0.008,0.016 0.015,0.032 0.021,0.049 0,-1.683 0,-3.365 0,-5.047 1.474,-1.953 1.937,-1.752 0.865,-1.198 -1.137,0.586 0.064,0.02 -0.747,0.341 -0.411,0.163 -0.829,0.302 -1.249,0.438 -1.433,0.466 0.195,0.086 0.947,0.262 0.735,0.429 1.472,0.857 2.207,1.286 -0.031,-0.026 -0.062,-0.053 -0.093,-0.078 0.428,0.735 0.856,1.471 1.285,2.206 -0.006,-0.041 -0.011,-0.082 -0.017,-0.123 0,0.886 0,1.771 0,2.658 -0.27,0.511 -0.538,1.021 -0.808,1.532 1.88,-2.048 1.935,-5.028 0,-7.07 -0.859,-1.026 -0.915,-0.959 -0.165,0.201 -0.168,1.284 -0.336,2.568 -0.504,3.853 0.039,-0.054 0.078,-0.107 0.117,-0.161 -0.996,0.766 -1.992,1.532 -2.988,2.298 0.093,-0.014 0.185,-0.027 0.277,-0.041 -0.887,0 -1.772,0 -2.658,0 0.432,0.072 0.801,0.185 1.194,0.371 5.796,2.747 10.875,-5.873 5.049,-8.634 l 0,0 z"
   inkscape:connector-curvature="0"
   style="fill:#ffd440" />
	</g>
</g><g
       id="g21">
	<g
   id="g23">
		<path
   id="path25"
   d="m 239.935,262.113 c -0.28,-0.442 -0.415,-0.928 -0.403,-1.455 -0.022,0.533 0.006,0.331 0.086,-0.606 -0.159,0.486 -0.075,0.313 0.251,-0.518 -0.097,0.222 -0.215,0.436 -0.325,0.65 -0.717,1.39 -1.025,2.514 -1.225,4.05 -0.24,1.848 0.849,3.638 1.924,5.005 1.669,2.124 4.078,2.238 6.49,1.551 2.311,-0.658 4.511,-1.935 6.191,-3.654 0.646,-0.66 1.204,-1.425 1.708,-2.196 0.116,-0.178 0.222,-0.362 0.325,-0.548 0.548,-0.977 0.309,0.154 -1.572,1.446 -0.841,0.228 -1.683,0.455 -2.523,0.683 0.005,10e-4 0.01,10e-4 0.016,10e-4 -1.179,-0.487 -2.357,-0.976 -3.536,-1.464 0.005,0.005 0.009,0.01 0.013,0.016 -0.429,-0.735 -0.857,-1.471 -1.286,-2.207 -0.378,-1.208 -0.149,-1.529 -0.149,-0.61 0.001,2.726 2.273,5 5,5 2.725,0 5.001,-2.274 5,-5 -10e-4,-2.482 -1.112,-4.84 -3.712,-5.556 -2.467,-0.678 -4.745,0.614 -5.936,2.737 -0.169,0.3 -0.355,0.587 -0.556,0.867 1.111,-1.555 0.041,-0.125 -0.368,0.248 -0.714,0.648 1.016,-0.725 0.178,-0.138 -0.327,0.229 -0.681,0.419 -1.035,0.603 -1.015,0.525 1.087,-0.395 -0.063,0.017 -0.489,0.175 -0.997,0.291 -1.503,0.4 1.621,0.429 3.243,0.857 4.864,1.286 -0.728,-0.783 0.368,0.729 0.427,0.89 0.033,0.285 0.066,0.569 0.1,0.854 0.018,-0.525 -0.014,-0.308 -0.094,0.652 0.203,-0.886 -0.558,1.166 -0.151,0.329 0.141,-0.29 0.295,-0.573 0.435,-0.864 1.252,-2.613 1.223,-4.874 0.066,-7.516 -1.094,-2.498 -4.697,-3.05 -6.841,-1.794 -2.555,1.496 -2.889,4.344 -1.796,6.841 l 0,0 z"
   inkscape:connector-curvature="0"
   style="fill:#ffd440" />
	</g>
</g><g
       id="g27">
	<g
   id="g29">
		<path
   id="path31"
   d="m 243.935,282.398 c -1.041,1.988 -2.464,3.492 -2.561,5.883 -0.059,1.476 0.433,2.828 1.054,4.135 0.838,1.763 2.533,2.628 4.366,2.975 2.416,0.456 5.004,0.119 6.736,-1.818 0.538,-0.603 0.963,-1.253 1.39,-1.928 0.583,-0.919 -0.766,0.886 -0.223,0.281 0.095,-0.1 0.194,-0.194 0.3,-0.283 -1.081,0.971 -0.642,0.49 -0.222,0.265 2.399,-1.287 3.133,-4.555 1.794,-6.841 -1.414,-2.413 -4.439,-3.083 -6.841,-1.794 -1.562,0.838 -2.698,2.122 -3.621,3.609 -0.237,0.383 -0.796,1.07 0.352,-0.381 -0.061,0.073 -0.126,0.141 -0.196,0.204 0.478,-0.489 1.048,-0.821 1.709,-0.996 -0.569,0.224 1.571,-0.023 0.395,-0.107 1.7,0.121 0.354,-0.018 -0.119,-0.167 0.996,0.766 1.992,1.532 2.988,2.298 0.227,0.602 0.256,0.668 0.088,0.199 -0.137,-0.551 -0.122,-0.362 0.042,0.567 -0.184,0.965 -0.211,1.2 -0.081,0.707 -0.397,0.862 -0.471,1.068 -0.22,0.619 0.476,-0.813 1.064,-1.538 1.505,-2.38 1.264,-2.415 0.638,-5.417 -1.794,-6.841 -2.268,-1.328 -5.579,-0.618 -6.841,1.794 l 0,0 z"
   inkscape:connector-curvature="0"
   style="fill:#ffd440" />
	</g>
</g><g
       id="g33">
	<g
   id="g35">
		<path
   id="path37"
   d="m 87.382,303.125 c 1.884,1.883 3.887,3.884 6.529,4.612 4.182,1.153 7.177,-1.896 8.495,-5.486 0.939,-2.561 -1.029,-5.473 -3.492,-6.15 -2.793,-0.769 -5.213,0.936 -6.15,3.492 0.257,-0.538 0.267,-0.581 0.031,-0.13 0.573,-1.051 1.809,-1.373 2.912,-1.502 0.939,0.18 1.146,0.202 0.622,0.067 1.254,0.346 0.619,0.262 0.175,-0.018 -0.424,-0.302 -0.356,-0.244 0.205,0.173 -0.289,-0.232 -0.561,-0.487 -0.833,-0.739 -0.487,-0.448 -0.953,-0.922 -1.421,-1.39 -1.928,-1.926 -5.144,-1.928 -7.071,0 -1.927,1.925 -1.929,5.146 -0.002,7.071 l 0,0 z"
   inkscape:connector-curvature="0"
   style="fill:#ffd440" />
	</g>
</g><g
       id="g39">
	<g
   id="g41">
		<path
   id="path43"
   d="m 74.097,278.261 c -0.723,4.812 -0.496,9.663 2.825,13.522 3.134,3.643 8.062,4.742 12.664,4.807 2.461,0.035 5.35,-2.316 5,-5 -0.105,-0.812 -0.186,-1.616 -0.222,-2.434 -0.009,-0.306 -0.007,-0.61 0.007,-0.915 0.034,-1.309 -0.221,1.024 -0.012,0.009 0.242,-1.18 -0.406,0.734 -0.174,0.313 0.325,-0.591 -0.947,1.191 -0.542,0.703 1.624,-1.956 2.218,-5.194 0,-7.071 -1.528,-1.293 -2.917,-1.576 -4.869,-1.29 -0.548,0.081 1.804,-0.167 0.847,-0.127 -1.356,0.057 0.699,0.177 -0.245,0.002 -0.837,-0.156 -1.653,-0.419 -2.462,-0.68 -4.593,-1.479 -8.777,5.141 -4.865,8.356 1.251,1.029 2.326,1.601 3.847,2.165 0.496,0.185 1.018,0.312 1.526,0.455 2.341,0.664 -0.765,0.383 -1.326,-2.158 1.39,6.296 11.029,3.626 9.643,-2.658 -0.496,-2.247 -2.303,-3.564 -4.316,-4.371 -0.605,-0.243 -1.223,-0.421 -1.85,-0.599 -0.697,-0.198 -1.317,-0.615 -0.452,0.096 -1.622,2.785 -3.243,5.571 -4.865,8.356 2.41,0.776 4.675,1.173 7.176,0.806 -1.622,-0.429 -3.243,-0.857 -4.865,-1.286 0.001,10e-4 0.003,0.003 0.005,0.004 0,-2.357 0,-4.714 0,-7.071 -2.261,2.725 -2.432,5.979 -1.987,9.395 1.667,-1.667 3.333,-3.333 5,-5 -1.489,-0.021 -2.006,-0.045 -3.397,-0.414 -0.051,-0.014 -1.545,-0.646 -0.697,-0.236 -0.283,-0.146 -0.558,-0.306 -0.823,-0.481 0.386,0.327 0.365,0.3 -0.065,-0.08 -0.261,-0.235 -0.645,-0.954 -0.769,-1.377 -0.109,-0.59 -0.142,-0.655 -0.099,-0.198 -0.039,-0.369 -0.062,-0.739 -0.068,-1.111 -0.021,-0.555 0.005,-1.329 0.072,-1.772 0.405,-2.692 -0.632,-5.364 -3.492,-6.15 -2.387,-0.66 -5.745,0.79 -6.15,3.49 l 0,0 z"
   inkscape:connector-curvature="0"
   style="fill:#ffd440" />
	</g>
</g><g
       id="g45">
	<g
   id="g47">
		<path
   id="path49"
   d="m 93.58,264.101 c -4.496,-1.527 -8.596,-2.721 -13.324,-1.332 -3.524,1.034 -4.988,5.711 -2.207,8.356 3.809,3.623 8.653,5.923 13.012,8.782 5.409,3.549 10.414,-5.114 5.047,-8.635 -3.612,-2.37 -7.84,-4.224 -10.988,-7.218 -0.735,2.785 -1.471,5.571 -2.207,8.356 2.83,-0.831 5.318,0.419 8.008,1.332 6.124,2.081 8.73,-7.58 2.659,-9.641 l 0,0 z"
   inkscape:connector-curvature="0"
   style="fill:#ffd440" />
	</g>
</g><g
       id="g51">
	<g
   id="g53">
		<path
   id="path55"
   d="m 125.072,219.585 c 2.561,-7.183 7.483,-12.72 13.702,-17.012 -2.28,-2.28 -4.561,-4.561 -6.841,-6.841 -2.8,6.025 -3.876,12.664 -6.666,18.666 -1.387,2.984 0.167,8.053 4.317,7.523 7.263,-0.927 14.07,-0.684 19.13,5.203 2.13,2.478 6.314,1.612 7.853,-1.012 1.518,-2.589 4.829,-9.518 7.234,-10.493 -0.952,0.386 -1.545,-0.693 -0.52,0.192 1.204,1.039 2.257,2.269 3.371,3.4 5.655,5.747 12.636,8.697 20.538,9.688 14.938,1.873 37.952,-6.006 29.83,-25.07 -5.945,-13.953 -26.126,-18.446 -39.409,-19.929 -14.368,-1.604 -32.982,0.098 -42.229,12.691 -1.225,1.668 -2.023,3.702 -2.621,5.667 -1.275,4.187 3.641,7.912 7.345,5.646 4.261,-2.606 9.072,-4.062 13.333,-6.668 -2.448,-1.882 -4.896,-3.765 -7.345,-5.646 -1.7,4.2 -1.412,8.988 -2.667,13.334 -1.311,4.538 5.121,8.901 8.357,4.864 3.812,-4.756 8.958,-7.845 13.333,-12 -2.617,-2.02 -5.235,-4.039 -7.853,-6.059 -1.635,2.347 -2.084,5.248 -3.171,7.86 -2.173,5.223 6.823,8.995 9.139,3.853 2.399,-5.328 6.507,-7.679 11.539,-10.206 -2.02,-0.261 -4.039,-0.521 -6.059,-0.782 1.339,1.61 1.192,3.841 1.202,5.799 0.008,1.651 0.921,3.57 2.477,4.317 5.024,2.411 8.383,-1.096 10.012,-5.654 -3.214,0 -6.429,0 -9.643,0 0.854,2.616 0.467,5.349 1.333,8 1.049,3.213 4.37,4.461 7.345,2.988 2.251,-1.114 4.273,-1.865 6.81,-1.985 -1.667,-1.667 -3.333,-3.333 -5,-5 -0.005,3.27 -0.383,6.153 -1.154,9.339 -1.321,5.457 6.253,8.858 9.139,3.853 1.243,-2.156 2.808,-3.898 4.551,-5.656 -2.356,-2.356 -4.714,-4.714 -7.07,-7.07 -1.633,2.055 -2.407,4.663 -4,6.668 -3.121,3.927 -0.289,9.356 4.864,8.356 1.348,-0.262 2.84,-0.849 3.79,-1.911 0.569,-0.636 2.261,-2.228 1.544,-2.089 -2.877,-2.093 -3.809,-2.368 -2.795,-0.827 0.296,0.586 0.668,1.12 1.117,1.604 0.845,0.999 1.82,1.435 3.02,1.89 1.669,0.635 3.64,-0.149 4.864,-1.286 2.847,-2.64 6.396,-3.862 9.654,-5.884 -2.28,-0.598 -4.561,-1.196 -6.841,-1.794 0.805,1.749 0.646,3.595 0.651,5.477 2.508,-1.439 5.016,-2.878 7.523,-4.317 -10.063,-6.097 -16.02,-17.089 -27.861,-20.504 -4.496,-1.297 -7.469,3.562 -5.646,7.345 2.87,5.956 4.794,12.35 6.163,18.806 1.164,-2.05 2.328,-4.101 3.492,-6.15 -4.942,1.648 -5.969,1.533 -7.308,-3.187 -1.296,-4.569 -2.456,-9.062 -6.395,-12.093 -13.44,-10.341 -20.793,12.375 -27.171,19.231 2.357,0 4.714,0 7.071,0 -3.119,-2.772 -6.619,-4.344 -10.345,-6.116 -3.337,-1.588 -7.523,0.283 -7.523,4.317 0,2.667 0,5.333 0,8 3.333,0 6.667,0 10,0 -0.082,-8.909 -1.252,-17.757 -1.334,-26.666 -0.059,-6.445 -10.059,-6.451 -10,0 0.082,8.909 1.252,17.757 1.334,26.666 0.059,6.445 10,6.451 10,0 0,-2.667 0,-5.333 0,-8 -2.508,1.439 -5.016,2.878 -7.523,4.317 2.849,1.355 5.932,2.428 8.321,4.552 1.978,1.758 5.135,2.081 7.071,0 4.338,-4.664 6.693,-10.719 10.355,-15.868 2.685,-3.774 4.347,-2.906 5.547,0.898 1.305,4.138 2.082,8.095 4.915,11.534 3.803,4.614 10.688,3.708 15.643,2.056 2.702,-0.901 4.081,-3.373 3.492,-6.15 -1.553,-7.322 -3.92,-14.448 -7.171,-21.194 -1.882,2.448 -3.765,4.896 -5.646,7.345 10.35,2.984 16.464,14.038 25.473,19.496 3.254,1.972 7.533,-0.57 7.523,-4.317 -0.01,-3.845 -0.402,-7.018 -2.017,-10.523 -1.12,-2.433 -4.693,-3.127 -6.841,-1.794 -4.045,2.51 -8.128,4.154 -11.678,7.448 1.621,-0.429 3.243,-0.857 4.864,-1.286 1.779,1.485 2.275,1.641 1.487,0.465 -0.38,-0.543 -0.778,-1.072 -1.195,-1.588 -1.247,-1.247 -2.968,-1.99 -4.738,-1.99 -1.658,0 -3.626,0.69 -4.99,1.576 -0.617,0.379 -1.146,0.853 -1.585,1.423 -0.444,0.496 -1.768,1.603 -0.971,1.448 1.621,2.785 3.243,5.571 4.864,8.356 1.634,-2.055 2.407,-4.662 4,-6.668 3.907,-4.92 -2.415,-11.766 -7.07,-7.07 -2.327,2.346 -4.46,4.809 -6.115,7.68 3.046,1.284 6.093,2.568 9.139,3.853 0.971,-4.008 1.506,-7.876 1.512,-11.997 0.004,-2.628 -2.278,-5.129 -5,-5 -4.343,0.206 -7.987,1.436 -11.856,3.351 2.448,0.996 4.896,1.992 7.345,2.988 -0.854,-2.617 -0.467,-5.349 -1.333,-8 -1.587,-4.857 -7.979,-4.657 -9.643,0 -0.286,0.801 -0.517,0.209 1.393,-0.554 1.284,0.168 2.568,0.336 3.853,0.504 -0.188,-0.091 -0.378,-0.182 -0.567,-0.272 0.825,1.439 1.651,2.878 2.477,4.317 -0.024,-4.935 -0.93,-9.022 -4.132,-12.869 -1.483,-1.783 -4.178,-1.727 -6.059,-0.782 -6.44,3.234 -12.074,7.015 -15.127,13.794 3.046,1.284 6.093,2.568 9.139,3.853 0.746,-1.791 1.054,-3.88 2.163,-5.472 3.353,-4.812 -3.869,-9.842 -7.853,-6.059 -4.376,4.155 -9.521,7.243 -13.334,12 2.786,1.621 5.571,3.243 8.357,4.864 1.255,-4.345 0.968,-9.134 2.667,-13.334 1.699,-4.199 -3.878,-7.767 -7.345,-5.646 -4.261,2.606 -9.072,4.062 -13.333,6.668 2.448,1.882 4.896,3.765 7.345,5.646 3.579,-11.749 22.527,-11.854 32.149,-11.279 7.272,0.435 14.792,2.022 21.479,4.956 4.674,2.051 10.467,5.269 12.353,10.354 2.437,6.571 -6.022,8.954 -10.736,9.82 -6.512,1.195 -13.831,0.349 -19.568,-3.024 -4.541,-2.67 -7.437,-8.955 -12.919,-9.927 -8.5,-1.506 -13.772,9.351 -17.23,15.248 2.618,-0.338 5.235,-0.675 7.853,-1.012 -6.678,-7.769 -16.461,-9.376 -26.202,-8.133 1.439,2.508 2.878,5.016 4.317,7.523 2.801,-6.025 3.877,-12.664 6.666,-18.666 1.908,-4.106 -2.313,-9.965 -6.841,-6.841 -8.492,5.86 -14.811,13.207 -18.298,22.988 -2.169,6.09 7.495,8.687 9.644,2.658 l 0,0 z"
   inkscape:connector-curvature="0"
   style="fill:#e66224" />
	</g>
</g><path
       id="path57"
       d="m 94.918,264.922 c -7.009,-8.143 -24.297,-1.947 -16.185,9.652 4.226,6.043 13.478,7.467 21.312,6.146 1.097,-5.006 0.79,-9.943 -2.46,-13.131"
       stroke-miterlimit="10"
       inkscape:connector-curvature="0"
       style="fill:none;stroke:#231f20;stroke-width:2;stroke-miterlimit:10" /><path
       id="path59"
       d="m 77.585,279.59 c -12.146,23.008 27.997,17.398 21.333,6.666"
       stroke-miterlimit="10"
       inkscape:connector-curvature="0"
       style="fill:none;stroke:#231f20;stroke-width:2;stroke-miterlimit:10" /><path
       id="path61"
       d="m 84.251,295.59 c -3.002,14.252 15.704,16.24 13.334,1.332"
       stroke-miterlimit="10"
       inkscape:connector-curvature="0"
       style="fill:none;stroke:#231f20;stroke-width:2;stroke-miterlimit:10" /><path
       id="path63"
       d="m 85.585,259.59 c -3.087,-10.004 -5.485,-30.045 -1.132,-41.102 12.277,-1.432 75.879,15.447 76,28.898 6.725,0.299 14.549,2.248 18.634,-3.828 -0.48,-0.395 -2.556,-2.492 -1.692,-1.299 14.232,1.574 28.49,-4.996 41.519,-9.066 10.735,-3.355 20.79,-10.27 31.804,-10.736 0.449,8.727 0.201,17.664 0.201,26.465"
       stroke-miterlimit="10"
       inkscape:connector-curvature="0"
       style="fill:none;stroke:#231f20;stroke-width:2;stroke-miterlimit:10" /><path
       id="path65"
       d="m 261.584,255.59 c -6.615,-2.582 -23.068,-6.91 -25.4,3.635 -2.494,11.273 10.863,11.43 18.537,10.834 1.484,-3.803 2.691,-7.596 2.863,-11.803"
       stroke-miterlimit="10"
       inkscape:connector-curvature="0"
       style="fill:none;stroke:#231f20;stroke-width:2;stroke-miterlimit:10" /><path
       id="path67"
       d="m 238.918,268.922 c -10.475,20.574 23.074,19.025 23.855,2.604 -1.758,-1.939 -2.768,-0.943 -5.189,-1.27"
       stroke-miterlimit="10"
       inkscape:connector-curvature="0"
       style="fill:none;stroke:#231f20;stroke-width:2;stroke-miterlimit:10" /><path
       id="path69"
       d="m 242.918,284.922 c -1.336,2.74 -1.59,6.195 -1.133,9.133 3.012,0.775 8.588,0.773 11.598,0 0.229,-2.262 0.756,-5.521 0.201,-7.799"
       stroke-miterlimit="10"
       inkscape:connector-curvature="0"
       style="fill:none;stroke:#231f20;stroke-width:2;stroke-miterlimit:10" /><path
       id="path71"
       d="m 248.252,295.59 c 2.926,7.898 1.332,19.193 1.332,28"
       stroke-miterlimit="10"
       inkscape:connector-curvature="0"
       style="fill:none;stroke:#231f20;stroke-width:2;stroke-miterlimit:10" /><path
       id="path73"
       d="m 89.585,308.922 c 1.973,5.217 -1.441,15.758 1.174,20.064 3.888,6.404 17.754,6.393 24.297,7.902 9.108,2.102 32.043,1.945 29.397,14.504 4.904,0.979 45.649,4.457 28.937,-7.434 23.144,-5.807 54.179,-4.982 74.862,-16.369"
       stroke-miterlimit="10"
       inkscape:connector-curvature="0"
       style="fill:none;stroke:#231f20;stroke-width:2;stroke-miterlimit:10" /><path
       id="path75"
       d="m 144.251,255.59 c 0,21.768 -4.414,57.545 4,77.332"
       stroke-miterlimit="10"
       inkscape:connector-curvature="0"
       style="fill:none;stroke:#231f20;stroke-width:2;stroke-miterlimit:10" /><path
       id="path77"
       d="m 174.918,258.256 c 0.751,22.043 -6.756,51.492 4,72"
       stroke-miterlimit="10"
       inkscape:connector-curvature="0"
       style="fill:none;stroke:#231f20;stroke-width:2;stroke-miterlimit:10" /><path
       id="path79"
       d="m 92.251,216.922 c -1.227,1.051 2.096,4.092 -3.3,2.668 3.208,0.426 6.686,-0.174 9.829,-0.266 -1.607,-0.828 -2.5,-1.652 -4.792,-2.396 2.727,0.518 5.748,-0.254 8.524,0.09 -0.951,-1.15 -2.546,-2.998 -3.526,-3.898 7.622,-0.838 10.4,6.637 17.265,8.871 5.36,1.742 11.865,-0.779 17.369,0.234 10.41,1.918 20.471,8.314 30.669,10.66 22.83,5.25 46.267,-16.084 70.432,-17.098 -0.08,4.924 2.586,3.793 5.531,6.469"
       stroke-miterlimit="10"
       inkscape:connector-curvature="0"
       style="fill:none;stroke:#231f20;stroke-width:2;stroke-miterlimit:10" /><path
       id="path81"
       d="m 184.251,235.59 c 7.735,3.414 31.521,-7.768 40.001,-10.668"
       stroke-miterlimit="10"
       inkscape:connector-curvature="0"
       style="fill:none;stroke:#231f20;stroke-width:2;stroke-miterlimit:10" /><path
       id="path83"
       d="m 117.585,219.59 c 5.884,-29.156 25.068,-35.975 53.195,-36 28.014,-0.025 37.679,12.764 48.138,34.666"
       stroke-miterlimit="10"
       inkscape:connector-curvature="0"
       style="fill:none;stroke:#231f20;stroke-width:2;stroke-miterlimit:10" /><path
       id="path85"
       d="m 150.918,226.256 c 7.236,0.129 13.621,-6.043 16.297,-13.227 6.584,5.43 9.314,12.646 17.036,17.227"
       stroke-miterlimit="10"
       inkscape:connector-curvature="0"
       style="fill:none;stroke:#231f20;stroke-width:2;stroke-miterlimit:10" /><path
       id="path87"
       d="m 110.918,188.922 c -1.375,1.021 -4.017,2.148 -6.396,2.504 -0.071,-3.75 -2.123,-5.178 -0.769,-9.27 -12.027,-1.402 -1.059,-13.372 5.832,-4.365 3.329,-3.761 5.388,-3.824 10.465,-3.333 -1.359,3.693 0.674,3.935 -2.036,6.792 13.853,4.094 -1.126,16.158 -8.429,9.006"
       stroke-miterlimit="10"
       inkscape:connector-curvature="0"
       style="fill:none;stroke:#231f20;stroke-width:2;stroke-miterlimit:10" /><path
       id="path89"
       d="m 80.252,163.588 c 2.834,3.218 7.235,4.6 11.803,3.803 0.299,-1.259 0.073,-2.351 0.395,-3.605 5.697,1.889 12.994,2.386 12.935,-5.334 -1.221,-0.542 -2.352,0.084 -3.598,-0.389 2.646,-5.882 0.67,-11.861 -6.963,-11.637 -0.33,1.522 -1.252,3.136 -1.504,5.021 -4.31,-6.775 -13.741,-10.066 -18.264,-1.457 2.212,1.161 3.402,4.135 5.025,5.233 -4.442,3.681 -2.648,4.868 -3.628,9.497 4.263,1.379 6.594,0.008 9.132,-2.465"
       stroke-miterlimit="10"
       inkscape:connector-curvature="0"
       style="fill:none;stroke:#231f20;stroke-width:2;stroke-miterlimit:10" /><path
       id="path91"
       d="m 220.475,13.748 c 4.926,-2.318 11.711,-2.997 17.582,-2.352 0.551,2.865 2.58,5.056 2.908,7.879 12.877,-5.998 37.578,-26.007 36.279,2.563 15.252,-1.571 25.432,1.194 22.967,15.783 10.953,-0.039 18.414,7.004 15.717,15.781 -1.496,0.452 -3.01,0.587 -4.547,0.395 22.168,8.29 21.053,41.021 -2.846,26.892 0.896,11.387 1.457,29.291 -4.838,39.821 -14.986,1.718 -15.334,-9.995 -14.637,-20.427 0.473,9.823 3.816,19.032 -4.842,25.176 -8.33,5.911 -19.232,5.062 -23.768,-4.116 -0.729,15.656 -30.08,32.099 -35.395,10.139 -6.512,16.21 -30.375,17.493 -32.241,-1.197 -1.864,10.695 -9.648,18.197 -23.64,15.365 -0.438,-3.351 -3.081,-6.057 -3.034,-9.497 -9.516,19.157 -34.848,10.912 -38.307,-5.926 -7.361,10.417 -30.609,14.558 -29.887,-1.784 -5.395,16.669 -36.796,15.802 -34.527,-3.42 -10.855,1.054 -22.108,2.997 -33.273,2.935 -2.622,-5.029 -3.719,-10.483 -3.283,-16.036 -4.578,1.582 -12.929,0.642 -17.596,2.088 C -5.26,95.823 6.075,83.83 33.03,84.695 1.48,83.425 10.994,41.804 31.37,49.801 30.949,39.427 30.099,35.641 38.708,29.327 46.838,23.374 59.702,20.801 66.932,27.312 73.918,1.973 100.117,5.28 122.157,14.235 c 0.104,2.943 1.877,5.266 2.313,7.509 20.643,-5.901 30.083,-13.053 46.924,4.287 10.762,-10.191 18.128,-6.479 29.229,1.732 5.34,-7.351 14.41,-11.554 21.683,-17.427"
       stroke-miterlimit="10"
       inkscape:connector-curvature="0"
       style="fill:none;stroke:#231f20;stroke-width:2;stroke-miterlimit:10" /></g></g>
<g
   inkscape:groupmode="layer"
   id="layer2"
   inkscape:label="words"
   style="display:inline">
<g
   style="font-size:64px;font-style:normal;font-variant:normal;font-weight:bold;font-stretch:normal;line-height:125%;letter-spacing:0px;word-spacing:0px;fill:#000000;fill-opacity:1;stroke:none;font-family:Arial;-inkscape-font-specification:Arial Bold"
   id="0007"
   transform="matrix(0.88335264,0,0,0.66159087,102.88886,28.593806)">
<path
   d="m 59.956787,89.600555 0,-6.84375 12.4375,-14.28125 c 2.041651,-2.333309 3.552066,-3.989558 4.53125,-4.96875 -1.02085,0.06253 -2.364599,0.104193 -4.03125,0.125 l -11.71875,0.0625 0,-7.28125 27.4375,0 0,6.21875 -12.6875,14.625 -4.46875,4.84375 c 2.437485,-0.145825 3.9479,-0.218742 4.53125,-0.21875 l 13.59375,0 0,7.71875 z"
   id="zzz"
   inkscape:connector-curvature="0" />
<animate
   xlink:href="#zzz"
   attributeName="d"
   dur="6s"
   repeatCount="indefinite"
   calcMode="linear"
   values="m 59.956787,89.600555 0,-6.84375 12.4375,-14.28125 c 2.041651,-2.333309 3.552066,-3.989558 4.53125,-4.96875 -1.02085,0.06253 -2.364599,0.104193 -4.03125,0.125 l -11.71875,0.0625 0,-7.28125 27.4375,0 0,6.21875 -12.6875,14.625 -4.46875,4.84375 c 2.437485,-0.145825 3.9479,-0.218742 4.53125,-0.21875 l 13.59375,0 0,7.71875 z;    m 59.956787,89.600555 0,-6.84375 12.4375,-14.28125 c 2.041651,-2.333309 3.552066,-3.989558 4.53125,-4.96875 -1.02085,0.06253 -2.364599,0.104193 -4.03125,0.125 l -11.71875,0.0625 0,-7.28125 27.4375,0 0,6.21875 -12.6875,14.625 -4.46875,4.84375 c 2.437485,-0.145825 3.9479,-0.218742 4.53125,-0.21875 l 13.59375,0 0,7.71875 z;     m 59.956787,89.600555 0,-10.393493 18.888631,-21.688705 c 3.100623,-3.543559 5.394466,-6.058878 6.881537,-7.545961 -1.550349,0.09496 -3.591079,0.158237 -6.122195,0.189836 l -17.797077,0.09492 0,-11.057918 41.668887,0 0,9.444316 -19.268299,22.210752 -6.786619,7.356126 c 3.701769,-0.221463 5.995612,-0.3322 6.881537,-0.332213 l 20.644611,0 0,11.722342 z;     m 59.956787,89.600554 0,-13.620532 26.555201,-28.422755 c 4.359113,-4.643786 7.583987,-7.940077 9.674634,-9.88888 -2.179609,0.124444 -5.048636,0.207368 -8.607088,0.248778 l -25.020604,0.124391 0,-14.491252 58.58157,0 0,12.376649 -27.088969,29.10689 -9.541191,9.640104 c 5.204253,-0.290224 8.429128,-0.435344 9.674634,-0.435361 l 29.023906,0 0,15.361971 z;   m 59.956787,89.600554 0,-13.620532 26.555201,-28.422755 c 4.359113,-4.643786 7.583987,-7.940077 9.674634,-9.88888 -2.179609,0.124444 -5.048636,0.207368 -8.607088,0.248778 l -25.020604,0.124391 0,-14.491252 58.58157,0 0,12.376649 -27.088969,29.10689 -9.541191,9.640104 c 5.204253,-0.290224 8.429128,-0.435344 9.674634,-0.435361 l 29.023906,0 0,15.361971 z;  m 59.956787,89.600555 0,-10.393493 18.888631,-21.688705 c 3.100623,-3.543559 5.394466,-6.058878 6.881537,-7.545961 -1.550349,0.09496 -3.591079,0.158237 -6.122195,0.189836 l -17.797077,0.09492 0,-11.057918 41.668887,0 0,9.444316 -19.268299,22.210752 -6.786619,7.356126 c 3.701769,-0.221463 5.995612,-0.3322 6.881537,-0.332213 l 20.644611,0 0,11.722342 z;      m 59.956787,89.600555 0,-6.84375 12.4375,-14.28125 c 2.041651,-2.333309 3.552066,-3.989558 4.53125,-4.96875 -1.02085,0.06253 -2.364599,0.104193 -4.03125,0.125 l -11.71875,0.0625 0,-7.28125 27.4375,0 0,6.21875 -12.6875,14.625 -4.46875,4.84375 c 2.437485,-0.145825 3.9479,-0.218742 4.53125,-0.21875 l 13.59375,0 0,7.71875 z;   m 59.956787,89.600555 0,-6.84375 12.4375,-14.28125 c 2.041651,-2.333309 3.552066,-3.989558 4.53125,-4.96875 -1.02085,0.06253 -2.364599,0.104193 -4.03125,0.125 l -11.71875,0.0625 0,-7.28125 27.4375,0 0,6.21875 -12.6875,14.625 -4.46875,4.84375 c 2.437485,-0.145825 3.9479,-0.218742 4.53125,-0.21875 l 13.59375,0 0,7.71875 z;   m 59.956787,89.600555 0,-6.84375 12.4375,-14.28125 c 2.041651,-2.333309 3.552066,-3.989558 4.53125,-4.96875 -1.02085,0.06253 -2.364599,0.104193 -4.03125,0.125 l -11.71875,0.0625 0,-7.28125 27.4375,0 0,6.21875 -12.6875,14.625 -4.46875,4.84375 c 2.437485,-0.145825 3.9479,-0.218742 4.53125,-0.21875 l 13.59375,0 0,7.71875 z;   m 59.956787,89.600555 0,-6.84375 12.4375,-14.28125 c 2.041651,-2.333309 3.552066,-3.989558 4.53125,-4.96875 -1.02085,0.06253 -2.364599,0.104193 -4.03125,0.125 l -11.71875,0.0625 0,-7.28125 27.4375,0 0,6.21875 -12.6875,14.625 -4.46875,4.84375 c 2.437485,-0.145825 3.9479,-0.218742 4.53125,-0.21875 l 13.59375,0 0,7.71875 z;    "
   id="animate56" />

</g></g></svg>